<?xml version="1.0" encoding="utf-8"?>
<!-- Generator: Adobe Illustrator 25.2.3, SVG Export Plug-In . SVG Version: 6.00 Build 0)  -->
<svg version="1.1" id="Layer_1" xmlns="http://www.w3.org/2000/svg" xmlns:xlink="http://www.w3.org/1999/xlink" x="0px" y="0px"
	 viewBox="0 0 18 20.1" style="enable-background:new 0 0 18 20.1;" xml:space="preserve">
<style type="text/css">
	.st0{fill:#FFFFFF;}
</style>
<g>
	<path class="st0" d="M0,18.8c0-0.1,0-0.1,0-0.2v-0.1c0-0.3,0.1-0.6,0.1-0.9c0.1-0.5,0.1-1,0.2-1.5s0.1-1,0.2-1.4
		c0.1-0.5,0.1-1,0.2-1.4c0.1-0.6,0.1-1.1,0.2-1.7s0.2-1.1,0.2-1.7c0.1-0.5,0.1-1.1,0.2-1.6c0.1-0.6,0.2-1.2,0.2-1.8
		c0.1-0.7,0.2-1.4,0.3-2.1C2,3.7,2,3.1,2.1,2.4c0-0.3,0.2-0.7,0.4-0.9l0.1-0.1C2.8,1.2,3.1,1,3.4,0.9c0.2,0,0.4-0.1,0.6-0.2
		c0.9-0.2,1.8-0.4,2.6-0.6C6.9,0.1,7.1,0,7.3,0c0.2,0,0.4,0,0.6,0C8,0,8.1,0,8.2,0c0.2,0,0.5,0.1,0.7,0.3C9.3,0.6,9.7,0.9,10,1.4
		c0.2,0.4,0.5,0.7,0.7,1.1c1.8,2.9,3.5,5.8,5.3,8.7c0.6,1,1.2,2,1.8,2.9c0,0.1,0.1,0.1,0.1,0.2c0.1,0.4,0.1,0.7-0.1,1.1
		c-0.2,0.4-0.6,0.7-1,0.9c-0.1,0-0.3,0.1-0.4,0.1c-0.7,0.2-1.3,0.3-2,0.5C14,17,13.7,17,13.3,17c-0.3,0-0.7-0.1-1-0.2
		c-0.4-0.2-0.7-0.5-1-0.9c-0.2-0.2-0.3-0.5-0.5-0.7c-0.2-0.3-0.4-0.6-0.5-0.8c0-0.1-0.1-0.1-0.2-0.1c-0.3,0.1-0.5,0.1-0.8,0.2
		C8.2,14.8,7.1,15,6,15.3c-0.1,0-0.3,0.1-0.4,0.1H5.5l0,0c0-0.2,0-0.3,0.1-0.5c0-0.4,0.1-0.8,0.2-1.2c0.1-0.6,0.2-1,0.2-1.4
		s0.1-0.7,0.3-1.1c0.2-0.4,0.5-0.7,0.9-0.9c0.2-0.1,0.3-0.1,0.5-0.2c0.1,0,0.1,0,0.1-0.2l0,0c-1-1.6-1.9-3.2-2.9-4.8
		c0,0,0-0.1-0.1-0.1v0.1c0,0.3-0.1,0.7-0.1,1c-0.1,0.5-0.1,1-0.2,1.6c-0.1,0.5-0.1,1-0.2,1.4c-0.1,0.5-0.1,1-0.2,1.4
		C4,11,4,11.5,3.9,12.1c-0.1,0.5-0.1,1.1-0.2,1.6c-0.1,0.5-0.1,0.9-0.2,1.4c0,0.2,0,0.3,0,0.5s0.1,0.3,0.3,0.4c0.1,0,0.2,0,0.3,0
		c0.2,0,0.4-0.1,0.6-0.1s0.4-0.1,0.6-0.1c0.1,0,0.1,0,0.1,0.1s0,0.1,0,0.2c-0.1,0.4-0.1,0.7-0.2,1.1c0,0.2-0.1,0.5-0.1,0.7
		c-0.1,0.4-0.2,0.7-0.4,1c-0.2,0.2-0.4,0.4-0.6,0.5c-0.2,0.1-0.3,0.1-0.5,0.2c-0.7,0.2-1.5,0.4-2.2,0.5C1.1,20,1,20,0.8,20
		c-0.3,0-0.5-0.1-0.6-0.4C0.1,19.4,0.1,19.2,0,19C0,19,0,18.9,0,18.8z"/>
</g>
</svg>
