<?xml version="1.0" encoding="utf-8"?>
<!-- Generator: Adobe Illustrator 24.3.0, SVG Export Plug-In . SVG Version: 6.00 Build 0)  -->
<svg version="1.1" id="Layer_1" xmlns="http://www.w3.org/2000/svg" xmlns:xlink="http://www.w3.org/1999/xlink" x="0px" y="0px"
	 viewBox="0 0 1493.9 491.4" style="enable-background:new 0 0 1493.9 491.4;" xml:space="preserve">
<style type="text/css">
	.st0{fill:#FFFFFF;}
</style>
<g>
	<path class="st0" d="M1148.7,69.1c3.4-15.7,6.8-31.4,10-47.1c2.5-11.9,3.6-13.7,14.7-14.1c15.3-0.6,30.7-0.7,46,0
		c12,0.6,12.2,1.7,9.8,13.8c-11.6,58.4-23,116.9-34.7,175.3c-7.3,36.5-15,72.9-22.2,109.4c-3.8,19.1-3.6,18.3-22.3,19.9
		c-28.6,2.5-57,1.1-85.4-2.3l-0.2-0.3c-1-5.3-2-10.5-3-15.8l-0.4-0.4c-3.3-19-6.5-38.1-9.8-57.1l-0.2-0.2c-1.7-9-3.3-17.9-4.9-26.8
		c-1.7-9.6-3.4-19.2-5-28.7c-2.7-23.7-5.5-47.3-8-71c-0.7-6.5-0.7-13.1-1-17.6c0.6,11.3-4.1,25.3-5.8,36.5
		c-2.1,14.1-4.4,28.2-6.9,42.2c-7.8,44.2-17.8,87.8-26.2,131.9c-0.9,5.1-2.9,7-7.4,7.9c-18.3,3.7-36.6,4.4-55,0.7
		c-8-1.6-8.8-3.1-7.1-11.6c15.5-78,31.2-156,46.7-233.9c4-19.9,8-39.7,11.6-59.7c1.3-7.1,4-11.4,11.3-11.5c24-0.4,48.1-1.1,72.1-1.3
		c5.8-0.1,11.7,1.2,17.5,1.9c4.7,0.5,6.5,3.5,7.3,8.2c7.7,47.1,16.3,94,23.2,141.2c3.7,25.3,4.5,51,6.4,73.9
		c2.7-17.3,5.5-37.3,9-57.2c4.6-25.8,10-51.4,14.9-77.2C1145.5,88.4,1147,78.7,1148.7,69.1z"/>
	<path class="st0" d="M238.2,176.7c16.5,28,11.4,56.5,0.7,84.6c-32.7,86-135.4,64.5-203.7,66.4c-7.8,0.2-15.7,0-23.5,0
		c-14.5,0-11.7-0.6-10.9-12.7l0.3-0.5c0.3-0.5,0.3-1.1-0.1-1.5c5.8-28.2,11.7-56.3,17.4-84.5c0.2-1.1-0.4-2.3-0.6-3.4
		c2.9-12.1,6.2-24.1,8.7-36.3C36.2,141,45.7,93.1,55.2,45.2c2-10.2,4.2-20.3,6.1-30.5c1.1-6.1,3.8-9,10.2-9c42,0.2,84-0.3,126,0.4
		c17.9,0.3,39.1,4.2,53.3,16.6c18.9,16.5,20.4,49.1,15.4,72.5c-1.6,7.5-4,14.8-6.1,22.3c-0.6,1.2-1.1,2.4-1.7,3.6
		c-1.7,3-3.3,5.9-5,8.9l-0.1,0.1c-1.1,1.8-2.2,3.5-3.3,5.3c-5.6,6-11.2,11.9-16.8,18c-1,0.5-2.1,1-3.1,1.5l-0.5,0.5
		c-2.7,2-5.3,4-8.8,6.5c3,1.6,5.2,2.8,7.3,4c2.8,3,5.6,6,8.4,8.9l0.1,0.1C237.1,175.5,237.7,176.1,238.2,176.7z M182.6,78
		c-7.6-14.8-33.4-10-46.5-10.1c-1.5,0-4,2-4.3,3.4c-2.4,13-4.3,26-6.4,39c-1.7,5.6-3.4,11.1-5,16.7c-1.4,4.9,0.9,6.4,5.1,6.4
		c7-0.1,14-0.4,21,0.1c25.6,1.9,46.7-26.8,37-53.4C183.3,79.3,183,78.6,182.6,78z M157.4,200c-0.6,0-1.1,0-1.7,0
		c-14.9-7.8-30.7-4.4-46.3-4.3c-1.3,0-3.4,3.1-3.8,5c-2.6,12.7-5,25.4-7.5,38.1c-1.6,8.1-10.1,26,1.7,26.8c13.3,0.9,27,1.7,39.6-2.8
		c18.3-6.6,26.4-23.3,27.4-42.9C167.3,211.8,165.9,203.8,157.4,200z"/>
	<path class="st0" d="M1242.1,84c1.2-2.4,2.5-4.7,3.8-7c16.2-28,39.3-51.4,68-63.7c32.6-14.1,72.5-17.6,106.6-7.4
		c66.9,20.1,69.7,103.3,59.2,162.7c-7.8,44.3-22.1,90.2-54.1,121.4c-41.4,40.3-103.8,55.8-156.9,34.9
		c-27.2-10.7-43.8-32.1-51.6-61.5c-7.1-26.7-5.8-53.7-2.4-80.8C1219,149.9,1226.9,113.4,1242.1,84z M1391.8,75.3
		c-13.1-13-36.2-10.2-49.8,1c-6.6,5.5-11.5,12.9-15.7,20.6c-20,36.4-28.2,81.1-30.4,122.8c-0.7,13.1-0.7,27,9.2,37.7l0.1,0.1
		c1.7,1.2,3.3,2.4,5,3.5c11.9,8.4,24.4,6,36.9,1.9l0.3-0.3c2.7-1.5,5.6-2.6,8.1-4.5c11.9-9,18.8-22,23.4-36.2
		c5.5-17.1,10.3-34.5,14.3-52.1c5.3-23.3,8.7-46.7,7.6-70.7c-0.2-5-0.6-10.1-2.6-14.7C1396.5,80.9,1394.4,77.8,1391.8,75.3z"/>
	<path class="st0" d="M684.2,210.8c1.1-1.8,2.1-3.5,3.2-5.3l0.3-0.3c11.7-23.8,23.4-47.6,35-71.4l0.3-0.4c0.5-1.1,1-2.2,1.5-3.3
		l0.1-0.1c1.7-3.6,3.3-7.1,5-10.7l0,0c2.7-5.3,5.5-10.6,8.2-16l0.3-0.4c0.4-1.1,0.9-2.1,1.3-3.2l0.3-0.4c5.5-11.2,11-22.5,16.5-33.7
		l0.4-0.4c0.4-1.1,0.9-2.1,1.3-3.2l0.4-0.4c7.5-15,15.1-30,22.4-45.1c2.1-4.4,4.8-6.8,9.5-7.5c24-3.2,48-4.4,72-2
		c6.7,0.6,13.3,1.6,20,2.3c4,0.4,5.6,2.3,6,6.8c3.6,40.1,7.5,80.1,11.2,120.2c3.1,33.8,5.9,67.7,8.9,101.6
		c2.3,26.1,4.7,52.2,7.4,78.2c0.6,5.5-0.8,7.7-5.7,8.4c-23.1,3.7-46.1,4.8-69.2,0c-3.9-0.8-5.7-2.2-6-6.8c-0.8-14-2.1-27.9-3.2-41.9
		c-0.8-9.7-2-10.8-11.6-10.8c-23.8,0-47.7,0.4-71.5-0.2c-9.3-0.2-15.1,2.7-17.4,12.4l0,0c-7.2,14.9-14.4,29.7-21.6,44.6l-0.5,0.5
		c-17.2,5.3-34.8,6.5-52.6,4.7c-6.6-0.7-13.3-1.4-19.7-2.9c-2-0.5-3.4-3.5-5.1-5.4l0.5-0.5c0.4-1,0.8-2.1,1.2-3.1l0.4-0.5
		c1.6-3.5,3.2-6.9,4.7-10.4l0.2-0.2c0.5-1.1,1-2.2,1.5-3.4l0.2-0.2c3.8-7.7,7.7-15.3,11.5-23l0.4-0.4c0.5-1.1,1-2.2,1.5-3.3l0.1-0.1
		c10-20.2,20-40.5,30-60.7l0.4-0.6C684.7,211.6,684.6,211.2,684.2,210.8L684.2,210.8z M771.5,193.1c-0.5,0.7-1,1.4-1.4,2.2
		c-4.8,9.3-4.7,9.6,5,9.6c14,0,28-0.3,42,0.2c6.6,0.2,8.5-2.6,7.8-8.9c-0.2-1.8-0.4-3.6-0.5-5.3c-2-30.6-3.9-61.2-5.9-91.8
		c-0.1-1.7-0.5-3.5-0.9-6.4c-5.2,12.9-9.4,24.6-14.6,35.8c-10.1,21.6-20.8,42.9-31.2,64.3L771.5,193.1z"/>
	<path class="st0" d="M337.8,327.7c-29.7,0-59.5,0-89.2,0c-10.5,0-11.4-1-9.2-11.8c7.6-37.4,15.4-74.7,22.9-112.1
		c11.3-56.3,22.5-112.7,33.7-169c1.4-7,3-13.9,4.1-21c0.9-6.1,3.5-8.1,9.6-8.1C366.9,6,424.1,5.8,481.3,5.9
		c16.4,0,16.1-3.6,14.2,16.3c-1.4,14.9-6.3,29.6-10.3,44.1c-0.6,2.3-4.9,5-7.5,5c-32.5,0.2-65.1,0.2-97.6-0.3
		c-7.1-0.1-10.6,1.9-11.9,9.8c-2.4,14.7-5.8,29.2-8.7,43.8c-1.6,8.2-1.4,8.5,6.8,8.5c25,0.1,49.9,0,74.9,0c8.6,0,10,0.5,8.8,9.4
		c-2,15-5.2,29.8-8.3,44.6c-1.6,7.5-6.5,9.9-13.8,9.8c-24.7-0.4-49.4,0.1-74-0.3c-6.7-0.1-9.5,2.3-10.6,9.2
		c-2.7,16.5-5.5,32.9-9.1,49.2c-1.6,7.1,1.1,7.5,6.1,7.4c32.3-0.1,64.5,0,96.8,0.1c11.6,0,13,0.4,11.5,12.4
		c-1.8,15-5.5,29.7-8.8,44.4c-1.4,6.3-5.8,8.6-12.1,8.5C397.9,327.6,367.8,327.7,337.8,327.7z"/>
	<path class="st0" d="M642.1,151.6c-4.9,23.3-10,46.5-14.7,69.9c-6.2,30.3-12.4,60.6-18,91c-1.6,8.5-5.1,12-13,13.1
		c-21.5,2.9-42.8,3-64.2-0.9c-5.5-1-6.6-2.6-5.4-8.7c14-69.1,27.7-138.3,41.6-207.5c1.4-7,2.9-14,4.4-21c1.8-8.6,1.6-9-7-9.1
		c-17.7-0.1-35.3,0-53-0.1c-10,0-10.8-0.7-10.7-11c0.3-19.4,4.5-37.8,11.7-55.6c1.8-4.4,4.3-6.1,9-6c68.7,0.2,137.3,0.2,206,0.2
		c11.1,0,11.4,0.3,11.3,12c-0.1,18.4-4.1,36-10.5,53c-2.1,5.6-5.5,7.5-11,7.5c-17.7-0.2-35.3,0.2-53-0.2c-7-0.1-10.6,2.1-11.9,10.1
		C650.3,109.5,646,130.5,642.1,151.6L642.1,151.6z"/>
	<path class="st0" d="M1354.9,392.3c6.9-9,14.4-14.4,24-16c13.6-2.2,26,0.5,35,12.3c4.6,6.1,7.3,4.8,11.5,0
		c10.3-11.8,23.5-14.7,37.8-12.2c18.1,3.1,29.8,17.4,30.4,38.3c0.7,22.1,0.1,44.2,0.3,66.4c0,6.4-2.9,8.2-8.3,8.2
		c-5.7,0.1-9-1.5-8.9-8.5c0.2-17.9,0.1-35.9,0-53.8c0-4.4-0.3-9-1.2-13.3c-2.9-13.7-10.9-20.7-23.6-21.2
		c-11.2-0.4-22.1,7.7-25.3,19.7c-1.2,4.5-1.7,9.4-1.7,14.1c-0.2,17.6-0.2,35.3,0,52.9c0.1,6.3-1.2,10.4-8.3,10.1
		c-7.6-0.3-8.8-1.3-8.9-10.2c-0.1-16.4,0.1-32.9-0.1-49.3c0-4.7-0.5-9.5-1.4-14.2c-2.4-13.4-9.9-21.2-21.5-22.9
		c-10.4-1.5-22,5.2-26.4,16.6c-2.3,5.9-3.5,12.6-3.7,19.1c-0.5,16.7-0.1,33.5-0.2,50.2c0,9.5-1,10.6-8.4,10.7
		c-7.5,0.1-8.8-1.2-8.8-10.3c-0.1-30.2-0.1-60.4,0-90.6c0-9.4,1.1-10.3,8.5-10.7c7.4-0.5,9.3,3.6,8.8,10.4
		C1354.2,388.7,1354.5,389.6,1354.9,392.3z"/>
	<path class="st0" d="M1274.2,491c-30.8,0-53.4-24.4-53.4-57.5c0-32.7,23.7-57.9,54.4-57.8c31.2,0.1,53.8,24.6,53.7,58.2
		C1328.9,466.9,1305.8,491,1274.2,491z M1295.1,467.4c19.9-11.2,25.4-51.4-2.4-70.1c-12.8-8.6-29.9-6.5-41.6,4.1
		c-11.6,10.5-16,31.9-9.8,47.8C1250.8,473.5,1276.4,482.2,1295.1,467.4L1295.1,467.4z"/>
	<path class="st0" d="M1136.9,390.2c12.2-9.8,25.6-15.8,41.3-14.6c12.4,1,23.4,5.4,32.5,14.8c3.5,3.6,5.5,6.6,0.9,11
		c-3.5,3.3-5.6,7.2-11.7,2.4c-6.8-5.2-15.1-10.3-23.1-11.1c-26-2.9-44.5,24.5-36.8,52.9c8,29.7,40,39,60.5,17.2
		c4.6-4.9,7.2-3.3,11,0.4c4.2,4.2,4.4,7.3,0.2,11.8c-15.6,16.6-34.5,19.7-54.4,13.3c-19.8-6.4-31.6-21.8-35.7-43.6
		C1117.6,423.7,1124.5,406,1136.9,390.2L1136.9,390.2z"/>
	<path class="st0" d="M1109.2,477.9c0,7.4-5.3,12.9-12.2,12.9c-7.8,0-12.6-5.2-12.4-13.4c0.2-7.7,5.1-13.3,11.9-13.3
		C1103.2,464.1,1109.2,470.5,1109.2,477.9z"/>
	<path class="st0" d="M228.1,293.3c-1.1-0.6-2.2-1.2-3.4-1.8l0,0C225.8,292.2,226.9,292.7,228.1,293.3L228.1,293.3z"/>
	<path class="st0" d="M16,225.1c-0.2-0.4-0.3-0.7-0.5-1.1C15.7,224.4,15.8,224.8,16,225.1L16,225.1z"/>
	<path class="st0" d="M256.7,27.8c0.3-0.2,0.7-0.4,1-0.6C257.4,27.4,257,27.6,256.7,27.8L256.7,27.8z"/>
	<path class="st0" d="M637.1,302.3c-0.2-0.4-0.4-0.7-0.5-1.1C636.7,301.6,636.9,301.9,637.1,302.3
		C637,302.3,637.1,302.3,637.1,302.3z"/>
	<path class="st0" d="M1219.4,4.5L1219.4,4.5L1219.4,4.5z"/>
	<path class="st0" d="M1219.4,4.4L1219.4,4.4L1219.4,4.4z"/>
	<path class="st0" d="M1446.6,17c0.6,0,1.1,0,1.7,0l0,0C1447.7,17,1447.1,17,1446.6,17L1446.6,17z"/>
	<path class="st0" d="M1448.2,17L1448.2,17L1448.2,17z"/>
	<polygon class="st0" points="258.2,33 258.7,32.9 258.6,33.3 	"/>
	<polygon class="st0" points="1267.9,47.8 1267.8,47.1 1268.4,47.2 	"/>
	<path class="st0" d="M1259.8,54.7c0.6-0.1,1.2-0.1,1.9-0.2l-0.5,0.4C1260.6,54.8,1260.2,54.7,1259.8,54.7
		C1259.7,54.7,1259.8,54.7,1259.8,54.7z"/>
	<path class="st0" d="M1258.1,56.5c0.6-0.6,1.1-1.2,1.7-1.8l0,0c0,0.6,0,1.1,0.1,1.7l-0.2,0.2C1259.1,56.5,1258.6,56.5,1258.1,56.5
		L1258.1,56.5z"/>
	<path class="st0" d="M1258,58.3c0-0.6,0-1.2,0-1.8l0,0C1258.1,57.1,1258.1,57.6,1258,58.3L1258,58.3z"/>
	<path class="st0" d="M1476.8,60l0.1,0.1L1476.8,60z"/>
	<polygon class="st0" points="758,62.1 757.9,61.5 758.4,61.6 	"/>
	<polygon class="st0" points="756.3,65.6 756.3,65.2 756.7,65.2 	"/>
	<path class="st0" d="M1148.7,69L1148.7,69L1148.7,69z"/>
	<path class="st0" d="M733,79.8L733,79.8L733,79.8z"/>
	<path class="st0" d="M733,79.8L733,79.8L733,79.8z"/>
	<path class="st0" d="M1241.3,83.4L1241.3,83.4L1241.3,83.4z"/>
	<path class="st0" d="M738,97.7L738,97.7L738,97.7z"/>
	<path class="st0" d="M738,97.8c0.6,0.5,1.2,1.1,1.8,1.6l-0.3,0.4C739,99,738.5,98.4,738,97.8C738,97.7,738,97.8,738,97.8z"/>
	<polygon class="st0" points="737.8,103.3 737.7,102.8 738.2,102.9 	"/>
	<path class="st0" d="M260.1,117.5L260.1,117.5L260.1,117.5z"/>
	<path class="st0" d="M729.6,119.3L729.6,119.3L729.6,119.3z"/>
	<path class="st0" d="M258.4,121.1c0.5,0.6,1.1,1.2,1.6,1.8l0,0C259.5,122.3,258.9,121.7,258.4,121.1L258.4,121.1z"/>
	<path class="st0" d="M260,122.9L260,122.9L260,122.9z"/>
	<path class="st0" d="M724.5,130.1l0.1-0.1L724.5,130.1z"/>
	<path class="st0" d="M253.4,130c0.5,0.6,1.1,1.2,1.6,1.9l0,0c-0.6-0.6-1.2-1.1-1.7-1.7L253.4,130z"/>
	<path class="st0" d="M255,131.9L255,131.9L255,131.9z"/>
	<polygon class="st0" points="722.7,133.8 722.6,133.4 723,133.4 	"/>
	<path class="st0" d="M251.7,137.2c-0.6-0.6-1.1-1.2-1.7-1.8l0,0C250.5,136,251.1,136.6,251.7,137.2L251.7,137.2z"/>
	<path class="st0" d="M255,137.2c-0.6,0-1.1,0-1.7,0l0,0C253.9,137.2,254.4,137.2,255,137.2L255,137.2z"/>
	<path class="st0" d="M253.3,137.2c-0.6,0-1.1,0-1.7,0l0,0C252.2,137.3,252.8,137.3,253.3,137.2L253.3,137.2z"/>
	<path class="st0" d="M255,137.2L255,137.2L255,137.2z"/>
	<path class="st0" d="M642.1,151.6L642.1,151.6L642.1,151.6z"/>
	<path class="st0" d="M233.2,153.3L233.2,153.3L233.2,153.3z"/>
	<polygon class="st0" points="230,155 230.1,155.5 229.6,155.4 	"/>
	<path class="st0" d="M228.1,166L228.1,166L228.1,166z"/>
	<path class="st0" d="M236.5,174.9c0.6,0,1.1,0,1.7,0l0,0C237.7,174.9,237.1,174.9,236.5,174.9C236.6,174.9,236.5,174.9,236.5,174.9
		z"/>
	<path class="st0" d="M238.2,174.9c0,0.6,0,1.2,0,1.8l0,0C238.2,176.1,238.2,175.5,238.2,174.9L238.2,174.9z"/>
	<path class="st0" d="M1020.8,182.1L1020.8,182.1L1020.8,182.1z"/>
	<path class="st0" d="M1041,194.6L1041,194.6L1041,194.6z"/>
	<polygon class="st0" points="687.4,205.5 687.3,205.1 687.7,205.2 	"/>
	<path class="st0" d="M684,212.8c0.1-0.7,0.1-1.3,0.2-2l0,0c0,0.5,0.1,0.9,0.2,1.4L684,212.8z"/>
	<path class="st0" d="M1046,223.3L1046,223.3L1046,223.3z"/>
	<path class="st0" d="M17.7,225.1c-0.6,0-1.1,0-1.7,0l0,0C16.6,225.2,17.2,225.2,17.7,225.1L17.7,225.1z"/>
	<path class="st0" d="M537.8,241.3L537.8,241.3L537.8,241.3z"/>
	<path class="st0" d="M537.7,241.3L537.7,241.3L537.7,241.3z"/>
	<path class="st0" d="M1051.1,250.4l-0.2-0.2L1051.1,250.4z"/>
	<path class="st0" d="M1187.4,252.1L1187.4,252.1L1187.4,252.1z"/>
	<path class="st0" d="M1187.4,252L1187.4,252L1187.4,252z"/>
	<path class="st0" d="M928.2,270L928.2,270L928.2,270z"/>
	<path class="st0" d="M928.2,270L928.2,270L928.2,270z"/>
	<path class="st0" d="M653.8,273.6L653.8,273.6L653.8,273.6z"/>
	<path class="st0" d="M928.2,275.4L928.2,275.4L928.2,275.4z"/>
	<path class="st0" d="M652,277.4c-0.5-0.1-1-0.2-1.5-0.3l0,0c0.6-0.1,1.2-0.1,1.8-0.2L652,277.4z"/>
	<path class="st0" d="M928.2,275.4L928.2,275.4L928.2,275.4z"/>
	<path class="st0" d="M650.5,277.2c-0.6,0.6-1.1,1.2-1.7,1.8l0,0C649.4,278.4,650,277.8,650.5,277.2L650.5,277.2z"/>
	<path class="st0" d="M731.3,277.2L731.3,277.2L731.3,277.2z"/>
	<path class="st0" d="M1439.8,277.2L1439.8,277.2L1439.8,277.2z"/>
	<path class="st0" d="M648.8,279L648.8,279L648.8,279z"/>
	<path class="st0" d="M228.1,286.2L228.1,286.2L228.1,286.2z"/>
	<path class="st0" d="M228.1,286.1L228.1,286.1L228.1,286.1z"/>
	<path class="st0" d="M223.2,289.6c0.5,0.7,1,1.3,1.5,2l0,0c-0.6,0-1.1,0-1.7,0l0,0c0-0.5-0.1-1-0.2-1.4L223.2,289.6z"/>
	<path class="st0" d="M223,291.5c-0.6,0.1-1.3,0.2-1.9,0.3l0.7-0.5C222.2,291.4,222.6,291.5,223,291.5
		C223.1,291.6,223,291.5,223,291.5z"/>
	<polygon class="st0" points="1425,291.3 1425,291.9 1424.5,291.9 	"/>
	<path class="st0" d="M228.1,293.3L228.1,293.3L228.1,293.3z"/>
	<path class="st0" d="M640.3,300.6l0.2-0.2L640.3,300.6z"/>
	<path class="st0" d="M638.6,304.2c-0.5-0.6-1-1.3-1.5-1.9l0,0c0.6,0.6,1.2,1.1,1.8,1.7C638.8,304,638.6,304.2,638.6,304.2z"/>
	<polygon class="st0" points="206.4,305.7 206.5,306.2 206,306.1 	"/>
	<path class="st0" d="M1236.2,307.7L1236.2,307.7L1236.2,307.7z"/>
	<polygon class="st0" points="1409.8,305.7 1409.8,306.2 1409.4,306.1 	"/>
	<path class="st0" d="M1416.3,307.7L1416.3,307.7L1416.3,307.7z"/>
	<polygon class="st0" points="1061.3,307.9 1060.9,308 1060.9,307.5 	"/>
	<path class="st0" d="M1236.2,307.7L1236.2,307.7L1236.2,307.7z"/>
	<path class="st0" d="M1416.3,307.7L1416.3,307.7L1416.3,307.7z"/>
	<path class="st0" d="M0.7,315c0.1-0.7,0.1-1.3,0.2-2l0,0c0,0.5,0.1,1,0.2,1.5L0.7,315z"/>
	<polygon class="st0" points="633.4,315.1 633.4,314.5 633.9,314.6 	"/>
	<polygon class="st0" points="631.7,318.7 631.7,318.1 632.2,318.1 	"/>
	<path class="st0" d="M1248,320.2L1248,320.2L1248,320.2z"/>
	<path class="st0" d="M1249.7,322c-0.6-0.6-1.1-1.2-1.7-1.8l0,0C1248.5,320.9,1249.1,321.5,1249.7,322L1249.7,322z"/>
	<polygon class="st0" points="709.7,321.8 709.8,322.4 709.2,322.3 	"/>
	<path class="st0" d="M1249.6,322.1L1249.6,322.1L1249.6,322.1z"/>
	<path class="st0" d="M167.5,323.8L167.5,323.8L167.5,323.8z"/>
	<polygon class="st0" points="1064.6,324 1064.3,324.1 1064.4,323.7 	"/>
	<path class="st0" d="M1136.9,390.2L1136.9,390.2L1136.9,390.2z"/>
	<path class="st0" d="M147.3,257.4c-0.3-0.2-0.7-0.4-1-0.5C146.6,257.1,147,257.3,147.3,257.4L147.3,257.4z"/>
	<path class="st0" d="M155.7,200c0.6,0,1.1,0,1.7,0C156.9,200,156.3,200,155.7,200z"/>
	<path class="st0" d="M148.9,259.2c-0.5,0-1.1,0-1.6,0c0-0.6,0-1.2,0-1.8l0,0C147.8,258,148.4,258.6,148.9,259.2z"/>
	<path class="st0" d="M170.9,70.8c0-0.6,0-1.2,0-1.8l0,0C170.8,69.6,170.8,70.2,170.9,70.8L170.9,70.8z"/>
	<path class="st0" d="M170.9,72.6c0-0.6,0-1.2,0-1.8l0,0C170.8,71.4,170.8,72,170.9,72.6L170.9,72.6z"/>
	<path class="st0" d="M177.6,70.9c-0.6,0.6-1.2,1.1-1.7,1.7l0,0C176.5,72,177,71.4,177.6,70.9C177.5,70.8,177.6,70.9,177.6,70.9z"/>
	<path class="st0" d="M170.8,72.6c0,0.6,0,1.2,0,1.8l0,0C170.9,73.8,170.9,73.2,170.8,72.6L170.8,72.6z"/>
	<path class="st0" d="M175.9,72.6L175.9,72.6L175.9,72.6z"/>
	<path class="st0" d="M170.8,74.4L170.8,74.4L170.8,74.4z"/>
	<path class="st0" d="M182.7,76.2c0,0.6,0,1.2,0,1.8C182.7,77.4,182.7,76.8,182.7,76.2z"/>
	<path class="st0" d="M125.4,110.3L125.4,110.3L125.4,110.3z"/>
	<path class="st0" d="M172.6,113.9L172.6,113.9L172.6,113.9z"/>
	<path class="st0" d="M172.5,113.9L172.5,113.9L172.5,113.9z"/>
	<path class="st0" d="M1352.3,70.8c0.2,0.5,0.5,1,0.7,1.5c-0.3,0-0.6,0.1-0.9,0.1C1352.2,71.9,1352.3,71.4,1352.3,70.8L1352.3,70.8z
		"/>
	<path class="st0" d="M1345.7,72.6l-0.2,0.2L1345.7,72.6z"/>
	<path class="st0" d="M1391,76.2L1391,76.2L1391,76.2z"/>
	<path class="st0" d="M1332.2,88.8L1332.2,88.8L1332.2,88.8z"/>
	<path class="st0" d="M1332.1,88.8c-0.6,0-1.1,0-1.7,0l0,0C1331,88.8,1331.6,88.8,1332.1,88.8C1332.2,88.8,1332.1,88.8,1332.1,88.8z
		"/>
	<path class="st0" d="M1362.4,244.9L1362.4,244.9L1362.4,244.9z"/>
	<path class="st0" d="M1362.4,244.9L1362.4,244.9L1362.4,244.9z"/>
	<path class="st0" d="M1305.2,257.4L1305.2,257.4L1305.2,257.4z"/>
	<path class="st0" d="M1310.3,261.1L1310.3,261.1L1310.3,261.1z"/>
	<polygon class="st0" points="1347.1,263 1347,262.5 1347.4,262.7 	"/>
	<polygon class="st0" points="771.9,192.7 772,193.1 771.5,193.1 	"/>
	<path class="st0" d="M822.2,194.7L822.2,194.7L822.2,194.7z"/>
	<path class="st0" d="M822.2,194.6L822.2,194.6L822.2,194.6z"/>
	<path class="st0" d="M1295.1,467.4L1295.1,467.4L1295.1,467.4z"/>
</g>
</svg>
