<?xml version="1.0" encoding="utf-8"?>
<!-- Generator: Adobe Illustrator 24.3.0, SVG Export Plug-In . SVG Version: 6.00 Build 0)  -->
<svg version="1.1" id="Layer_1" xmlns="http://www.w3.org/2000/svg" xmlns:xlink="http://www.w3.org/1999/xlink" x="0px" y="0px"
	 viewBox="0 0 1445.1 482.8" style="enable-background:new 0 0 1445.1 482.8;" xml:space="preserve">
<style type="text/css">
	.st0{fill:#FFFFFF;}
</style>
<g>
	<path class="st0" d="M629.8,386.1c0-25.5,0.1-51.1-0.1-76.6c0-2.4-1.4-4.7-2.1-7.1c-1.9,1.9-4.5,3.4-5.6,5.6
		c-23.4,47.5-47.7,94.5-69.2,142.8c-8.7,19.6-19.7,27-40.7,25.2c-20.7-1.8-41.6-0.1-62.4-0.4c-21.1-0.3-21.5-0.7-23.3-22.5
		c-4-48.1-7.7-96.1-11.6-144.2c-3.4-42.4-6.4-84.9-10.3-127.2c-1.2-12.3-0.2-19.2,14.8-20.5c31.1-2.7,62-7.1,92.9-11.2
		c12.6-1.7,16.7,2.8,15.9,15.5c-2.6,44.4-4.3,88.8-6.3,133.2c-0.3,6.6-0.4,13.2-0.2,19.8c0,1.7,1.2,3.3,1.9,5
		c1.5-0.9,3.7-1.4,4.5-2.7c3.4-5.7,6.5-11.5,9.3-17.5c21.9-45.1,44.1-90,65.3-135.4c5.6-12,13-16.8,26-16.4c26.5,0.7,53,0.7,79.5,0
		c13.9-0.4,17.8,5.4,17.7,18.5c-0.2,46.4,0.4,92.7,0.8,139.1c0,4.7,0.9,9.3,1.4,14c3-4.4,6.9-8.4,8.9-13.2
		c19.5-46.1,39.3-92.1,57.6-138.7c5.7-14.5,13.3-20.5,29.2-19.8c30.2,1.2,60.5,0.4,90.8,0.4c10.8,0,13.6,4.5,8.5,14
		c-2.7,5-5.6,9.9-8.4,14.8c-52.4,90.9-105.4,181.5-156.8,273c-9.8,17.4-20.8,24-40.2,22.6c-21.6-1.6-43.5-0.2-65.3-0.4
		c-22-0.2-22.2-0.4-22.4-21.3C629.7,431.5,629.9,408.8,629.8,386.1C629.9,386.1,629.9,386.1,629.8,386.1z"/>
	<path class="st0" d="M137.5,482.7C94.8,481.8,52.7,477,11.7,464c-12.3-3.9-13.2-8.7-10.3-20.5C30.9,324.3,59.6,204.9,88.3,85.4
		c2-8.2,2.2-16.9,3-25.4c3.5-33.6,3.4-33.9,35.5-38.2c26.3-3.5,52.6-6.2,79-8.9c19.5-1.9,21.6-0.6,19.4,19.5
		c-2.9,26.3-7.6,52.4-12,78.5c-2.3,13.8-5.7,27.5-8.6,41.2c13.4-2.3,26.7-5.1,40.1-6.7c10.3-1.2,20.8-1.6,31.2-1.3
		c65.1,1.6,102.8,39.3,100.7,104.2c-2.2,69.8-26.5,131.4-77.3,180.6c-35.3,34.2-78,52.7-127.6,53.7
		C160.2,482.9,148.8,482.7,137.5,482.7z M242.7,274c1.4-25.6-5.4-37.1-21.6-40.1c-18.4-3.5-40.6,5.8-44.7,21.3
		c-10.7,40.9-20,82.1-29.8,123.2c-2.5,10.5,2.4,15.3,12.8,17.3c23.3,4.5,41.7-3.2,54.4-25.4C231.6,339.5,237.8,305.3,242.7,274z"/>
	<path class="st0" d="M1324.7,474.6c-14.2,0-28.4,0.3-42.6-0.1c-16.9-0.5-18.3-1.9-14.5-18.1c9.6-40.5,19.7-80.8,29.6-121.2
		c4.9-20.2,10.6-40.2,14.4-60.7c2-10.7,5.2-23.5-5.9-31.6c-12.4-9.2-25.4-4.3-37.4,2c-15.8,8.3-25.9,20.7-30.2,38.9
		c-12.7,54.3-26.4,108.4-39.7,162.5c-7,28.3-7.1,28.3-37.1,28.3c-25.6,0-51.1,0.3-76.7-0.1c-17.4-0.3-17.6-0.7-13.6-17.5
		c16.2-68,33.2-135.8,48.4-204.1c5.5-24.8,7.7-50.4,9.1-75.8c0.7-12,4.5-17.3,15.6-18.6c25.4-2.9,50.8-5.4,76.1-8.9
		c11.1-1.5,18.4,0.4,20.4,12.7c2,12.5,8,11.5,17.9,6.8c34.8-16.5,71.7-23.9,110.3-19.7c55.9,6.2,83.4,40,74.7,95.1
		c-5.2,33.5-14.8,66.3-22.9,99.4c-9.4,38.6-19.7,76.9-28.4,115.6c-2.7,11.7-7.9,15.6-19.2,15.2
		C1356.9,474.1,1340.8,474.6,1324.7,474.6z"/>
	<path class="st0" d="M940.7,474.6c-14.2,0-28.3,0.2-42.5,0c-19.2-0.4-19.6-0.6-15.1-18.8c16.8-68.7,33.7-137.3,50.7-205.9
		c6.1-24.7,12.8-49.3,18.3-74.1c2.2-10.1,6.9-13.7,16.9-14.7c31.9-2.9,63.8-7.2,95.7-10.1c17.3-1.5,18.1-0.4,13.9,16.8
		c-15.5,64.1-31.4,128.2-47.1,192.3c-7.4,30.2-14.7,60.4-22.2,90.6c-5.9,23.7-6,23.7-31.7,23.9C965.2,474.7,952.9,474.6,940.7,474.6
		z"/>
	<path class="st0" d="M1035.1,0c36.7-0.2,65.4,24.5,67.3,56.6c2.6,43-41.1,74.9-85.9,62.7c-29.1-7.9-49.3-31.8-49.4-58.3
		c-0.1-27.4,22-52.1,52.3-58.5C1025.1,1.4,1030.7,0.7,1035.1,0z"/>
</g>
</svg>
