<?xml version="1.0" encoding="utf-8"?>
<!-- Generator: Adobe Illustrator 24.3.0, SVG Export Plug-In . SVG Version: 6.00 Build 0)  -->
<svg version="1.1" id="Layer_1" xmlns="http://www.w3.org/2000/svg" xmlns:xlink="http://www.w3.org/1999/xlink" x="0px" y="0px"
	 viewBox="0 0 1541.2 476.3" style="enable-background:new 0 0 1541.2 476.3;" xml:space="preserve">
<style type="text/css">
	.st0{fill:#FFFFFF;}
</style>
<g>
	<path class="st0" d="M1075.3,315c47,0,91.8,0,137.2,0c0,45.5,0,90.3,0,136c-96.1,0-192.6,0-289.9,0c0-46.3,0-92.5,0-140.8
		c-87.5,56-173.6,111.1-259.5,166.1c-87.6-59-175.2-118-264-177.7c-2.6,6.3-6.7,13.1-8.4,20.5c-4.2,18.3-16.5,32.1-25.4,47.6
		c-4.9,8.6-12,16.2-18.9,23.3c-25.2,25.8-56.8,40.9-90.2,52.8c-8,2.8-17.6-1.5-24.9,5c-20.5-3.1-40.2,4.5-60.6,4.3
		c-48.5-0.5-96.9-0.2-145.4-0.2c-3.5,0-6.9,0.1-10.4,0c-13-0.3-14.6-2-14.9-15.7c0-1.4,0-2.8,0-4.2C0,299.1,0,166.2,0,33.2
		c0-2.7,0-5.3,0-9.2c6.1,0,11.5,0,16.9,0c51.9,0,103.8-0.4,155.8,0.2c20.9,0.2,42.3,0.3,62.6,4.5c32.3,6.8,63.7,17.1,89.5,39.5
		c9.1,7.9,19.1,15.1,27.4,23.7c6.8,7,12.1,15.6,17.6,23.8c11.1,16.7,19.4,34.7,26.1,54.4C485.2,113,573.8,56.3,661.9,0
		c31.4,21,62.9,42,95.4,63.7c-69,44.3-137.7,87.2-206.2,132.5c12.6,8.5,23.4,15.9,34.3,23.2c69.7-44,139.4-88,209.5-132.2
		c28.8,19.4,57.7,38.9,87.6,59.1c-69.8,45.7-137.6,90.2-207.5,136c3.9,1.8,6.5,2.7,8.8,4.2c7.7,4.8,15.1,10.2,23.1,14.4
		c3,1.5,8.3,1.8,11,0.1c28-17.7,55-37.4,83.8-53.6c20.3-11.5,38.5-26,59.5-36.6c19.1-9.7,35.9-23.8,53.8-35.7
		c2.1-1.4,4.8-1.8,7.8-2.8c0-49.1,0-98.1,0-147.5c51.1,0,101.4,0,152.5,0C1075.3,120.7,1075.3,216.7,1075.3,315z M146,314.9
		c15.3,0,29.8-1,44.1,0.3c9.9,0.9,19-1.7,27.1-5c26.9-10.8,41.4-31.5,45-60.7c1.2-9.5,0.7-18.4-0.1-27.7c-0.7-8.8-1.3-16.9-7.1-24.1
		c-4-5-6-11.5-10-16.4c-3.6-4.3-9-7-13.2-10.8c-9-8.4-20.5-12.1-31.8-13.1c-17.7-1.6-35.6-0.4-54-0.4C146,209.5,146,261.1,146,314.9
		z"/>
	<path class="st0" d="M1254.9,451.3c0-142.4,0-284.1,0-426.5c50.6,0,100.9,0,152,0c-0.3-0.3,0.3,0.1,0.7,0.7
		c0.4,0.5,0.7,1.2,0.7,1.8c0,95.4,0,190.8,0,286.9c44,0,87.4,0,130,0c1.3,1.2,1.8,1.6,2.2,2.2c0.3,0.5,0.7,1.2,0.7,1.8
		c0,44.2,0,88.4,0,133.2C1445.9,451.3,1351.3,451.3,1254.9,451.3z"/>
</g>
</svg>
