<?xml version="1.0" encoding="utf-8"?>
<!-- Generator: Adobe Illustrator 24.3.0, SVG Export Plug-In . SVG Version: 6.00 Build 0)  -->
<svg version="1.1" id="Layer_1" xmlns="http://www.w3.org/2000/svg" xmlns:xlink="http://www.w3.org/1999/xlink" x="0px" y="0px"
	 viewBox="0 0 852.6 827" style="enable-background:new 0 0 852.6 827;" xml:space="preserve">
<style type="text/css">
	.st0{fill:#FFFFFF;}
</style>
<g>
	<path class="st0" d="M426.3,0C190.3,0,0,186.3,0,413.5C0,641.5,191.2,827,426.3,827c235,0,426.3-185.5,426.3-413.5
		C852.7,186.2,662.2,0,426.3,0z M582.9,274.5h4.6c1.7,4.5,3.4,9.2,5.3,14.4c1.8-5.1,3.5-9.7,5.2-14.4h4.5v18.3h-2.9v-13.1
		c-0.2,0-0.3,0-0.5-0.1c-1.6,4.4-3.3,8.7-4.9,13.1h-2.8c-1.6-4.3-3.2-8.6-4.8-12.9c-0.2,0-0.3,0-0.5,0v12.8c-0.7,0.1-1,0.2-1.4,0.2
		c-0.5,0-1-0.1-1.7-0.1L582.9,274.5L582.9,274.5z M580.4,274.3c0.1,0.5,0.2,0.8,0.2,1.1c0,0.4,0,0.9-0.1,1.6h-5.9v15.7h-3.4v-15.5
		h-5.8c-0.1-1-0.1-1.7-0.2-2.8C570.3,274.3,575.3,274.3,580.4,274.3z M249,321.7c9.7-15.1,19.4-30.3,29.1-45.4c0.9-1.5,1.9-2,3.7-2
		c68.2,0,136.3,0,204.5,0h2.5c-0.2,0.6-0.3,1-0.5,1.3c-10.1,15.6-20.2,31.2-30.2,46.9c-0.7,1-1.4,1.5-2.6,1.3c-0.5-0.1-1.1,0-1.6,0
		h-206C248.3,322.8,248.7,322.2,249,321.7z M697,522.2c-15.4,0-30.8,0-46.2,0c-3.6,0-7.2-0.1-10.9,0c-1.5,0-2.3-0.5-3.1-1.7
		c-10.4-15.3-20.8-30.5-31.1-45.8c-1-1.5-2-2-3.9-2c-30.5,0-60.9,0-91.4,0h-3c0.2-0.5,0.2-1,0.5-1.3c9.8-15.7,19.7-31.4,29.4-47.1
		c0.7-1.1,1.5-1.3,2.6-1.3c9.3,0,18.6,0,27.9,0h2.5c-0.5-1.7-33.6-50.7-36-53.3c-0.6,0.8-1.1,1.6-1.6,2.4
		c-32.2,49.3-64.4,98.5-96.6,147.9c-1.1,1.7-2.2,2.2-4.2,2.2c-88.2,0-176.4,0-264.5,0h-3c21.7-33.2,43.1-65.9,64.7-99.1h-46.3
		c0.3-0.7,0.4-1.2,0.7-1.6c10.2-15.6,20.4-31.1,30.6-46.7c0.7-1.1,1.5-1.6,2.8-1.4c0.4,0,0.8,0,1.2,0H412c-0.6,1-0.9,1.6-1.3,2.2
		c-10,15.2-19.9,30.3-29.8,45.5c-1,1.5-2,1.9-3.7,1.9c-26.8-0.1-53.5,0-80.3-0.1c-1.8,0-2.9,0.5-3.9,2c-9.9,15.2-20,30.3-30,45.4
		c-0.4,0.6-0.8,1.3-1.3,2.1c0.9,0.1,1.5,0.1,2,0.1c46,0,92,0,138,0c1.7,0,2.4-0.8,3.2-2c16.2-25,32.4-50,48.6-75.1
		c25.7-39.7,51.4-79.4,77.1-119c0.4-0.5,0.8-1.1,1.3-1.9c56,82.5,111.8,164.7,167.7,246.9C698.8,522.5,697.9,522.2,697,522.2z"/>
</g>
</svg>
