<?xml version="1.0" encoding="utf-8"?>
<!-- Generator: Adobe Illustrator 24.3.0, SVG Export Plug-In . SVG Version: 6.00 Build 0)  -->
<svg version="1.1" id="Layer_1" xmlns="http://www.w3.org/2000/svg" xmlns:xlink="http://www.w3.org/1999/xlink" x="0px" y="0px"
	 viewBox="0 0 1132.9 1080" style="enable-background:new 0 0 1132.9 1080;" xml:space="preserve">
<style type="text/css">
	.st0{fill:#FFFFFF;}
</style>
<g>
	<path class="st0" d="M576,315.2c-5.1-2.2-6.9-3.2-8.8-3.7c-63.6-15.6-123.6-41.2-182.2-69.7c-20-9.7-39.4-21.8-56.6-35.7
		c-35.4-28.5-38.7-58.8-12.9-96.4c11.9-17.5,27.6-31.3,44.1-44.1c163.3-127,405.3-63.2,484.9,127.9c2.1,5.1,3.8,10.3,5.7,15.4
		c-5.9,6.3-12.5,5.7-19,4.8c-94.2-11-163.4-58.2-206.2-143.3c-1.8-3.7-3.7-7.2-5.7-11.3c-24.8-7.9-50-13.7-76.4-12.1
		c-6.6,0.4-13.2,1.6-19.4,3.7c-20.9,6.6-31.9,23.8-30.4,45.6c0.9,13.7,5.6,26.5,14.4,36.4c13.1,14.8,26.3,30,41.9,41.9
		c55.6,42.8,118.5,71.4,184.9,92.6c37.5,11.9,75.5,20.9,114.8,25.3c3.5,0.4,7.1,1,10.6,1.8c1.9,0.4,3.7,1.6,5.3,2.2
		c5.3,12.9,5.4,17.6,0.6,32.3c-4.7,0.9-10,2.1-15.4,2.8c-80.7,11.8-158.7,32-230,73.3c-30.9,17.9-61,37.2-86.6,62.3
		c-10.9,10.6-20,23.1-29.4,35c-3.1,4-5,8.8-6.8,13.7c-12.9,33.8,4,62.2,40,66.4c28.4,3.4,55.6-2.9,82.3-11.5
		c2.4-4.7,4.3-8.8,6.3-12.8c40.9-80.4,106.3-126.8,195-140.5c15.7-2.5,17.5-1.9,29,2.5c-0.7,3.2-1,6.6-2.4,9.7
		c-49.2,114.9-135.4,183.1-259.7,198.3c-95.4,11.6-179-18.1-250.1-82.6c-14.5-13.1-26-28.5-33.5-46.9c-8.7-21.5-5.7-40.7,9-58.6
		c14.1-17.2,31.3-31.2,51-40.7c38.5-18.5,77.5-36.3,117.1-52.3c27.8-11.2,57-18.8,85.5-28.1C568.5,318.4,570.7,317.4,576,315.2z"/>
	<path class="st0" d="M260.9,195.1c2.9,3.2,4.1,3.8,4.3,4.6c3.2,26,19.8,42.8,39.4,57.5c30,22.8,64.5,36.3,99.2,49.8
		c5.6,2.2,11.2,4.3,19.7,7.6c-6.3,2.6-9.8,4.1-13.2,5.7c-27.3,12.3-54.8,24.1-81.9,37.2c-10.4,5-19.8,12.3-29.1,19.5
		c-17.9,14.1-32.3,31-34.2,55.4c-8.1-0.7-8.1-6.8-9.6-11c-16.8-46.3-22.5-94.1-16.2-142.7c2.9-23.1,10-45.6,15.4-68.3
		C255.7,206,258.2,201.6,260.9,195.1z"/>
	<path class="st0" d="M877.4,773.7c0,15.9,0,29.5,0,43.2c-0.1,22.5,0.6,44.8-0.7,67.2c-1.8,31.5-19.1,49.2-50.3,53.8
		c-15.9,2.4-31.6,1.6-46.1-6c-11.6-6-12.6-12.3-5.4-24c11.5,2.5,22.6,6.5,33.9,7.1c27.8,1.5,39.8-11.6,38.7-41
		c-2.5,1.5-4.4,2.6-6.3,4c-27,19.3-65,7.6-75-23.8c-13.1-40.9,5-81.9,56.6-85.2c10.1-0.6,20.4,0.1,30.6,0.9
		C860.7,770.6,868.2,772.3,877.4,773.7z M847.9,793.9c-2.9-1-5.1-2.4-7.6-2.6c-4.6-0.6-9.1-1-13.7-0.9c-20.3,0.4-32.3,10.7-35,30.7
		c-0.9,6.5-0.7,13.2,0.3,19.7c3.1,17.8,17.8,26.3,35.1,21.2c12.8-3.8,19.4-13.2,20.6-25.6C848.8,822.2,847.9,808.1,847.9,793.9z"/>
	<path class="st0" d="M93.9,795.6c7.6,10,6.8,17.2,1.8,26.2c-20.3,0-41.4,0-63.3,0c0,12.6,0,23.5,0,36.2c10,0,19,0,27.9,0
		c8.7,0,17.3-0.3,26,0.1c16,1,21.3,7.2,21.6,25.4c-2.8,0.4-5.7,1.3-8.7,1.3c-26,0.1-51.9,0.3-77.9,0c-15-0.1-20.1-5-21-20
		c-0.6-10.1-0.1-20.4-0.1-30.6c0-26-0.1-51.9,0-77.9c0.1-20,4.7-24.4,24.1-24.5c23.4-0.1,46.9,0,70.3,0c4,0,7.9,0.4,11.8,0.6
		c0.3,18.5-5.1,25.3-22.2,26c-16.8,0.6-33.5,0.1-51.6,0.1c0,12.3,0,23.7,0,37C53.7,795.6,74.2,795.6,93.9,795.6z"/>
	<path class="st0" d="M744.4,883.5c-24.5,4.6-47.6,7.6-70.8,2.2c-8.7-2.1-17.6-6-24.4-11.6c-19.7-16.3-13.7-47.6,10.9-54.8
		c12.3-3.7,26-3.2,39.1-4.4c4.9-0.4,9.8,0,14.7,0c0-14-2.6-18.4-12.9-21.8c-12.1-4-24.1-2.9-35.9,1.3c-3.7,1.3-7.2,3.4-12.6,5.9
		c-2.4-6-4.4-11.2-5.9-15c3.8-8.8,9.7-11.8,16.2-13.5c19.3-5.1,38.4-4.3,56.9,2.9c16,6.2,24,19.1,24.5,35.4
		C745.1,834,744.4,857.9,744.4,883.5z M714.4,836.2c-10.9-3.2-21.3-3.4-31.7-1.8c-10.7,1.6-15,5.7-15.4,13.5
		c-0.4,8.2,4.3,14.4,14.1,17c10.9,2.9,21.8,2.8,33.8-1.5c0-4.6,0.1-9,0-13.4C715,845.7,714.7,841.3,714.4,836.2z"/>
	<path class="st0" d="M389,767.8c36-0.1,61.7,24.4,62.2,59.4c0.4,35.6-25.4,61.3-61.9,61.1c-36-0.1-61.1-24.8-61.1-60.1
		C328.2,792.8,353.2,768,389,767.8z M421.2,825.2c-0.3-1.9-0.7-7.6-2.5-12.8c-4.7-15-17.3-22.9-32.8-21.3
		c-16.3,1.8-26.3,13.4-28.1,32.6c-1.8,19.1,6.6,35.3,20.9,40c1,0.3,1.9,0.6,2.9,0.7C404.6,869.4,421.1,854.6,421.2,825.2z"/>
	<path class="st0" d="M549.4,839c4.9,25.9,30,32.9,65.7,20.1c9.6,10.4,8.8,17.5-2.5,23.8c-21.9,12.2-64.4,5.1-81-13.5
		c-17.5-19.5-18.5-55.7-2.4-78.3c17.8-25,60.6-31.3,84.8-12.3c13.4,10.4,17.5,24.5,14.7,40.9c-1.5,8.8-7.1,14.8-15.7,16.9
		c-6.9,1.6-14,2.4-21,2.6C577.9,839.3,563.8,839,549.4,839z M547.8,819.6c18.5-0.9,36,2.6,52.6-2.6c2.2-18.4-3.5-26.7-18.2-28.8
		C565.1,785.9,551.7,797.4,547.8,819.6z"/>
	<path class="st0" d="M1051.6,839c5.9,26,30,32.9,66.1,20.3c9.4,10.1,8.5,17.5-2.5,23.8c-21.9,12.2-64.4,5-81.1-13.7
		c-17.5-19.4-18.4-55.7-2.1-78.3c17.9-25,61.1-31.5,84.8-11.8c5.9,5,11,12.3,13.5,19.7c7.9,22.8-2.8,38.5-26.7,40
		c-12.2,0.7-24.4,0.3-36.6,0.3C1061.9,839,1056.9,839,1051.6,839z M1051.3,817.4c15.6,4,40.4,3.1,51.4-1.8
		c3.2-15.6-2.6-25-17.2-27.3C1067.9,785.5,1053,798.1,1051.3,817.4z"/>
	<path class="st0" d="M901.7,771.8c7.6,0.4,14.8,0.7,23.8,1.3c0,12.5,0,23.1,0,33.7c0,10.1-0.3,20.4,0.1,30.6
		c0.7,15.7,8.8,24.4,24.2,26.2c7.3,0.9,15,0.1,24.4,0.1c0-16.6-0.7-31.7,0.3-46.7c1-14.5-5.1-30.4,6.8-45.3c7.1,0.6,14.3,1.3,22,1.9
		c0,37.5,0,72.9,0,109.6c-26.7,6.5-53.2,8.7-79.5-0.6c-13.4-4.7-23.8-14.5-25.1-28.4c-2.2-24.1-1.5-48.6-1.6-72.9
		C897.1,779,899.2,776.8,901.7,771.8z"/>
	<path class="st0" d="M123,771.4c9.3,0.7,16.5,1.5,25,2.2c0,19.3,0,36.4,0,53.6c0,29.4,9.1,38.1,38.7,36.7c2.5-0.1,5-0.7,8.7-1.2
		c0.4-4,1.3-7.8,1.3-11.8c0.1-19.8-0.1-39.7,0.1-59.7c0.1-19.7,8.7-24.4,28.4-15.4c0,35.1,0,70.5,0,107.7
		c-26.3,5.6-52.3,8.2-78.2-0.9c-17.6-6.3-27-20.1-28.1-38.4c-1.2-19.3-0.6-38.7-0.3-58.1C118.6,782.2,121,778,123,771.4z"/>
	<path class="st0" d="M204.2,1005.3c5,3.4,8.5,5.4,11.6,8.1c18.8,15.7,15.4,46.7-6.5,57.9c-4,2.1-8.5,4.1-12.9,4.3
		c-20.1,0.4-40.4,0.1-61.3,0.1c0-43.5,0-86.4,0-130.2c4.1-0.9,7.5-2.4,10.7-2.4c12.2-0.3,24.5-0.4,36.7,0.1c6,0.3,12.2,1.3,17.8,3.5
		c20.9,8.1,27.5,32.6,13.7,50.4C211.6,1000.2,207.8,1002.3,204.2,1005.3z M147.6,1065.6c11.2,0,20.7,0,30.3,0c4.1,0,8.2,0,12.2-0.4
		c15.4-2.1,23.4-10.7,23.4-25.1c0-14.3-7.9-24.5-22.8-25.9c-14-1.3-28.2-0.3-43.2-0.3C147.6,1031.1,147.6,1047.1,147.6,1065.6z
		 M147.9,955.2c0,15.6,0,30.4,0,46.7c9.7,0,18.2,0,26.7,0c4.1,0,8.2,0,12.2-0.7c12.8-2.1,19.8-10,20.3-22.6
		c0.6-12.8-5.7-21.6-19.3-23.1C174.9,954.1,161.7,955.2,147.9,955.2z"/>
	<path class="st0" d="M497.1,884.1c-10.1,0-19,0-28.7,0c-0.3-4.7-0.9-8.5-0.9-12.5c0-39.1,0-78.3,0-117.4c0-2.1-0.1-4.1,0-6
		c0.9-12.6,6.2-17.2,18.7-16.2c3.4,0.3,6.8,1.8,10.9,2.8C497.1,784.3,497.1,833.4,497.1,884.1z"/>
	<path class="st0" d="M326.6,778.3c-1.2,5.4-2.2,11.2-3.5,17.6c-15.7-2.6-30.3-6.5-45.7,0.7c0,28.4,0,57,0,87c-10.1,0-19,0-29,0
		c0-33.8,0-67.6,0-101.6C269.3,765.6,307,762.8,326.6,778.3z"/>
	<path class="st0" d="M733.4,1077.9c0-49.5,0-95.7,0-142.7c3.4-0.6,6.2-1.2,10.4-1.9c2.5,19.7-0.3,38.9,1.9,59.2
		c4.4-3.4,7.5-5.9,10.7-7.9c27-17,61.4-2.5,68.2,28.5c7.9,35.9-10.1,62-46.7,65.5C763.7,1080,749,1078.2,733.4,1077.9z
		 M745.3,1065.6c14,4,29.5,4.6,39.4,1.8c12.5-3.5,21.9-10.6,25.9-23.5c3.5-11.5,3.4-23.1-0.4-34.5c-3.7-11.2-11.6-17.6-23.1-19.8
		c-22-4.3-39.4,8.4-41.4,31.5C744.3,1035.6,745.3,1050.5,745.3,1065.6z"/>
	<path class="st0" d="M327.8,1076.3c-21.2,2.8-40.7,5.1-60.4,1c-18.4-3.8-25.9-14.4-24.5-32.6c1-12.6,7.3-21.3,19.3-24.7
		c7.6-2.2,16-2.9,24-3.4c9-0.6,18.1-0.1,27-0.1c1-15.1-4-23.2-17-26.5c-11-2.6-22.2-2.9-32.9,1.5c-2.8,1.2-5.4,2.2-8.1,3.2
		c-5-6.3-1.8-9.8,3.1-12.8c14.4-8.7,49.7-4.7,60.3,8.1c4.8,5.9,8.7,14.4,9.1,21.9C328.5,1032.7,327.8,1053.6,327.8,1076.3z
		 M314.7,1027.7c-14.1,0-26.7-1-39.1,0.3c-14.8,1.6-20.9,9.1-20.3,21.5c0.4,11.6,6.9,18.2,21,19.3c10.6,0.9,21.2,0.1,31.9-0.4
		c2.5-0.1,5-2.5,6.6-3.2C314.7,1052.7,314.7,1041.5,314.7,1027.7z"/>
	<path class="st0" d="M912.3,1016.7c-3.2-28.1-24.5-35.4-59.7-22.2c-4.6-3.1-3.8-7.1-0.3-10c2.9-2.5,7.1-4.6,10.9-5
		c8.5-1,17.2-1.9,25.7-0.9c26.5,3.1,36.3,14.5,36.6,41.2c0.1,16.8,0,33.5,0,50.3c0,1.5-0.6,2.9-1.2,6.3c-21.2,2.8-42.6,5.7-64.1-0.3
		c-14-4-20-12.9-20.1-27c-0.1-14.8,6-25.4,19.8-29c10.6-2.6,22-2.6,33.1-3.5C899.2,1016.4,905.6,1016.7,912.3,1016.7z M912.1,1029.4
		c-15.6-3.8-30.6-4.6-45.6-0.3c-10.1,2.9-15,10.6-14.3,20.6c0.6,9.4,5.7,16.2,15.7,17.9c14.4,2.6,29.1,2.8,44.1-1.3
		C912.1,1053.8,912.1,1041.9,912.1,1029.4z"/>
	<path class="st0" d="M552.8,1035.6c5.7,31.3,22,37.6,64.2,27.5c4,5.7,0.9,9-4.1,11.6c-18.8,10-50.1,4.6-63.5-11.2
		c-14.3-16.8-14.7-46.3-1.2-65.5c12.9-18.2,38.8-25.4,60-16.9c15.4,6.3,24.1,24.1,19.5,40.1c-2.5,8.8-8.2,13.5-19.4,14
		c-13.2,0.6-26.5,0.3-39.5,0.3C564.1,1035.6,559.1,1035.6,552.8,1035.6z M553.1,1025.8c20.4-1,40.7,3.2,60.1-2.9
		c6.2-19.5-1.2-32-18.8-34.4C571.4,985.4,554.8,999.6,553.1,1025.8z"/>
	<path class="st0" d="M527.5,985.4c-17.3,12.6-34.1,24.8-51.7,37.6c20.4,16,39.4,31.3,54.7,52.9c-5.6,0.4-9.8,0.7-13.7,1
		c-17-17.8-33.7-34.7-56-48.1c0,16.2,0,30.7,0,46.1c-4.1,0.7-7.3,1.3-10.4,1.8c-3.1-11.6-3.7-109.2-0.7-126.1c2.4-0.4,5-1,9.4-2.1
		c3.1,23.5-0.4,46.1,2.4,70.5c13.5-9.7,25.9-18.5,38.2-27.3c4.1-2.9,8.2-6,12.6-8.5C516.5,980.7,521.3,978.7,527.5,985.4z"/>
	<path class="st0" d="M420,998.6c-14.3-9.4-29-12.1-44.5-9.8c-14.4,2.1-18.2,8.1-15.4,23.4c6.5,7.8,16,7.9,24.8,9.8
		c9,1.9,18.1,2.9,26.7,5.7c10.4,3.2,17.5,10.1,17.9,22c0.4,11.9-5.6,21.8-17.5,25.9c-19.7,6.9-39.1,4.6-58.1-2.9
		c-5.4-2.2-7.8-6.2-4.7-10.7c14.8,2.4,28.5,5.1,42.5,6.6c5.3,0.6,11-1.5,16.2-3.4c5.6-2.1,8.8-6.9,8.8-13.1s-3.1-11-8.8-13.1
		s-11.8-3.2-17.6-4.7c-9.4-2.2-19.1-3.4-28.2-6.3c-11.6-4-16.9-12.2-16.5-22.9c0.4-11.3,6.2-19.3,16.8-23.2
		c18.1-6.5,36-5.4,53.5,2.4C421.1,986.4,425.8,989.9,420,998.6z"/>
	<path class="st0" d="M658.4,992.6c-6.8-0.9-11.3-1.5-16.3-2.1c-0.6-2.6-1.2-4.8-2.1-8.1c6.2-1.2,11.3-2.2,17.6-3.5
		c0.4-9,0.9-17.9,1.5-27.9c3.4-0.6,6.5-1,10.7-1.8c0.6,10.6,1.2,20,1.6,28.7c11,7.5,26-4,35.9,9.4c-11.6,8.7-24.1,1-36,6.6
		c0,20.1-0.4,40.7,0.3,61.3c0.3,8.8,6.3,13.4,15.6,13.4c5.9,0,11.8-1.8,18.2-2.6c3.4,5.9,0.3,9.1-4.9,11.3
		c-21.2,9.3-41.2-2.9-41.9-25.9c-0.4-14.3-0.1-28.5-0.1-42.6C658.4,1003.7,658.4,998.7,658.4,992.6z"/>
	<path class="st0" d="M985.7,951.6c2.2-1.2,3.4-2.1,4.9-2.4c1.3-0.3,2.9,0.1,4,0.3c4.1,2.9,5.1,101.4,1.8,125.7
		c-1.2,0.4-2.5,1.3-4,1.5c-1.9,0.1-3.8-0.3-6.6-0.7C985.7,1034.2,985.7,992.7,985.7,951.6z"/>
	<path class="st0" d="M946.3,950.1c4.9-0.6,7.2-0.9,9-1c4.4,3.8,5.4,104.6,1.8,126.8c-2.6,0-5.6,0-10.6,0
		C946.2,1034.4,946.3,993,946.3,950.1z"/>
</g>
</svg>
