<?xml version="1.0" encoding="utf-8"?>
<!-- Generator: Adobe Illustrator 24.3.0, SVG Export Plug-In . SVG Version: 6.00 Build 0)  -->
<svg version="1.1" id="Layer_1" xmlns="http://www.w3.org/2000/svg" xmlns:xlink="http://www.w3.org/1999/xlink" x="0px" y="0px"
	 viewBox="0 0 1684.4 635.5" style="enable-background:new 0 0 1684.4 635.5;" xml:space="preserve">
<style type="text/css">
	.st0{fill:#FFFFFF;}
</style>
<g>
	<path class="st0" d="M337,144.5c0,12.2,0,23.4,0,36.1c-9.2,0-17.8,0-27.6,0c0,134,0,266.5,0,400c9,0.6,17.6,1.1,27.2,1.7
		c0,14.1,0,27.4,0,42.3c-44,0-88.2,0-133.2,0c0-13.7,0-27.1,0-42.4c9-0.5,18.1-0.9,28.3-1.4c0-124.1,0-247.8,0-371.5
		c-0.6-0.1-1.2-0.2-1.7-0.3c-18.8,138.6-37.5,277.2-56.3,416.2c-20.4,0-39.3,0-58.9,0c-19.1-141.4-38-282.1-57-422.7
		c-0.6,0.1-1.1,0.1-1.7,0.2c0,125.7,0,251.5,0,377.6c5.9,0.7,11.1,1.4,17.5,2.2c0,14.1,0,27.8,0,42.5c-24.8,0-49,0-73.6,0
		c0-14.6,0-28,0-42.5c8.2-0.7,15.9-1.4,24.4-2.1c0-132.6,0-264.7,0-398.4c-7.1-0.5-14.2-0.9-22.7-1.5c0-11.7,0-23.3,0-36.1
		c41.4,0,82.8,0,125.6,0c12.7,89.7,25.3,179.4,38,269c1.1,0.1,2.3,0.1,3.4,0.2c12.7-89.4,25.5-178.8,38.4-269.2
		C250.3,144.5,292.8,144.5,337,144.5z"/>
	<path class="st0" d="M879.7,36.9c-10,0-18.2,0-27.6,0c0-12.5,0-24.2,0-36.9c35.2,0,70.3,0,106.9,0c0,86.3,0,172.7,0,259.2
		c55.5-2.2,83.8,15.9,102.9,71.3c28.1,81.2,28.1,163.1-5.5,242.7c-7.5,17.8-21.8,33.2-35.5,46.8c-12.9,12.9-31.4,19-48.1,12.9
		c-27.4-10-54.9-5.4-82.4-6.7c-7.2-0.4-14.5-0.1-22.9-0.1c0-14.9,0-28.2,0-42.5c3.6-1.1,7.7-2.4,12.2-3.8
		C879.7,399.5,879.7,219.2,879.7,36.9z M1007.2,444.1c-0.1,0-0.2,0-0.3,0c0-32.9,0.4-65.9-0.2-98.8c-0.2-11.9-1.4-24.3-5.1-35.3
		c-2.2-6.5-10.3-14.7-15.9-14.9c-7.4-0.2-16.9,4.9-21.9,11.1c-4.5,5.5-5.7,15.4-5.8,23.5c-0.6,72.6-0.8,145.3-0.6,217.9
		c0,9.2,1.1,19.5,5.2,27.1c3.6,6.6,12.1,13.6,18.6,13.8c6.6,0.2,16-6.2,19.5-12.6c4.6-8.5,6.1-19.8,6.3-30
		C1007.7,512,1007.2,478,1007.2,444.1z"/>
	<path class="st0" d="M753.8,37.8c-7.6-0.6-13.3-1.1-19.7-1.7c0-12.1,0-23.4,0-35.9c33.7,0,67.3,0,102.5,0c0,192.8,0,385.7,0,579.8
		c8.1,0.8,14.7,1.5,22.2,2.2c0,14.1,0,28,0,42.7c-41.5,0-82.9,0-124.8,0c0-14.6,0-28,0-42.3c6.7-0.9,12.8-1.6,19.8-2.5
		C753.8,399.4,753.8,219.1,753.8,37.8z"/>
	<path class="st0" d="M1684.4,446.5c-1.3,45-6.6,88.8-26,129.4c-15.4,32.3-36.8,58.7-73.6,58.6c-37.9-0.1-63.9-24-78.1-59.3
		c-34.7-86.4-34.8-173.7,1.2-259.8c5.4-12.9,14.8-24.9,24.8-34.4c35.4-33.4,78.2-29.7,108.8,8.8c21.9,27.6,31.7,61,37.1,95.9
		C1681.8,405.7,1682.6,426.2,1684.4,446.5z M1609.1,443.7c-0.1,0-0.1,0-0.2,0c0-31.4,0.4-62.8-0.2-94.1c-0.2-12.4-0.5-25.6-4.3-37
		c-2.5-7.3-11.4-16.7-17.6-16.9c-7.4-0.2-17.2,6.7-22,13.7c-4.8,6.9-6.2,17.7-6.3,26.8c-0.4,70.6-0.4,141.2,0.1,211.8
		c0.1,9.2,1.4,19.5,5.6,27.1c3.6,6.6,12.1,14,18.4,13.9c7.1-0.1,17.6-6.5,20.4-13.1c4.6-10.9,5.5-24.2,5.8-36.5
		C1609.5,507.5,1609.1,475.6,1609.1,443.7z"/>
	<path class="st0" d="M1296.2,446.3c0.3,40.1-4.8,79.2-19.1,116.6c-3.1,8.2-6.8,16.2-11.1,23.8c-36.6,65.3-105.2,65-141.5-0.8
		c-16.7-30.3-24.7-63.7-27.5-98.3c-4.7-57.9-2.2-115,21.9-168.7c2.9-6.6,6.3-13,10.3-19c37.4-56.1,100.3-54.7,134.5,3.6
		C1289.3,347.1,1295.8,396,1296.2,446.3z M1171.6,445.2c-0.2,0-0.3,0-0.5,0c0,29.8-0.4,59.6,0.2,89.4c0.3,12.9,1.7,26.1,4.4,38.7
		c2.2,10.3,9.1,16.9,20.2,17.1c11.5,0.2,18.8-6.3,21.9-17.1c2.5-8.9,4.1-18.4,4.2-27.7c0.3-66.9,0.2-133.9-0.1-200.8
		c0-8.3-1.1-16.7-2.5-24.9c-2.1-12.4-6-24.3-20.1-24.9c-13.7-0.6-21.6,8.4-25,22c-1.4,5.5-2.6,11.3-2.6,16.9
		C1171.4,371,1171.6,408.1,1171.6,445.2z"/>
	<path class="st0" d="M545.9,625.5c-59.1,4.5-67-4.8-79.8-38.5c-2.7,4.9-5.1,9.4-7.6,13.9c-17.4,30.8-49.2,39.9-77,19.5
		c-11.6-8.5-21.7-21.5-28.5-34.7c-16-31.3-16.8-65.3-7.3-99c10.3-36.4,38.8-57.8,78.1-60c11.7-0.7,23.5-0.1,39.3-0.1
		c-1.9-36.7-2.9-73-6.3-109c-1.2-13.1-15.9-19.7-26.2-15.4c-10.7,4.5-13.4,15.2-7.3,29c0.6,1.4,1.3,2.8,2,4.2
		c9.1,18.5,7.2,32.8-5.6,41.3c-16.6,11-38.8,7.7-49-7.1c-15.5-22.6-13.7-59,3.8-80.2c35.2-42.5,96.4-38.1,125.3,9.3
		c17.7,29.1,23.4,61.9,23.8,95.8c0.7,56,0.3,112,0.4,168c0,5.7,0,11.4,0,17.8c7.8,0.9,14.4,1.6,21.9,2.5
		C545.9,596.9,545.9,610.7,545.9,625.5z M463.9,460.3c-25.2-8.7-36.2-4.4-39.9,18.4c-3.9,24.3-3.4,49.5-3.4,74.4
		c0,11.5-0.5,27.6,13.1,29.7c15.6,2.4,20.2-14.4,21.7-26.5C459.6,524.4,461.2,492.2,463.9,460.3z"/>
	<path class="st0" d="M582.7,310.4c-6.7-0.6-12.5-1.2-20-1.8c0-7.3,0-13.9,0-20.5c0-6.7,0-13.4,0-21.5c30.3,0,59.5,0,89.9,0
		c0,9.7,0,19.9,0,30.2c9.7-18.2,21.2-32,41.6-35c24.9-3.6,42.7,6.2,47.5,32.3c3.2,17.3,3.4,36.8-0.6,53.7
		c-5.3,22.4-26,25.6-41.1,8.7c-10.5-11.7-13.6-26.3-12.7-42c0.3-5.1,1.2-10.3,2.2-19.1c-16.4,13.1-23.9,28.1-24.4,46.3
		c-0.8,29.8-0.6,59.7-0.7,89.5c-0.1,44,0,88,0,131.9c0,5.6,0,11.2,0,17.4c9.9,0.7,18.1,1.2,27,1.8c0,14.2,0,27.6,0,42.4
		c-42.4,0-84.6,0-127.9,0c0-13.8,0-27.2,0-41.9c6-0.8,12.1-1.6,19-2.5C582.7,490.6,582.7,401.3,582.7,310.4z"/>
	<path class="st0" d="M1429.8,625.1c-43.2,0-85.2,0-128,0c0-14.5,0-28.3,0-42.6c6.6-0.8,12.3-1.5,18.9-2.4c0-89.7,0-178.9,0-269.3
		c-5.7-0.7-11.4-1.4-18.5-2.3c0-13.5,0-27.2,0-42.2c28.7,0,57.8,0,88,0c0,10.1,0,19.8,0,29.5c0.8,0.3,1.6,0.5,2.4,0.8
		c2.1-4.3,4.1-8.7,6.4-12.8c11.2-19.5,28.6-24.2,48.4-22.1c16.5,1.7,29.5,13.4,32.6,33.2c2.5,15.6,3.4,32.6,0.1,47.9
		c-1.9,9.1-12.2,20.6-20.5,22.6c-7.3,1.7-18.8-6.5-25.3-13.7c-10.9-11.9-11.7-29.2-6.8-56.8c-16.7,11-24.9,27.2-25.1,45.7
		c-0.8,79.5-0.4,158.9-0.4,238.2c9.6,2.3,24.6,2.2,26.3,7.2C1432.5,597.4,1429.8,611.3,1429.8,625.1z"/>
</g>
</svg>
