<?xml version="1.0" encoding="utf-8"?>
<!-- Generator: Adobe Illustrator 25.2.3, SVG Export Plug-In . SVG Version: 6.00 Build 0)  -->
<svg version="1.1" id="Layer_1" xmlns="http://www.w3.org/2000/svg" xmlns:xlink="http://www.w3.org/1999/xlink" x="0px" y="0px"
	 viewBox="0 0 40 11.5" style="enable-background:new 0 0 40 11.5;" xml:space="preserve">
<style type="text/css">
	.st0{fill:#FFFFFF;}
</style>
<g>
	<path class="st0" d="M6.7,1.3v9H1.3v-9L6.7,1.3 M7.9,0H0v11.5h7.9V0L7.9,0z"/>
	<g>
		<path class="st0" d="M10.2,1c0.2,0,0.3,0,0.5,0c0,0,0.1,0,0.1,0.1C11.4,2,12,2.9,12.7,3.8c0,0,0,0.1,0.1,0.1c0-1,0-2,0-3
			c0.2,0,0.4,0,0.6,0c0,1.4,0,2.8,0,4.2c-0.2,0-0.3,0-0.5,0c0,0-0.1,0-0.1-0.1c-0.6-0.9-1.3-1.9-1.9-2.8c0,0,0-0.1-0.1-0.1
			c0,1,0,2,0,3c-0.2,0-0.4,0-0.6,0C10.2,3.8,10.2,2.4,10.2,1z"/>
		<path class="st0" d="M27.2,3.9c0-1,0-2,0-3c0.2,0,0.4,0,0.6,0c0,1.4,0,2.8,0,4.2c-0.2,0-0.3,0-0.5,0c0,0-0.1,0-0.1-0.1
			c-0.6-0.9-1.3-1.9-1.9-2.8c0,0,0-0.1-0.1-0.1c0,1,0,2,0,3c-0.2,0-0.4,0-0.6,0c0-1.4,0-2.8,0-4.2c0.2,0,0.3,0,0.5,0
			c0,0,0.1,0,0.1,0.1C25.8,2,26.5,2.9,27.2,3.9C27.1,3.9,27.1,3.9,27.2,3.9L27.2,3.9z"/>
		<path class="st0" d="M24.2,3c0,0.5-0.1,1-0.4,1.4c-0.5,0.9-1.6,1.1-2.4,0.5c-0.4-0.3-0.6-0.7-0.7-1.1c-0.2-0.7-0.1-1.3,0.2-1.9
			C21.1,1.4,21.5,1.1,22,1c0.7-0.2,1.3,0.1,1.7,0.7C24.1,2,24.2,2.5,24.2,3z M23.4,3c0-0.4-0.1-0.7-0.2-1c-0.2-0.3-0.4-0.5-0.8-0.5
			S21.8,1.7,21.6,2c-0.3,0.7-0.3,1.5,0,2.2c0.1,0.2,0.3,0.4,0.5,0.4c0.4,0.1,0.8-0.1,1-0.5C23.4,3.8,23.4,3.4,23.4,3z"/>
		<path class="st0" d="M17.6,10.7c-0.6,0-1.1-0.3-1.4-0.7c-0.5-0.9-0.6-1.8-0.1-2.7c0.2-0.5,0.6-0.8,1.1-0.9C18,6.2,18.5,6.5,18.9,7
			s0.5,1,0.4,1.6c0,0.4-0.1,0.8-0.3,1.2C18.7,10.4,18.2,10.6,17.6,10.7z M18.6,8.4c0-0.4-0.1-0.8-0.2-1.1c-0.2-0.4-0.6-0.6-1-0.5
			c-0.3,0.1-0.5,0.3-0.6,0.6c-0.2,0.4-0.2,0.9-0.1,1.3c0,0.3,0.1,0.6,0.3,0.8c0,0.3,0.2,0.5,0.4,0.5c0.4,0.1,0.8-0.1,1-0.5
			C18.6,9.2,18.6,8.8,18.6,8.4z"/>
		<path class="st0" d="M34.5,8c0-0.5,0-1.1,0-1.6c0.2,0,0.5,0,0.7,0c0,1.4,0,2.8,0,4.2c-0.2,0-0.5,0-0.7,0c0-0.7,0-1.3,0-2
			c-0.5,0-1,0-1.5,0c0,0.7,0,1.3,0,2c-0.2,0-0.5,0-0.7,0c0-1.4,0-2.8,0-4.2c0.2,0,0.5,0,0.7,0c0,0.5,0,1.1,0,1.6C33.5,8,34,8,34.5,8
			z"/>
		<path class="st0" d="M25.1,8.9c0.3,0.6,0.5,1.1,0.8,1.7c-0.3,0-0.5,0-0.8,0c0,0-0.1,0-0.1-0.1c-0.2-0.5-0.4-0.9-0.6-1.4
			C24.5,9,24.4,9,24.3,9s-0.1,0-0.2,0c0,0.5,0,1,0,1.6c-0.2,0-0.5,0-0.7,0c0-1.4,0-2.8,0-4.2c0,0,0,0,0.1,0c0.4,0,0.8,0,1.1,0
			c0.1,0,0.3,0,0.4,0.1c0.5,0.1,0.7,0.5,0.7,1C25.8,8.1,25.6,8.5,25.1,8.9z M24.1,6.9c0,0.5,0,1,0,1.5c0.1,0,0.2,0,0.3,0
			c0.3,0,0.5-0.2,0.6-0.5c0-0.1,0-0.3,0-0.4c0-0.2-0.1-0.4-0.4-0.5C24.5,7,24.3,7,24.1,6.9z"/>
		<path class="st0" d="M22.6,6.6c-0.1,0.2-0.2,0.3-0.2,0.5C22.2,7,22,7,21.8,6.9c-0.6-0.1-1.1,0.2-1.3,0.7c-0.2,0.6-0.2,1.1,0,1.7
			C20.7,9.7,21,10,21.4,10c0.2,0,0.4,0,0.6-0.1c0.1,0,0.1-0.1,0.1-0.1c0-0.4,0-0.7,0-1.1V8.6c0.2,0,0.5,0,0.7,0v0.1c0,0.5,0,1,0,1.5
			c0,0.1,0,0.1-0.1,0.1c-0.4,0.2-0.9,0.3-1.4,0.2c-0.8-0.1-1.3-0.5-1.5-1.3c-0.3-0.8-0.2-1.6,0.3-2.3c0.6-0.8,1.6-1,2.4-0.5
			C22.5,6.6,22.6,6.6,22.6,6.6z"/>
		<path class="st0" d="M12.7,6.6c-0.1,0.2-0.2,0.3-0.2,0.5c-0.2,0-0.3-0.1-0.5-0.2c-0.6-0.1-1.1,0.1-1.3,0.7c-0.3,0.6-0.3,1.2,0,1.8
			c0.2,0.3,0.4,0.6,0.8,0.6c0.2,0,0.4,0,0.6-0.1c0.1,0,0.1-0.1,0.1-0.1c0-0.4,0-0.7,0-1.1V8.6c0.2,0,0.5,0,0.7,0c0,0.6,0,1.1,0,1.7
			c-0.5,0.2-1,0.3-1.6,0.2c-0.5-0.1-0.9-0.4-1.2-0.8c-0.5-0.9-0.5-1.7,0-2.6s1.7-1.2,2.5-0.7C12.6,6.6,12.7,6.6,12.7,6.6z"/>
		<path class="st0" d="M29.3,10.6c-0.3,0-0.5,0-0.7,0c0,0-0.1,0-0.1-0.1c-0.1-0.3-0.2-0.7-0.3-1V9.4c-0.1,0-0.2,0-0.3,0
			c-0.3,0-0.6,0-0.9,0c-0.1,0-0.1,0-0.1,0.1c-0.1,0.3-0.2,0.6-0.3,1v0.1c-0.2,0-0.4,0-0.6,0v-0.1c0.5-1.3,0.9-2.7,1.4-4
			c0-0.1,0.1-0.1,0.1-0.1c0.1,0,0.3,0,0.4,0s0.1,0,0.1,0.1c0.3,1,0.6,2.1,1,3.1C29.1,9.9,29.2,10.2,29.3,10.6z M27.6,7.2
			c-0.2,0.6-0.3,1.1-0.5,1.7c0.3,0,0.6,0,0.9,0C27.9,8.4,27.8,7.8,27.6,7.2z"/>
		<path class="st0" d="M16.1,5.1c-0.1-0.3-0.2-0.7-0.3-1C15.7,4,15.7,4,15.6,4c-0.3,0-0.7,0-1,0c-0.1,0-0.1,0-0.2,0.1
			c-0.1,0.3-0.2,0.6-0.3,1c0,0.1,0,0.1-0.1,0.1c-0.2,0-0.3,0-0.5,0V5.1c0.5-1.3,0.9-2.7,1.4-4C14.9,1,15,1,15.1,1s0.3,0,0.4,0
			c0.1,0,0.1,0,0.1,0.1c0.3,1.1,0.7,2.1,1,3.2c0.1,0.3,0.2,0.6,0.3,0.9C16.6,5.1,16.3,5.1,16.1,5.1z M15.6,3.5
			c-0.2-0.6-0.3-1.1-0.5-1.7c-0.2,0.6-0.3,1.1-0.5,1.7C15,3.5,15.3,3.5,15.6,3.5z"/>
		<path class="st0" d="M31.3,5.2c-0.3,0-0.5,0-0.8,0c-0.1-0.3-0.1-0.5-0.2-0.8c0-0.1-0.1-0.2-0.1-0.3c0-0.1,0-0.1-0.1-0.1
			c-0.4,0-0.7,0-1.1,0c-0.1,0-0.1,0-0.1,0.1c-0.1,0.3-0.2,0.6-0.3,1v0.1c-0.2,0-0.4,0-0.6,0c0-0.2,0.1-0.4,0.1-0.6
			c0.4-1.2,0.8-2.3,1.2-3.5C29.3,1,29.4,1,29.5,1s0.3,0,0.4,0H30C30.4,2.4,30.8,3.7,31.3,5.2C31.3,5.1,31.3,5.1,31.3,5.2z M29.6,1.8
			c-0.2,0.6-0.3,1.1-0.5,1.7c0.3,0,0.6,0,0.9,0C29.9,2.9,29.7,2.4,29.6,1.8z"/>
		<path class="st0" d="M29.5,6.4C29.5,6.4,29.6,6.4,29.5,6.4c0.5,0,0.8,0,1.2,0c0.2,0,0.4,0,0.5,0.1c0.4,0.1,0.6,0.4,0.6,0.8
			c0.1,0.5-0.1,1-0.5,1.4C31.2,8.9,30.9,9,30.6,9c-0.1,0-0.2,0-0.4,0c0,0.5,0,1.1,0,1.6c-0.2,0-0.5,0-0.7,0
			C29.5,9.2,29.5,7.8,29.5,6.4z M30.2,8.5c0.1,0,0.2,0,0.3,0c0.3,0,0.5-0.2,0.6-0.4s0.1-0.4,0-0.6c0-0.2-0.1-0.3-0.3-0.4
			C30.7,6.9,30.5,7,30.2,7C30.2,7.5,30.2,8,30.2,8.5z"/>
		<path class="st0" d="M14.2,10c0.5,0,0.9,0,1.4,0c0,0.2,0,0.4,0,0.6c-0.7,0-1.4,0-2.1,0c0-1.4,0-2.8,0-4.2c0.6,0,1.2,0,1.9,0
			c0,0.2,0,0.4,0,0.6c-0.4,0-0.8,0-1.2,0c0,0.4,0,0.8,0,1.2c0.4,0,0.8,0,1.1,0c0,0.2,0,0.4,0,0.6c-0.4,0-0.8,0-1.1,0
			C14.2,9.1,14.2,9.6,14.2,10z"/>
		<path class="st0" d="M40,6.6c-0.1,0.2-0.1,0.3-0.2,0.5c-0.1,0-0.3-0.1-0.4-0.1c-0.5-0.2-1,0-1.3,0.5c-0.2,0.4-0.3,0.8-0.3,1.2
			c0,0.3,0.1,0.5,0.2,0.7c0.3,0.6,1,0.8,1.7,0.5c0,0,0.1,0,0.1-0.1c0.1,0.2,0.1,0.3,0.2,0.5c-0.3,0.2-0.6,0.3-1,0.3
			c-1.1,0-1.8-0.8-1.9-1.7c-0.1-0.6,0-1.2,0.4-1.8C38,6.3,39.1,6,39.9,6.5C39.9,6.6,40,6.6,40,6.6z"/>
		<path class="st0" d="M19.3,1c0,0.2,0,0.4,0,0.6c-0.4,0-0.7,0-1.1,0c0,1.2,0,2.4,0,3.6c-0.2,0-0.5,0-0.7,0c0-1.2,0-2.4,0-3.6
			c-0.4,0-0.7,0-1.1,0c0-0.2,0-0.4,0-0.6C17.4,1,18.4,1,19.3,1z"/>
		<path class="st0" d="M32.2,4.6c0.5,0,0.9,0,1.4,0c0,0.2,0,0.4,0,0.6c-0.7,0-1.4,0-2.1,0c0-1.4,0-2.8,0-4.2c0.2,0,0.5,0,0.7,0
			C32.2,2.2,32.2,3.4,32.2,4.6z"/>
		<path class="st0" d="M20.3,5.2c-0.2,0-0.5,0-0.7,0c0-1.4,0-2.8,0-4.2c0.2,0,0.5,0,0.7,0C20.3,2.4,20.3,3.8,20.3,5.2z"/>
		<path class="st0" d="M35.9,6.4c0.2,0,0.5,0,0.7,0c0,1.4,0,2.8,0,4.2c-0.2,0-0.5,0-0.7,0C35.9,9.2,35.9,7.8,35.9,6.4z"/>
	</g>
</g>
</svg>
