<?xml version="1.0" encoding="utf-8"?>
<!-- Generator: Adobe Illustrator 24.3.0, SVG Export Plug-In . SVG Version: 6.00 Build 0)  -->
<svg version="1.1" id="Layer_1" xmlns="http://www.w3.org/2000/svg" xmlns:xlink="http://www.w3.org/1999/xlink" x="0px" y="0px"
	 viewBox="0 0 873.1 929.1" style="enable-background:new 0 0 873.1 929.1;" xml:space="preserve">
<style type="text/css">
	.st0{fill:#FFFFFF;}
</style>
<g>
	<path class="st0" d="M425.3,234.1c18.6,0.4,39.3,0.5,59.9,1.5c20.4,1,40.8,2.3,61,6.1c1.3,0.3,2.8-0.1,4.2-0.2
		c-0.4-1.3-0.7-2.6-1.3-3.8c-8.8-18-13.8-37.3-16.7-57.3c-1.1-7.6-3.1-15.2-5.2-22.6c-2.1-7.7-7.4-12.2-14.7-13.7
		c-3.7-0.8-7.5-1.5-11.2-1.7c-13.3-0.7-26.6,0.8-39.7,3.4c-0.4,0.1-0.9,0.2-1.3,0.2c-0.7,0-1.4-0.1-2.1-0.1c0.2-0.8,0.2-1.8,0.6-2.5
		c3-5.4,6-10.7,9-16c0.5-0.9,1.1-1.8,1.6-2.8c0.9-2,0.5-2.6-1.4-2.5c-4.7,0.3-9.3,0.8-14,1.2c-2.8,0.2-5.5,0.4-8.3,0.5
		c-1.2,0-1.7-0.6-0.9-1.7c0.7-1,1.4-2,2.2-2.9c5.7-7.1,11.3-14.3,17.1-21.4c2.9-3.6,5-7.6,6.3-12.2c1.4-4.9,2.6-9.9,4.3-14.7
		c7.9-23.4,25.7-36.6,49-37.6c20.5-0.9,37.5,6.6,51.4,22.3c5,5.7,9.5,11.9,14.5,17.5c4.7,5.3,9.4,10.7,14.7,15.3
		c22.2,19.5,43.9,39.8,64.7,61c3.6,3.6,3.5,3.6,7.7,0.9c22.1-14.3,36.5-35.5,46.5-60.4c4.4-11,7.4-22.3,8.5-34.2
		c0.3-3.8,0.5-3.9,4-3.5c13.4,1.2,26.8,2.5,40.2,3.7c0.3,0,0.6,0,0.9,0.1c2.6,0.4,2.8,0.8,1.4,3.1c-2,3.4-4.3,6.7-6,10.3
		c-4.5,9.5-8.8,19-12.8,28.6c-1.5,3.6-2,7.8-2.9,11.7c-0.2,0.9-0.2,1.9-0.2,2.8c-0.1,7.9,4.1,11,10.8,7.7c7-3.5,12.8-8.9,17.5-15.3
		c7.2-9.8,14-20,20.9-30c2.1-3,4-6.1,5.8-9.3c1.1-1.9,2-1.7,3.5-0.5c10.6,9.1,21.2,18.2,31.7,27.4c2,1.7,1.9,1.9-0.6,3.5
		c-4.8,3-9.7,5.8-14.3,9.1c-3.4,2.4-6.6,5.2-9.4,8.3c-4.2,4.8-2.8,9.3,3.3,10.1c3.9,0.5,8.2,0,12.1-0.9c10.6-2.4,20.7-6.6,30.2-12.2
		c3.5-2,3.7-1.9,3.7,2.5c0,13.7,0,27.4,0,41.2c0,4.8-0.1,4.9-4.7,5c-22.6,0.7-44.7,5-66.4,11.4c-1.3,0.4-2.4,1.3-3.7,2
		c0.9,1.2,1.7,2.5,2.8,3.4c5.6,4.7,12.3,7,19.1,8.9c4.1,1.1,8.2,2.1,12.4,2.8c2.3,0.4,2.9,1.3,2.6,3.7c-1.2,8.3-2.2,16.7-3.3,25
		c-0.4,3.1-0.9,6.2-1.3,9.2c-0.5,3.8-0.5,3.7-4.1,2.3c-8.3-3.4-16.6-6.9-25-9.9c-16.7-6-33.9-9.3-51.5-10.2
		c-3.4-0.2-6.7-0.4-10.1-0.7c-2.1-0.2-3.7,0.6-4.9,2.3c-1.8,2.6-3.7,5.2-5.6,7.8c-0.9,1.2-1,2.2-0.1,3.4c0.3,0.4,0.5,0.8,0.7,1.2
		c22.5,35.6,41.5,73.3,59.8,111.5c28.3,59.3,54,119.9,79.1,180.8c2.3,5.5,3.9,11.4,5.8,17.1c0.1,0.4,0,0.8,0,1.3
		c-0.4,0-0.9,0-1.2-0.1c-1.4-0.8-2.8-1.6-4.2-2.5c-16.6-11-33.2-22.1-49.8-33.1c-1.2-0.8-2.5-1.4-3.8-2.1c0.2,1.6,0.2,3.2,0.7,4.7
		c7.2,22.9,14.6,45.7,21.8,68.6c1.2,3.8,1.9,7.9,2.1,11.8c0.3,3.9-1.5,6.4-5.1,7c-4.6,0.7-9.3,0.7-13.9,0.7c-4.1,0-8.2-0.4-12.2-0.6
		c-3.7-0.2-6.9,1.3-9.4,4.1c-2.1,2.4-4.2,4.7-6.3,7.1c-4.2,4.8-8.4,9.5-12.7,14.3c-0.9,1-1.9,2-3,2.8c-5.9,4.5-12.2,2.9-15.2-4.1
		c-1.1-2.6-1.8-5.6-2.2-8.5c-4.7-29.3-9.3-58.7-13.9-88c-4.5-28.7-9-57.4-13.4-86.2c-0.5-3.1-1.6-5.4-3.7-7.6
		c-16.1-15.7-31.7-31.9-46.3-49.2c-1-1.1-2.1-2.2-3.4-2.9c-5.6-2.7-11.2-5.4-16.8-7.9c-3.1-1.4-3.5-1.1-3.6,2.6
		c-0.3,12.9-0.1,25.9,2.3,38.6c0.6,3.1,0.2,5.2-2,7.4c-3.5,3.5-6.6,7.5-10.1,11.1c-1.6,1.7-2.2,3.5-2.1,5.8
		c0.2,8.3,0.2,16.5,0.6,24.8c0.2,4.1-0.8,7.4-3.6,10.1c-4,3.9-7.8,8-12.1,11.5c-17,14.1-34.8,26.8-53.4,38.4
		c-14.8,9.2-30.9,14.7-47,20.3c-3.7,1.3-7.6,2.4-11.3,3.8c-5.3,2.1-10.8,2.6-16.4,2.8c-28.1,1-56.2,0.6-84.2-0.7
		c-14.5-0.7-28.6,1.2-42.6,4.1c-12,2.5-23.9,5.6-35.9,8.6c-6.6,1.6-13.1,0.5-19.6-0.3c-12-1.6-23.2-6-34-11.6
		c-2.7-1.4-4.9-1.4-7.3,0.3c-9.9,7.2-20.1,14-29.7,21.6c-11.5,9.1-22.5,18.9-33.8,28.3c-7.1,6-14.4,11.7-21.4,17.9
		c-7,6.1-15,10.2-23.6,13c-10.8,3.5-21.6,6.5-33.1,6c-4.5-0.2-7.9-1.7-11.1-5.4c-11.6-13.7-26.3-19.2-43.5-16.5
		c-4.4,0.7-7.9-0.2-11.4-2.9c-5.7-4.4-10.1-9.9-13.9-16c-7.5-12.2-11.5-25.9-13.7-40.1c-2.7-17.1-2.7-34.1,1.3-51
		c0.3-1.2,0.7-2.4,1-3.6c1.8-9.5,8.3-14,16.3-15.4c18.9-3.2,36.7-9.9,54.5-17.2c4.9-2,9.8-4,14.7-6.2c3-1.3,2.9-1.5,0.8-4
		c-8.8-10.6-17.4-21.5-26.3-31.9c-6.5-7.7-9.5-16.7-9.9-26.8c-0.2-4.9-1.5-9.4-3.5-13.8c-4.4-9.3-8.4-18.8-12.8-28.2
		c-1.1-2.4-1.1-4.3,0.7-6.3c1.8-2.1,3.3-4.3,4.9-6.6c2.1-3.2,2.5-6.5,0.3-10c-2.4-3.8-4.5-7.6-6.8-11.5c-2.2-3.8-2.2-5.3,1.5-7.6
		c7.3-4.6,9.5-11.5,8-19.9c-1.7-9.9,2-16.9,9.6-22.2c8.2-5.7,17.3-8.9,26.7-11.5c13.1-3.7,26.5-6,40-7.7c1.7-0.2,3.5-0.4,5.2-0.9
		c1.2-0.3,2.5-0.9,3.3-1.9c4.1-5.2,8.1-10.6,12.1-16c0.3-0.5,0.5-1.1,0.8-1.6c-0.6-0.3-1.3-0.8-1.9-0.7c-6.6,0.5-13.1,0.9-19.7,1.6
		c-12.2,1.3-24.4,2.8-36.6,4.1c-1,0.1-2,0.2-3.1,0.2c-2.4,0-2.6-0.3-1.8-2.6c0.1-0.3,0.2-0.6,0.4-0.8c1.5-2.9,2.3-6.8,4.6-8.3
		c2.2-1.5,5.8-0.3,8.8-0.5c10.4-0.6,20.7-1.1,31.1-2.1c8.1-0.7,16.2-2.1,24.3-3.1c0.9-0.1,1.8-0.2,2.6-0.5c4.2-1.3,5.2-4.4,2.3-7.7
		c-10.1-11.7-20.3-23.3-30.6-34.8c-6.5-7.3-13.2-14.6-20-21.6c-2.2-2.3-2.5-4.2-1.2-6.9c1.3-2.5,2.2-5.1,3.5-7.5
		c1.1-2.2,1.6-2.1,2.9,0.1c13.7,23.4,31.7,42.7,51.1,60.7c1,0.9,2.1,1.7,3.1,2.6c1.2,1.1,2.3,1.2,3.4-0.1c0.7-0.8,1.4-1.6,2.2-2.3
		c25.3-27.6,52.8-52.5,83.1-73.7c10.2-7.2,17.7-16.3,23.2-27.9c4.9-10.6,10.8-20.7,16.6-30.8c4.2-7.2,9.6-13.4,16.2-18.3
		c11.4-8.6,24.1-10.7,37.6-7.6c7.2,1.7,13.1,6.2,18,11.9c2.1,2.4,4.4,3.8,7.3,4.8c8.4,2.7,16.7,5.6,25,8.5c1.4,0.5,2.7,1.2,4,1.8
		c-1.1,0.9-2.2,1.9-3.4,2.7c-4.9,3-9.9,6-14.9,9c-0.6,0.4-1.1,1-1.6,1.5c0.6,0.6,1.1,1.4,1.8,1.7c5.4,2.4,10.8,4.8,16.2,7.2
		c0.6,0.3,1.1,0.8,1.7,1.3c-0.6,0.4-1.1,0.9-1.8,1.2c-6.3,2.9-12.7,5.5-18.9,8.6c-11.2,5.5-21.8,12.1-31.2,20.6
		c-8.1,7.3-15,15.7-19.6,26.1c-0.6,1.3-1.1,2.6-1.6,3.9c-1.3,3.7-1.3,3.8,2,5.1c5.7,2.2,10.7,5.6,15.4,9.7c1.5,1.4,3.3,2.5,5.2,3.3
		c7.8,3.2,15.6,6.1,23.4,9.2c0.9,0.4,1.8,1,2.7,1.4c-0.8,0.7-1.4,1.5-2.3,2c-5.3,3.2-10.7,6.4-16,9.7c-2.5,1.5-2.5,2.1,0.1,3.7
		c4.6,2.8,9.2,5.4,13.8,8.2c0.8,0.5,1.5,1.3,2.2,2c-0.8,0.4-1.6,0.8-2.4,1.1c-12.1,4.2-24,9.2-34.7,16.6
		c-6.5,4.5-12.4,9.8-18.6,14.8c-0.8,0.7-1.5,1.5-2.1,2.4c-0.2,0.3,0.3,1.6,0.7,1.6c1.4,0.2,2.9,0.2,4.4,0.2
		C382.7,234.8,403,234.5,425.3,234.1z M455.8,521.7c17.4,0.4,31.6,0.7,45.8,1c1.5,0,3,0.1,4.4-0.3c9-2.7,18-5.4,26.9-8.4
		c34.9-11.7,64.9-31.7,89.7-60.5c3.7-4.2,5.1-9.3,6.6-14.5c0.9-3.2,0.2-5.1-2.7-6.4c-2.4-1.1-5-1.8-7.6-2.1
		c-12.5-1.2-24.4,1.4-35.6,7.7c-1.8,1-3.5,2-5.8,1c-2.2-1-2.5-1.3-0.5-2.9c3.1-2.6,6.3-5.2,9.7-7.2c12.9-7.6,26.8-12.2,41.3-15
		c2.1-0.4,3.4-1.3,4.4-3.2c8.9-16.6,14.3-34.4,15.5-53.6c0.1-2.2-0.4-3.6-2.3-4.4c-1-0.4-2-0.7-2.8-1.3c-2.4-1.6-3.9-0.6-5.5,1.5
		c-3.9,5.2-7.9,10.5-12.1,15.4c-3.8,4.5-7.9,8.8-12.2,12.7c-7.9,7.1-18.2,5.7-23.9-3.3c-5.6-8.8-10.9-17.7-16-26.8
		c-7.4-13.2-14.5-26.7-21.8-40c-0.8-1.5-1.6-3-2.7-4.2c-1.6-1.9-2.6-2-3.6,0.3c-1.5,3.7-2.9,7.5-3.8,11.4c-1.5,6.6-1.3,6.6-7.2,4.1
		c-2-0.9-2.8-2-2.2-4.2c1.4-5.2,2.8-10.5,4.1-15.7c0.4-1.5,1-3.1,0.7-4.5c-1.4-7.2-9-10-13.9-4.7c-2.4,2.6-4,6.1-5.3,9.5
		c-0.9,2.5-1.9,4.4-4.4,5.3c-1.2,0.4-2.4,1.2-3.6,1.7c-2.3,1-2.7,0.9-2.5-1.6c0.5-8.2,2.2-16.1,6.5-23c3.8-6.2,9.3-9.3,16.3-9
		c5.5,0.3,10.4,2.2,14.4,6.1c3.6,3.6,6.9,7.6,9.8,11.9c10.4,14.9,20.5,29.9,30.8,44.9c1.7,2.5,2.3,2.4,3.5-0.4
		c3.1-7.2,6-14.5,9.1-21.8c1-2.2,0.6-3.7-0.8-5.4c-12.5-15.8-23.9-32.3-34.3-49.7c-1-1.7-2.2-2.7-4.1-3.1c-3.9-0.7-7.7-1.9-11.5-2.6
		c-19.1-3.7-38.5-5.4-57.9-6.3c-21-1-42.1-1.5-63.1-1.7c-25.3-0.1-50.6,0.4-75.9,0.5c-3.8,0-5.7,1.5-7.4,4.9
		c-6.8,13.7-11.7,28.2-16.1,42.9c-2.5,8.5-1.2,6.4-8.6,5.2c-2.9-0.5-3-1-2.2-4.2c4-15.7,9.2-30.9,16.5-45.2
		c8.6-16.8,19.8-31.2,34.9-41.9c8.1-5.7,16.8-10,26-13.4c0.7-0.2,1.3-0.7,1.9-1.1c-0.5-0.7-0.9-1.6-1.6-2c-3-2-6-3.9-9-5.8
		c-1.7-1-1.7-1.9,0-2.9c3.5-2.3,7-4.6,10.4-7c1.1-0.7,2-1.7,3-2.6c-1.2-0.7-2.3-1.6-3.6-2c-6.1-2.1-12.3-3.9-17.2-8.8
		c-1.5-1.4-3.4-2.3-5.3-3.3c-14.4-7.5-28.9-4.2-38.9,9.2c-3.2,4.4-6.1,9.2-8.3,14.2c-3.8,8.5-9.1,15.6-15.7,21.6
		c-5.5,4.9-11.2,9.5-17.1,13.9c-8,6-16.2,11.7-24.4,17.5c-20.5,14.6-41,29.3-61.6,43.9c-1.4,1-3.1,2.1-4.7,2.1
		c-2.7,0-5.5-0.8-8.2-1.4c-0.5-0.1-0.9-0.5-1.4-0.8c0.4-0.4,0.7-1,1.1-1.3c6.3-4.8,12.7-9.5,19-14.2c28.6-21.1,57.2-42.2,85.9-63.2
		c6.8-5,12-11.2,15.9-19c3.1-6.3,6.5-12.6,10.4-18.4c6.8-10.2,16-16.9,27.9-18.2c2.6-0.3,3.8-1.5,4.7-3.9c3.8-9.2,8.8-17.6,15-25.2
		c12.3-15.2,27-27,44.9-34c0.9-0.4,1.8-1,2.7-1.5c-0.9-0.7-1.7-1.5-2.7-2c-3.2-1.5-6.5-2.9-9.7-4.4c-2.8-1.3-2.8-1.4-0.1-3.3
		c3.1-2.3,6.3-4.5,9.5-6.8c1.2-0.9,2.1-2,3.2-3c-1.2-0.7-2.4-1.4-3.7-1.9c-1.8-0.7-3.6-1.3-5.4-1.8c-3.9-1.1-7.1-2.9-10.1-6
		c-8.2-8.1-17.9-11.6-29.1-8.9c-6.9,1.6-13,5.2-17.7,10.6c-4.5,5.2-8.9,10.8-12.5,16.8c-4.8,8-9,16.4-12.8,25
		c-5.5,12.6-13.7,22.3-24.5,29.8c-14.7,10.2-28.7,21.5-42.1,33.6c-40.4,36.2-74.7,78-104.8,123.8c-0.5,0.8-1,1.6-1.5,2.3
		c-2,2.9-2,2.9-4.9,1.2c-5.6-3.5-5.2-2.6-1.9-8.2c3.8-6.5,7.7-12.9,11.6-19.3c0.4-0.6,0.4-1.4,0.6-2.1c-0.7-0.2-1.3-0.6-1.9-0.5
		c-12,1.5-24.1,3-35.6,7.1c-4,1.4-7.9,3.4-11.3,6c-4.4,3.2-5.2,8-2.4,12.7c1.9,3.2,4.4,6.3,7.2,8.7c7.9,7.1,17,12,26.9,15.2
		c4.7,1.5,9.2,1.5,13.7-0.3c3.6-1.4,7.1-2.8,10.6-4.5c10.6-5.2,21.4-5.3,32.5-2.4c16.1,4.2,31.4,10.8,46.1,18.9
		c6,3.3,11.7,7,17.5,10.7c2.1,1.4,2,1.9-0.2,2.9c-2.7,1.2-5.4,2.5-8.2,3.4c-1.4,0.4-3.1,0.3-4.5-0.1c-1.7-0.5-3.2-1.6-4.7-2.4
		c-11.7-6.1-23.4-12-35.9-16.1c-15.9-5.2-31.3-4.8-46.2,4.1c-4.7,2.8-9.9,4.5-14.9,6.9c-2.4,1.1-4.3,0.8-6.6-0.5
		c-12.5-7.3-26.1-12.6-37-23c-1.2-1.2-2.1-0.8-2.5,0.9c-0.5,2.1-0.7,4.4-1.5,6.3c-1,2.6-0.5,4.8,0.5,7.1c2.7,6.8,6.9,12.2,12,17
		c6.6,6.2,14.2,11,22.3,14.7c12.2,5.6,25,9,38.3,8c4.7-0.3,7.9,0.6,10.4,4.6c0.4,0.6,0.9,1.2,1.5,1.7c1.1,1.1,1.1,2-0.2,3
		c-4.2,3.3-8.5,6-13.8,6.8c-6.9,1.1-13.7-0.4-20.4-2c-17.5-4.1-33.3-11.5-46.4-24.8c-1.9-1.9-3.9-3.8-5.8-5.7
		c-1.8-1.8-2.1-1.7-2.9,0.6c-1.7,5.1-0.8,9.8,1.7,14.3c3.8,6.7,8.3,12.8,13.7,18.2c10.3,10.3,22,18.5,34.3,25.9
		c6.2,3.7,12.6,6.4,19.7,7.3c1.7,0.2,3.5,0.4,5.2,0.7c13.3,1.9,26.5,2.5,39.7-0.5c9.3-2.1,18-5.4,24-14.1c1.9-2.7,4.7-4.4,7.9-4.5
		c4.4-0.1,8.8-0.3,13.1,0.5c17.9,3.4,35,9.6,51.9,16.6c1.1,0.4,2.2,0.9,3.2,1.6c0.3,0.2,0.3,1.5,0.1,1.6c-5.1,3.2-10.1,5.9-16.4,3.3
		c-7.2-3-14.6-5.5-22.1-7.6c-7.3-2.1-14.8-3.9-22.5-2.4c-7.9,1.6-13.6,6.1-16.2,14.6c-1.2,3.9-0.2,7.3,3,9.4
		c2.7,1.8,5.6,3.3,8.7,4.4c7.3,2.5,14.8,3.4,22.4,3.9c11.1,0.7,22.2,0.4,33.3-0.9c12.2-1.4,24.4-2.5,36.6-4.1
		c8.8-1.2,8.8-1.4,14.1,6c1.7,2.3,1.6,2.8-0.9,3.2c-7.3,1.3-14.6,2.9-22,3.7c-11.5,1.3-23,2.4-34.5,3.2c-19.6,1.3-39.1,0.7-58.6-2.1
		c-5.8-0.8-10.6-3.1-13.5-9c-1.9-3.9-5.1-6.2-8.9-7.9c-8.4-3.6-17.1-3.6-25.9-3.5c-8,0.1-16.1-0.1-24.1-0.5
		c-5.1-0.3-10.1-1.7-14.6-4.4c-3.3-2-6.8-3.6-10.2-5.5c-9.7-5.5-19.3-11.1-26.6-20.3c-0.2-0.2-0.4-0.5-0.6-0.7
		c-0.5-0.3-1-0.5-1.5-0.7c-0.1,0.6-0.4,1.2-0.2,1.7c2.2,7.8,4.4,15.4,10.3,21.3c5.8,5.7,11.1,12,16.6,18c3.3,3.6,7.2,5.6,11.9,6.3
		c5.2,0.7,10.2-0.1,15.1-1.6c7.5-2.3,15-2.1,22.5,0.2c8.8,2.6,17,6.6,24.8,11.6c6.7,4.3,13.2,9.2,19.8,13.8
		c7.3,5.2,15.2,7.5,24.1,6.1c6-1,12.1-2,18.3-0.3c8.8,2.4,17,6,23.1,13.4c5.6,6.8,9.6,14.5,12,23.1c1.8,6.2,1.8,6.2-3.3,10.1
		c-0.7,0.5-1.4,1.1-2.1,1.6c-2.2,1.5-2.3,1.5-3.2-1.3c-2.1-6.5-4.7-12.7-8.5-18.4c-3.9-5.8-8.6-10.6-14.8-13.4
		c-10.1-4.6-22.7-2.8-29.6,4.4c-1.3,1.4-2.9,4-4,3.8c-1.7-0.3-3.2-2.5-4.6-4C227,478.1,215,467.8,201,460.3
		c-12.4-6.6-25.3-9.5-39.1-6.5c-8.6,1.8-17.1,3.6-25.2,7.4C114,471.5,90.9,480.8,66.6,486c-2.5,0.5-3.8,1.8-4.4,4.3
		c-2.1,8.4-4.7,16.7-6.4,25.2c-1.1,5.4-1.7,11.2-1.5,16.7c0.7,15.5,5.9,29.5,14.4,42c2.5,3.7,5.9,6.9,9,10.2
		c1.3,1.4,2.9,1.6,4.8,1.4c18.1-2.1,33.5,3.4,45.5,18.3c2,2.5,4.3,4.3,7.3,4.7c3.2,0.3,6.4,0.8,9.6,0.5c7.6-0.8,14.9-2.6,21.9-6.1
		c4.2-2.1,7.4-4.9,9.5-9.2c2.3-4.7,4.7-9.3,6.8-14.1c6.4-14.4,9.3-29.5,7.9-45.4c-0.3-2.9-0.2-6.2-1.4-8.6
		c-3.4-6.6-7.9-12.5-15.1-14.9c-6.7-2.3-13.5-4-20.2-6.2c-5.4-1.8-10.5-1.6-15.9,0.2c-9.9,3.3-19.9,6.3-29.8,9.3
		c-0.5,0.2-1.1,0.1-1.7,0.2c0.4-0.5,0.6-1.2,1.1-1.6c6.3-4.6,12.6-9.1,18.9-13.6c1-0.7,2-1.4,2.9-2.1c0.4-0.4,0.7-0.9,1.1-1.4
		c-0.5-0.4-1-1-1.7-1.2c-0.7-0.3-1.4-0.2-2.2-0.4c-4.6-0.9-9.2-1.8-13.8-2.7c-0.7-0.1-1.3-0.4-1.9-0.6c0.7-0.5,1.3-1.1,2-1.3
		c3.5-1.2,7-2.2,10.4-3.5c2.9-1.1,5.5-1.1,8.5-0.2c8.8,2.8,17.7,5.2,26.6,7.8c6.2,1.8,12.4,3.5,18.4,5.9c9.5,3.8,18.3,8.9,25.6,16.8
		c3.9,4.3,5.3,8.9,4,14.8c-2.9,13.2-5.3,26.5-8,39.7c-0.7,3.5-1.5,7-2,10.5c-0.1,0.8,0.3,1.7,0.4,2.5c0.6-0.4,1.1-0.8,1.7-1.3
		c4.6-4.1,9-8.3,13.7-12.4c3.2-2.7,6.7-5,9.9-7.8c3.4-3,6.9-5.9,9.6-9.5c2-2.6,3.6-3.6,6.8-2.8c2.2,0.5,5-0.5,7.1-1.7
		c3.4-2,6.7-4.5,9.7-7.2c3.9-3.5,7.6-7.3,11.3-11.1c3.7-3.9,8.1-6.6,12.8-8.8c2.6-1.2,4.8-1.3,7.4,0c9.7,4.8,19.7,8.7,30.1,11.1
		c9.1,2.1,18.2,2.9,26.9-2.1c2.1-1.2,4.7-1.8,7.1-2.1c10.7-1.4,21.4-2.9,32.2-3.9c11.9-1.1,23.9-2.1,35.8-2.5
		C432.7,521.4,445.9,521.7,455.8,521.7z M497.2,130c0,0.2,0,0.4,0,0.6c2.8,0,5.6-0.2,8.3,0c21.2,2.2,28.8,10.7,34.1,28
		c1.7,5.6,2.8,11.5,3.7,17.3c3.6,23.1,9.8,45.2,20.8,65.6c13,24.1,28.4,46.5,45.4,67.5c2.7,3.4,2.8,3.3,1,7.2
		c-4.6,9.9-8.7,20.1-13.8,29.7c-3,5.7-2.1,10.3,0.7,15.2c0.8,1.5,1.7,2.9,2.7,4.3c2.7,3.8,5.1,4.3,8.5,1.4
		c8-6.8,15.6-14.1,22.1-22.7c2-2.6,4.1-5.1,6.2-7.6c3,1.3,5.9,2.6,8.9,3.9c4.5,2.1,9.1,4.3,13.6,6.4c0.4,0.2,1-0.1,1.5-0.2
		c-0.1-0.4-0.2-0.9-0.4-1.3c-0.7-1-1.4-2-2.1-3c-9-12.8-18.3-25.5-27-38.6c-19-28.3-36.6-57.5-51.1-88.7c-2.8-6-5.5-12.1-7.7-18.3
		c-1.1-3.2-1.3-6.9-1.6-10.5c-0.2-2.1,1-3.9,2.9-4.8c2.1-1,3.9,0.2,5.1,1.7c1.6,2,3,4.2,4.1,6.6c2.3,5.2,4.3,10.6,6.6,15.8
		c12.7,28.3,28,55.1,44.2,81.2c20.4,32.6,42.5,63.8,68.6,91.6c21.3,22.7,43.4,44.5,66.5,65.1c19.9,17.7,40.2,34.7,62,49.6
		c6,4.1,12.3,7.9,18.4,11.7c0.5,0.3,1.3,0.1,1.9,0.1c-0.1-0.6-0.1-1.2-0.3-1.7c-0.1-0.4-0.3-0.9-0.5-1.3
		c-8.2-18.2-16.4-36.5-24.8-54.7c-0.8-1.7-2.2-3.3-3.8-4.3c-30.9-19.3-58.3-43.2-83.4-70.3c-22.2-24.1-42.1-50.1-58-79.5
		c-1.2-2.2-1.9-4.7-2.9-7c2.3,0.2,4.6,0.5,6.9,0.4c2.2,0,3.4,1.1,4.5,3c15.1,27.1,34.1,50.9,54.8,73.3c16.6,18,34.3,34.9,54.1,48.9
		c4.5,3.2,9.3,5.9,14,8.7c0.5,0.3,1.3,0.1,1.9,0.1c-0.1-0.6-0.1-1.2-0.2-1.8c-0.3-0.9-0.7-1.7-1.1-2.5c-5.7-12.7-11.2-25.3-17-38
		c-16.8-37-34.4-73.6-53.2-109.5c-18.9-36.1-42.2-68.3-69.9-97.2c-24.3-25.3-49.4-49.5-75.5-72.7c-7.9-7-15.1-14.7-21.9-22.9
		c-4.2-5.1-8.6-10.3-13.1-15.1c-9.9-10.4-21.8-15.7-36-15.2c-13,0.5-23.8,5.7-32.4,16c-4.8,5.8-8.6,12.4-10.4,19.8
		c-2.4,9.3-6.6,17.2-12.9,24c-1.1,1.2-2.1,2.6-3.1,3.9c-0.4,0.5-0.9,1-1,1.5c0,0.5,0.4,1.4,0.8,1.5c0.6,0.2,1.4,0.1,2.2,0
		c6.4-0.8,12.8-1.6,19.1-2.3c0.6-0.1,1.3,0.2,2,0.3c-0.3,0.7-0.5,1.4-0.8,2.1c-0.5,0.9-1.2,1.8-1.8,2.7c-3.2,4.7-6.4,9.3-9.6,14
		c-0.5,0.7-0.5,1.7-0.7,2.5c0.7,0,1.4,0.1,2.1,0.1C485.3,131.3,491.2,130.7,497.2,130z M860.7,136.2c0-2.3,0.1-4.7,0-7
		c-0.1-3.1-0.4-3.3-3-2.7c-1.3,0.3-2.5,0.8-3.8,1.1c-7.3,2-14.7,4.1-22.1,5.8c-4.9,1.1-9.9,1-14.7-0.5c-6.9-2.2-10.3-9-7.6-16.2
		c1.3-3.5,3.4-6.9,5.9-9.7c3.1-3.5,6.8-6.4,10.4-9.3c3.3-2.7,3.4-2.6,0.2-5.6c-2.1-1.9-4.2-3.9-6.3-5.8c-5.9-5.4-5.9-5.4-10.7,1.5
		c-5.1,7.2-10.1,14.5-15.3,21.6c-4.8,6.5-10.2,12.5-16.4,17.5c-4.1,3.3-8.4,6.2-13.5,7.5c-7.9,2-17.2-3.5-18.6-11.3
		c-0.6-3.3-0.9-6.9-0.3-10.1c1.3-7.2,2.8-14.3,5-21.2c2.4-7.6,5.8-15,8.7-22.4c1.1-2.7,0.8-3.3-1.9-3.7c-3.9-0.6-7.8-1-11.7-1.6
		c-2-0.3-3.1,0.4-3.2,2.6c0,0.6-0.3,1.2-0.4,1.8c-5.6,29.8-19.3,54.9-39.2,76.3c-5.3,5.7-11.7,10.3-17.6,15.4
		c-2.5,2.1-2.6,2.2-0.4,4.6c11.7,12.7,22.7,26,33,40c1.8,2.5,2.1,2.5,3.9,0.1c8.9-11.5,20.1-19.8,32.4-26.7
		c24.2-13.7,50.3-21.6,77.1-26.8c8.7-1.7,17.6-2.7,26.4-3.9c3.6-0.5,3.8-0.7,3.9-4.6C860.7,140.6,860.7,138.4,860.7,136.2z
		 M789.6,576.6c-0.1-0.5-0.1-1.9-0.4-3.3c-7.8-38.3-15.6-76.6-23.3-115c-0.5-2.3-1.6-3.9-3.2-5.3c-5.5-4.6-10.9-9.4-16.4-14
		c-1.1-0.9-2.4-1.6-3.5-2.4c0,1.5-0.3,3-0.1,4.4c2.4,15,4.9,30.1,7.4,45.1c5.1,31.4,10.2,62.9,15.4,94.3c0.7,4.4,1.3,8.9,2.4,13.3
		c1.2,4.6,4.1,6.1,7.9,4.7c5.3-2.1,13.6-13.9,13.9-20C789.7,578.1,789.6,577.8,789.6,576.6z M816.1,576.6c1.6,0,2.2,0,2.8,0
		c6.6-0.6,8.8-3.8,7.1-10.7c-0.1-0.3-0.2-0.6-0.3-0.9c-7.9-25.9-15.7-51.8-23.7-77.7c-0.4-1.4-1.2-2.9-2.3-3.8
		c-6.5-5.3-13.2-10.3-19.8-15.4c-0.5-0.4-1.3-0.3-1.9-0.5c-0.1,0.6-0.3,1.2-0.2,1.8c0.1,0.8,0.4,1.5,0.5,2.3
		c7.1,30.7,14.2,61.3,21.4,92c0.5,2,1.1,3.9,1.9,5.7c1.6,3.6,4.4,5.8,8.1,6.5C812.2,576.2,814.7,576.4,816.1,576.6z M821.5,200.2
		c0.6-3.3-1.6-3.2-3.4-3.7c-12.8-3.1-24.8-8.1-34.5-18c-1.4-1.5-2.7-1.3-4.3-0.7c-9.9,3.9-19.4,8.6-28.2,14.8
		c-0.6,0.4-1.2,0.8-1.8,1.4c-0.8,0.9-0.7,1.6,0.5,1.9c0.6,0.1,1.2,0.1,1.7,0.1c11.5,0.5,22.9,2.5,34.1,5.4
		c10.5,2.7,20.7,6.2,30.6,10.9c3.1,1.5,3.5,1.3,3.9-2.2C820.7,206.8,821.1,203.5,821.5,200.2z"/>
	<path class="st0" d="M353.3,701.4c53.1,0,106.2,0,159.2,0c1.3,0,2.6-0.1,3.9,0c5.1,0.4,8.6,3.7,9,9.1c0.3,5,0.3,10,0,14.9
		c-0.4,5.6-4,8.9-9.3,9.1c-1.6,0-3.2,0-4.8,0c-95.5,0-191,0-286.5,0c-7.2,0-6.9-0.9-6.9,7.3c0,54.9,0,109.8,0,164.6
		c0,1.7,0,3.4,0,5.1c-0.1,8.5-4.2,13.9-12,14.3c-9.6,0.5-19.3,0.2-28.9-0.3c-7.6-0.4-13-4.9-16.7-11.9c-6.5-12.4-13.2-24.6-19.7-37
		c-16.9-32.3-33.6-64.5-50.5-96.8c-0.9-1.6-1.6-3.3-2.6-4.9c-0.4-0.7-1.2-1.1-1.8-1.6c-0.2,0.7-0.4,1.4-0.5,2.2
		c-0.1,1.2,0,2.5,0,3.7c0.2,42.7,0.4,85.4,0.6,128.1c0,2.6,0,5.3-0.4,7.9c-0.9,5.4-4,9-9.1,10.1c-3,0.6-6.1,0.7-9.1,0.7
		c-4.5,0-9.1,0.2-13.6-0.5c-6.3-0.9-10.1-5.6-10.7-12.3c-0.1-1.2-0.1-2.5-0.1-3.7c0-65,0-130,0-195c0-0.9,0-1.9,0-2.8
		c0.3-7.3,4.6-13.4,11.4-13.8c10.6-0.5,21.3-0.5,32,0.3c8.3,0.6,14.2,5.9,18.2,13.7c10.9,21.2,21.8,42.3,32.7,63.5
		c12.3,23.9,24.6,47.8,37,71.6c0.8,1.6,2,2.9,3,4.4c0.3-1.7,0.7-3.5,0.7-5.2c-0.2-41.9-0.5-83.9-0.7-125.8c0-1.6-0.1-3.1,0-4.7
		c0.3-8.3,5.5-13.9,13.4-14.3c1.5-0.1,2.9,0,4.4,0C247.7,701.4,300.5,701.4,353.3,701.4z"/>
	<path class="st0" d="M786.2,855.1c-15.5,0-31,0-46.5,0c-1.2,0-2.3,0.1-3.5,0c-1.8-0.1-2.8,0.7-2.5,2.8c0.3,1.8,0.5,3.7,1,5.5
		c5,20.1,22.4,32,41.7,29.1c10.9-1.6,19.7-6.6,26-16.2c2.3-3.5,5.4-5.1,9.3-5.1c7.6,0,15.2-0.1,22.8,0c5.7,0.1,8.6,4.3,7.3,10.4
		c-1.9,9-6.3,16.7-12.2,23.4c-6.6,7.3-14.4,12.7-23.2,16.5c-17.2,7.4-35,9.7-53.3,5.6c-20-4.5-36.1-15.8-46.7-34.3
		c-17.8-31-19.2-63.4-3.5-95.7c12.1-24.7,32.2-37.9,58.2-40.7c13.6-1.5,26.9,0,39.6,5.1c21.6,8.7,35.2,25.5,42.4,48.5
		c3,9.7,4.5,19.7,4.6,29.9c0,0.5,0,0.9,0,1.4c-0.1,9.2-4.4,13.8-13,13.9c-4.2,0.1-8.5,0-12.7,0C810.2,855.1,798.2,855.1,786.2,855.1
		z M769.7,823.7c10.8,0,21.6,0,32.4,0c4.2,0,4.5-0.5,3.6-4.9c-2.6-13.9-13.9-27-31.7-28.9c-16.9-1.8-32,7.8-37.7,23.4
		c-0.8,2.3-1.4,4.7-1.8,7.2c-0.4,2.8-0.1,3.1,2.7,3.3c1,0.1,2,0,3.1,0C750.1,823.7,759.9,823.7,769.7,823.7z"/>
	<path class="st0" d="M326.9,855.1c-16.1,0-32.2,0-48.2,0c-4.9,0-5,0.2-4,5.3c4.2,22.1,22.2,35.3,43,32c10.6-1.6,19-6.7,25.2-16
		c2.4-3.6,5.6-5.3,9.7-5.3c7.5,0,14.9-0.1,22.4,0c6,0.1,9.1,4.4,7.6,10.6c-2.1,8.8-6.2,16.4-12.1,23c-6.3,7.1-13.9,12.4-22.3,16.2
		c-18.2,8.1-36.9,10.4-56.1,5.6c-20.1-5-35.8-17-46.1-35.9c-16.7-30.9-17.7-62.9-1.8-94.5c12.2-24.2,32.1-37.1,57.8-39.9
		c12.9-1.4,25.4-0.1,37.6,4.3c24.7,9.1,39.2,28.3,46,54.6c2.2,8.6,3.1,17.4,3,26.4c-0.2,9.1-4.3,13.5-12.8,13.5
		C359.3,855.2,343.1,855.1,326.9,855.1z M311.2,823.7c6.7,0,13.4,0,20.2,0c4.4,0,8.8,0.1,13.1-0.1c2.6-0.1,3.2-0.7,2.6-3.4
		c-0.5-2.4-1.2-4.8-2.1-7.1c-6.3-15.8-21.9-25.1-38.8-23.4c-14.9,1.5-27.8,13.5-30.9,28.8c-0.9,4.5-0.5,5.1,3.9,5.2
		C289.9,823.7,300.5,823.7,311.2,823.7z"/>
	<path class="st0" d="M414.2,871.4c4.1,0,8.2-0.1,12.3,0c3,0.1,5.5,1.7,6.6,4.7c4.3,11.4,13.4,15.6,23.6,17.5
		c7.4,1.4,14.9,1.1,22.2-1c3-0.9,6.1-2.4,8.6-4.4c7.7-6.4,6.5-17.8-2.3-21.9c-5.8-2.7-12.1-4.5-18.3-6.3c-8.4-2.4-17-4.5-25.5-6.6
		c-8.9-2.2-17.2-5.9-24.8-11.3c-24.6-17.5-21.6-50.4-5.9-67c7.9-8.4,17.5-13.4,28.2-16.2c20.4-5.3,40.5-4.5,60.2,3.9
		c8,3.4,15,8.3,20.9,15.1c5.1,5.9,8.4,12.7,9.2,20.8c0.6,5.9-2.3,9.6-8,9.6c-6.4,0.1-12.9,0-19.3,0c-4.1,0-7.2-1.4-9.1-5.8
		c-2.5-5.8-7.1-9.4-12.7-11.6c-9.6-3.8-19.4-4.1-29.3-1.2c-5.3,1.6-9.5,4.8-10.9,11s0.1,10.4,5.5,13.2c4,2.1,8.3,3.8,12.7,5.1
		c12.7,3.6,25.4,6.9,38.1,10.4c6.8,1.9,13.2,4.9,19,9.3c12.2,9.1,18.2,21.6,18.1,37.4c-0.1,16.7-6.8,29.6-19.7,39
		c-8.4,6-17.7,9.5-27.5,11.6c-19.7,4.2-38.9,2.8-57.6-5.1c-8.8-3.7-16.8-8.9-23.3-16.2c-5.3-5.9-9.1-12.6-9.9-20.9
		c-0.2-1.7-0.3-3.4-0.2-5.1c0.3-4.9,3.2-8,7.9-8.2c3.8-0.2,7.6,0,11.4,0C414.2,871.3,414.2,871.4,414.2,871.4z"/>
	<path class="st0" d="M211.9,20.9c4.1,1.6,6.7-0.4,9.5-4.8C227.7,6,237,0.3,248.3,0c18.5-0.6,35.1,12.6,36.4,34.8
		c0.6,11-2.7,20.2-10.6,27.5c-1.7,1.6-2.1,3-1.4,5.3c1.7,6.2,2,12.5,0.7,18.9c-3,14.6-14.5,25.5-28.5,27c-2.3,0.2-4.7,0.3-7,0.4
		c-3.9,0.1-3.8,0-4.7,4.3c-0.6,2.7-1.1,5.5-2,8.1c-5.2,16-18.3,24.7-35.4,21.3c-20.2-4-31.3-18.5-37.1-38.6
		c-1.5-5.2-2.4-10.6-3.6-15.9c-1.2-5.5-3.1-10.7-6-15.5c-4.8-8.1-11.8-12.2-20.4-13.7c-0.7-0.1-1.5-0.1-2.2-0.2
		c-3.5-0.6-3.5-0.6-3.8-4.3c-0.9-8.6-3.6-16.3-8.5-23.2C104.8,23,90,17.4,74.9,21.7c-3.7,1.1-6.4,0.7-9.7-1.6
		c-9.7-6.7-20.4-5.3-27.9,3.3c-8.6,9.8-7.1,25.6,3.4,33c2.7,1.9,3.5,3.8,3.7,7c2,22.6,17.5,32,32.5,33.6c2.6,0.3,5.3,0.3,7.9,0.2
		c1.9-0.1,2.6,0.8,3.1,2.5c3.3,12.8,11.7,20,23.2,23.9c3.2,1.1,3.3,1.3,2.8,4.4c-0.3,1.8-1.1,2.2-2.7,2.2c-2.6,0-5.3,0-7.8,0.6
		c-5.7,1.2-10.4,4.5-13.9,9.2c-2.7,3.6-5.7,4.4-9.8,4.5c-9.1,0.1-18,1.9-26.3,6.3c-9.3,5-16.5,12.3-18.2,23.6
		c-0.8,5.3-2.5,7.6-7.2,9.5c-9.3,3.6-14.3,13.3-13.5,23.8c0.7,9.9,7.7,18.9,16.9,21.7c8.7,2.7,18.5-1,23.9-9.5
		c2.1-3.3,4.2-4.1,7.8-3.9c19.6,1.4,34.4-13.7,36.2-28.3c0.3-2,1.2-2.9,3.1-3.1c2.8-0.3,5.5-0.7,8.2-1.3c9.4-2.1,15.5-8.3,18.9-17.6
		c0.7-2,1.4-4.1,1.9-6.2c0.4-1.9,0.7-3.7,3.3-3.3c3.2,0.5,3.8,0.9,3.9,4.3c0.2,5.3-0.3,10.6-1.9,15.7c-3.8,11.8-11.8,18.3-23.5,18.9
		c-6.4,0.3-5.3-0.8-6.4,6c-3.1,19.5-19.8,29.3-35.7,27.1c-1.9-0.3-3.8-0.7-5.5-1.3c-2.4-0.9-3.7,0-5,2.2c-2.5,4.6-6,8.4-10.2,11.4
		c-7.6,5.3-15.8,6.4-24.3,3.9C11.2,239.9,0,224.7,0,209c0.1-14.7,6.6-25.3,19-31.5c3.4-1.7,4.6-3.6,4.9-7.6
		c1.6-19.3,14.6-35.4,35.7-35.4c4.1,0,8.1,0.8,12.1,1.4c1.5,0.2,2.5,0.1,3.3-1.4c2.7-4.9,6.3-8.6,11.6-9.9c0.4-0.1,0.7-0.8,1.1-1.2
		c-0.3-0.3-0.6-0.6-1-0.8c-1-0.6-2.1-1.1-3.1-1.8c-3.2-2-5.9-4.8-7-8.7c-1.1-4.1-2.3-3.6-5.1-3.2c-4.4,0.7-8.7,0.2-13-1.1
		c-15.8-4.8-26-20.5-24.4-37.9c0.4-3.8-0.7-5.8-3.7-7.9c-8.8-6.1-14.3-14.5-14.9-26.1C14.6,18.6,27.3,5.7,39.3,2.5
		c10.4-2.8,19.7,0,28,6.7c2.6,2,4.5,2.4,7.4,0.9c9.3-4.6,19.1-5.5,29.1-2.5c16.2,4.9,27.4,20.2,28.1,38.2c0,1.1,0.1,2.2,0,3.3
		c-0.2,2.6,0.8,3.7,3.3,3.7c4-0.1,7.9,0.6,11.5,2.4c11,5.6,15.9,15.4,16.7,28c0.1,1.6,0.5,3.1,0.7,4.7c0.8-1.2,1.7-2.4,2.5-3.7
		c2.3-3.8,5.6-6.2,9.7-7.6c2.8-1,2.9-1.1,1.8-4.2c-3.3-9.7-3.7-19.5-0.1-29.2C183.5,28.7,196.7,19.7,211.9,20.9z M269.3,38
		c0-9.2-5.2-16.7-15.7-20.9c-9.8-3.9-19-1.9-24.9,7.2c-3.6,5.6-7.8,6.9-13.5,7.9c-13.1,2.2-22.5,10-26.8,23.7
		c-2,6.5-1.8,13.2-0.9,19.9c0.6,3.9,0.6,3.8-2.7,6.1c-2.3,1.6-4.7,3.3-6.6,5.3c-5.9,6-9,13.4-8,22.3c2.2,18.3,18.9,29.6,35.5,24.4
		c11.9-3.7,19.8-14.7,19.7-26.2c0-2.6,0.8-3.7,3.2-3.8c0.6,0,1.2-0.2,1.7-0.2c18-1.6,32.4-21.8,31.4-40.3c-0.1-2.4,0.4-4,1.8-5.8
		C267.6,52.4,269.4,46.5,269.3,38z"/>
	<path class="st0" d="M551.1,835.8c0-12.3,0-24.6,0-36.9c0-1.1-0.1-2.2,0-3.3c0.1-2.1-0.7-3.2-2.8-3.1c-2,0.1-4.1,0.1-6.1,0
		c-4.8-0.2-8.4-3.6-8.6-8.7c-0.2-4.5-0.2-9,0-13.6c0.2-5.3,4.5-8.7,8.4-8.3c2,0.2,4.1-0.1,6.1,0c2.2,0.1,3.2-1,3.1-3.4
		c-0.1-1.1,0-2.2,0-3.3c0-13.6,0-27.1,0-40.7c0-2.2,0.2-4.4,0.7-6.5c1.2-5.1,5.3-8.6,10.2-8.7c6.3-0.2,12.6-0.2,18.9,0
		c5,0.1,9.1,4,10,9.4c0.4,2,0.4,4,0.4,6c0,12.9,0,25.9,0,38.8c0,1.2,0,2.5,0,3.7c0.1,4.3,0.2,4.5,4.2,4.5c6.4,0.1,12.9,0,19.3,0
		c1.5,0,2.9,0,4.4,0c4.8,0.2,7.6,2.5,8,7.4c0.4,5.1,0.4,10.3,0,15.4c-0.4,4.9-3.7,7.7-8.4,7.7c-7.7,0.1-15.5,0-23.2,0
		c-4.1,0-4.1,0.1-4.3,4.4c0,0.9,0,1.9,0,2.8c0,21,0,42.1,0,63.1c0,3.7,0,7.5,0.7,11.2c2.1,11.2,10.3,18.2,21.6,18.9
		c1.5,0.1,2.9,0,4.4,0.1c5,0.2,8.4,3.4,8.6,8.6c0.3,5.1,0.3,10.3,0,15.4c-0.2,4.8-3.5,8.6-8.2,8.8c-11.2,0.4-22.5,1.1-33.5-2.4
		c-18.1-5.7-31.3-22.7-33.2-42.8c-0.4-4-0.6-8.1-0.6-12.1C551,857.7,551.1,846.7,551.1,835.8z"/>
	<path class="st0" d="M636.8,812.5c0-32.7,0-65.4,0-98.2c0-2,0-4.1,0.4-6c1.3-5.1,5.9-8.8,11.1-9c6.3-0.1,12.6-0.2,18.9,0
		c6.5,0.2,11.2,5.1,11.6,12.1c0.1,1.6,0.1,3.1,0.1,4.7c0,64.4,0,128.7,0,193.1c0,1.4,0,2.8,0,4.2c-0.3,6.6-3.8,11.5-10,12.1
		c-7.2,0.7-14.6,0.7-21.8,0c-5.8-0.5-9.1-5.2-9.4-11.5c-0.1-1.1-0.1-2.2-0.1-3.3c0-32.7,0-65.4,0-98.2
		C637.2,812.5,637,812.5,636.8,812.5z"/>
	<path class="st0" d="M771.2,733.7c-19.6,0-39.2,0-58.8,0c-1.5,0-2.9,0.1-4.4-0.1c-3.1-0.4-5.2-2.4-5.3-5.7c-0.2-3.9-0.2-7.8,0-11.7
		c0.2-3.6,2.6-6,6-6.4c8.7-1,17.4-1.9,26.1-2.9c10.3-1.1,20.6-2.3,30.9-3.4c9.9-1.1,19.8-2.1,29.6-3.1c10.3-1.1,20.6-2.3,30.9-3.4
		c2.3-0.2,4.7-0.5,7-0.5c5.5-0.2,9.8,3.5,10.1,9.3c0.3,6.2,0.3,12.5,0,18.7c-0.3,4.9-4.4,8.8-9.1,9.2c-1.5,0.1-2.9,0.1-4.4,0.1
		C810.4,733.7,790.8,733.7,771.2,733.7z"/>
	<path class="st0" d="M68.2,42.4c1.4,0.8,2.5,1.3,3.4,2c5.6,4.2,11.3,8.3,16.7,12.8c11.6,9.8,22.5,20.4,32.5,32
		c0.8,1,2.1,2.8,1.8,3.3c-1.1,2.1-2.8,3.9-4.4,5.7c-0.2,0.2-0.9,0-1.2-0.1c-0.7-0.3-1.3-0.8-1.9-1.2C97.7,83.3,81.5,68.4,66.9,51.4
		c-0.6-0.7-1.2-1.4-1.7-2.2c-0.6-1-1.9-1.9-0.7-3.2C65.7,44.8,67,43.6,68.2,42.4z"/>
	<path class="st0" d="M50.6,199.9c-1.1-1.4-2.3-2.5-2.9-4c-0.3-0.8,0.3-2.1,0.6-3.2c0.1-0.4,0.6-0.7,0.9-1
		c12.5-13.1,26.5-24,42.1-32.5c3.3-1.8,4-1.5,5,2c0.3,0.9-0.1,2.4-0.7,3.2c-1.2,1.6-2.7,2.8-4.1,4.2c-11.5,10.8-23.7,20.7-36.9,29.1
		C53.4,198.5,52.2,199.1,50.6,199.9z"/>
	<path class="st0" d="M548,473.1c12.1,0.1,22-3.6,31.2-9.9c3.9-2.7,7.5-6,11.2-9c2-1.7,6.3-1.1,7.5,1.2c0.3,0.6-0.3,2-0.8,2.7
		c-4.6,6.3-9.9,11.9-16.1,16.4c-6.8,4.9-14.2,8.7-22.1,11.2c-1.6,0.5-3.4,0.6-5.1,0.3c-12.2-2.4-24.3-5-36.5-7.6
		c-3.5-0.7-6.8-0.4-10.2,1.1c-20.2,8.5-40.6,16.7-60.8,25.2c-7.1,3-14.4,4.3-21.8,4.2c-15.8-0.1-31.6-0.5-47.3-0.9
		c-1.3,0-2.9-0.6-3.9-1.5c-2.4-2.2-4.6-4.8-6.9-7.2c-0.4-0.4-0.5-1-0.7-1.6c0.5-0.1,1.1-0.3,1.6-0.2c4.2,0.4,8.4,1.2,12.6,1.3
		c14.8,0.4,29.5-1,44-4.3c5.4-1.2,6.6-3.9,4.5-9.5c-4.1-10.9-11.2-19.2-20-26c-2.8-2.1-5.8-2.9-9.1-1.8c-4.8,1.8-9.8,3.3-14.3,5.7
		c-9.4,4.9-18.8,10.1-27.9,15.7c-7.2,4.5-14.5,5.5-22.3,3.2c-12.1-3.5-23.9-8.2-35.1-14.2c-0.7-0.3-1.3-0.7-1.9-1.2
		c-0.9-0.6-1.2-1.4,0-2c3.7-1.9,7.1-3.5,11.6-1.7c6.2,2.6,12.8,4.1,19.3,5.8c6.1,1.6,12.2,1,18-1.8c9.4-4.6,18.7-9.5,28.2-14
		c8.8-4.2,17.7-8.1,26.7-11.9c3.5-1.5,7.3-2.1,11-3c3.3-0.8,5.4,0.6,7.3,3.5c8.7,13.5,17.6,26.8,26.5,40.2c0.6,0.9,1.3,1.7,1.9,2.6
		c0.9,1.3,1.9,1.6,3.4,1.1c21.3-7.5,42.3-15.9,57.9-34.3c8.9-10.4,17.8-20.7,26.1-31.6c7.8-10.2,17.6-15.6,29.7-16.5
		c10.5-0.7,21-1.3,31.5-1.7c2.1-0.1,4.3,0.5,6.4,0.8c-1,2-2.1,4-3.1,6c-1.7,3.6-4.2,4.8-8.1,4.8c-9.9-0.1-19.8,0.8-29.6,3.3
		c-5.9,1.5-10.9,4.3-14.6,9.5c-5.9,8.3-11.8,16.7-17.7,25c-2.3,3.2-4.5,6.5-6.8,9.8c-2,2.8-2,2.8,0.8,4.9
		C531.8,470.5,540,473.3,548,473.1z"/>
	<path class="st0" d="M332.1,337.3c-7.6,1.1-15.3,2-22.9,3.4c-2.8,0.5-5.6,2-8,3.7c-7.1,5.1-7.2,14.8-0.2,19.9
		c6.1,4.5,13.2,6.3,20.5,7.7c12.3,2.4,24.1-0.6,35.9-3.4c12.9-3.1,25.8-6.5,38.7-9.9c2-0.5,3-0.1,3.8,1.7c0.7,1.5,1.6,3,2.4,4.5
		c1.4,2.7,1.4,2.9-1.5,3.8c-9.5,3.2-18.8,6.7-28.5,9.2c-12.6,3.2-25.4,5.8-38.2,8.1c-8.3,1.5-16.7,0-24.6-3
		c-8.5-3.2-16.7-7.3-25.1-11c-2.7-1.2-5.4-2.5-8-3.8c-10.5-5.2-21.1-4.8-31.3,0.4c-6.1,3-11.8,6.8-17.6,10.5
		c-9.2,6-18.7,11-29.2,13.4c-6.6,1.5-13.3,2.1-19.9,0.2c-1.8-0.5-3.3-1.8-5-2.7c1.3-1.1,2.6-2.3,4-3.3c0.9-0.7,2-1.3,3-2
		c2.5-1.9,4.9-2.9,8-1.2c1.5,0.8,3.8,0.6,5.5,0.1c10.4-3,19.1-9.1,26.7-17.1c2.7-2.8,2.9-6.2,0.3-9.2c-8.7-9.9-18.9-16.2-32.3-13.6
		c-3.7,0.7-7.3,2-11,2.9c-1,0.2-2.2,0.8-2.9,0.4c-1.5-0.8-2.8-2.1-4.2-3.2c1-1,1.9-2.3,3.1-3.1c2.7-1.9,5.4-3.7,8.2-5.4
		c10.6-6.4,21.1-6.1,31.7,0.3c5.7,3.4,11.6,6.5,17.6,9.5c5.4,2.7,11.1,4.1,17,3.3c6.9-0.9,13.7,0.2,20.4,2.1
		c1.4,0.4,2.9,0.6,4.3,0.9c2.7,0.5,4.9-0.5,6.5-2.8c0.3-0.4,0.6-0.7,0.8-1.1c7.9-12.9,20-18.1,33.6-20.4c10.8-1.8,21.5-1.3,32.3,0.7
		c2.2,0.4,2,1.2,0.9,2.6c-0.1,0.1-0.2,0.3-0.2,0.4C341.8,337.9,341.8,337.9,332.1,337.3z"/>
	<path class="st0" d="M542.8,372.1c-0.2,1.2-0.3,2.1-0.6,3c-3.2,9.8-6.3,19.7-9.8,29.5c-1.6,4.6-4.4,8.4-7.7,11.8
		c-6.7,6.8-13.9,12.9-21.9,17.9c-11.2,7.1-22.5,13.9-33.8,20.8c-1.4,0.9-2.8,1.7-4.3,2.3c-1.3,0.6-3.5,1.7-3.9,1.2
		c-1.3-1.5-2.1-3.7-2.8-5.6c-0.2-0.5,0.4-1.5,0.8-1.9c0.9-0.8,2-1.3,2.9-2c11.5-8.3,23-16.5,34.4-25.1c10.4-7.9,18.7-17.9,24.2-30.2
		c0.8-1.7,1.1-3.7,1.6-5.5c-1.6,0.6-3.3,0.9-4.8,1.7c-18.3,9.7-36.6,19.4-54.9,29.1c-5,2.6-10.1,4.8-15.8,5.1
		c-6.7,0.3-11.5-2.7-14.9-8.7c-0.2-0.4-0.5-0.8-0.7-1.2c-3.6-8.2-9.9-11.9-18.1-12.5c-23.6-1.7-45.6,3.5-65.9,16.5
		c-2.5,1.6-4.3,1.9-6.7,0.4c-2.5-1.5-5.3-2.7-7.9-4c-0.5-0.3-0.9-0.7-1.4-1.1c0.5-0.5,0.9-1.1,1.5-1.4c6.4-2.9,12.9-6,19.4-8.7
		c12.5-5.2,25.2-10.1,38.4-12.9c8.4-1.8,17-2.9,25.5-4.4c3.6-0.6,7.3-1.1,10.7-2.2c2.8-0.9,3.8,0.2,5.1,2.5
		c2.1,3.7,4.3,7.5,7.1,10.6c5.9,6.5,12.9,8.8,21.1,5.3c4.9-2.1,9.8-4,14.6-6.3c19.4-9.3,38.8-18.7,58.3-28.1c2.9-1.4,8-0.2,9.8,2.4
		C542.6,370.7,542.6,371.6,542.8,372.1z"/>
	<path class="st0" d="M448.3,343.2c-12.6-1.4-25.4-2-37.8-4.2c-19.5-3.5-37.1,0.5-53.3,12.3c-2.1,1.6-7.8,1.5-9.8-0.2
		c-0.3-0.2-0.5-1.1-0.3-1.4c0.6-1.1,1.3-2,2.1-2.9c12.3-14,27.1-23,45.4-24.4c8.4-0.7,16.9-1.6,25.3-1.7c9.2-0.1,18.4,1.3,27.3,3.8
		c8.6,2.5,17.1,2.2,25.5-0.4c7.8-2.4,15.5-5.2,23.3-8c2.9-1.1,3-1.3,3.7,2.1c2.2,9.3,3,6.9-4.5,11.1c-11.2,6.2-22.8,11.3-35.4,13
		c-3.8,0.5-7.6,0.5-11.3,0.7C448.4,342.9,448.3,343,448.3,343.2z"/>
	<path class="st0" d="M436,358c6.1,0.4,12.2,1.1,18.4,1.1c6.7-0.1,13.4-0.4,20-1.5c7.5-1.3,13.8-5.6,19.4-11.1c4.8-4.8,10.4-8,17-9
		c7.8-1.3,15.5-0.5,23,1.3c4.7,1.1,9.2,2.9,13.9,4.3c2,0.6,2.9,1.9,2.6,4.1c-0.4,2.6-0.6,5.2-0.9,7.8c-2.2-0.7-4.3-1.3-6.5-2
		c-6.2-2-12.5-3-19-2.8c-5.6,0.2-10.6,2-14.8,6.1c-4.9,4.8-10.3,8.6-16.3,11.7c-7.7,3.9-15.7,5.7-24.1,6.3
		c-11.6,0.7-23-0.4-34.4-2.8c-2.4-0.5-3.9-1.7-4.3-4.4c-0.3-1.7-0.8-3.3-1.2-5c-0.9-3.7-0.8-3.9,2.9-4
		C433.1,357.9,434.6,358,436,358z"/>
	<path class="st0" d="M310.2,255.4c-0.3,1-0.7,2.9-1.4,4.8c-2.3,6.1-5.9,11.4-9.9,16.4c-6.1,7.6-13,14.2-20.5,20.2
		c-2.5,2-2.8,1.9-4.7-0.1c-2.1-2.2,0-3.2,1-4.5c5-6.6,10.3-13.1,15.1-19.9c3.9-5.6,7-11.8,8.5-18.8c0.3-1.2,0.9-2.3,1.6-3.3
		c1.6-2.2,4.3-2.9,6.7-2C309.2,249.3,310.3,251,310.2,255.4z"/>
	<path class="st0" d="M378.1,58.7c4.5-0.1,8.1,3.6,8.2,8.4c0.1,4.7-3.6,8.7-7.9,8.8c-4.3,0.1-8.1-3.8-8.2-8.5
		C370.1,62.6,373.6,58.8,378.1,58.7z"/>
	<path class="st0" d="M359.2,173.5c4.6,0,8.1,3.7,7.9,8.5c-0.1,4.6-3.9,8.4-8.3,8.3c-4.2-0.1-7.6-3.8-7.7-8.4
		C351.1,176.9,354.4,173.4,359.2,173.5z"/>
	<path class="st0" d="M514.9,94.6c-5.5,0.1-9.5-3.9-9.7-9.7c-0.2-5.9,4-10.4,9.5-10.4s10.1,4.5,10.2,10
		C524.9,90,520.5,94.6,514.9,94.6z"/>
	<path class="st0" d="M244.5,40.6c-0.5,1.3-0.8,2.2-1.2,3c-9.5,19.9-22,37.3-37.3,52.6c-1.7,1.7-2.9,1.9-4.7,0.1
		c-2.6-2.7-2.9-2.7-1.2-5.3c11.2-17.8,23.2-35.1,37.1-50.7c0.6-0.7,1.2-1.5,1.9-1.9c0.8-0.4,1.9-0.7,2.6-0.3
		C242.8,38.6,243.6,39.7,244.5,40.6z"/>
</g>
</svg>
