<?xml version="1.0" encoding="utf-8"?>
<!-- Generator: Adobe Illustrator 22.0.1, SVG Export Plug-In . SVG Version: 6.00 Build 0)  -->
<svg version="1.1" id="Layer_1" xmlns="http://www.w3.org/2000/svg" xmlns:xlink="http://www.w3.org/1999/xlink" x="0px" y="0px"
	 viewBox="0 0 1920 1080" style="enable-background:new 0 0 1920 1080;" xml:space="preserve">
<style type="text/css">
	.st0{fill:#FFFFFF;}
</style>
<g>
	<path class="st0" d="M1347,791c1.1-2.3,1.8-3.6,2.5-5c43.5-80.5,87.1-161,130.6-241.5c1.4-2.6,2.7-4.2,6-4.2
		c62.7,0.2,125.5,0.1,188.2,0.2c5.7,0,11.4,0.4,17,2.2c16.5,5.3,24.1,19.3,19.6,37c-1.2,4.9-3.2,9.8-5.6,14.2
		c-25.8,48-51.7,95.9-77.7,143.7c-3.4,6.1-7.6,11.9-12.3,17c-17.3,18.8-38.1,30.9-62.6,35.3c-4.6,0.8-9.3,1.1-14,1.1
		c-62.1,0.1-124.3,0.1-186.4,0.1C1350.8,791,1349.4,791,1347,791z M1457.8,722.7c1.2,0.2,1.6,0.3,2,0.3c29.6,0,59.2,0.1,88.8-0.1
		c8.8-0.1,15.8-4.6,20.2-12.7c15.6-28.6,31.1-57.3,46.6-86c0.9-1.7,1.7-3.6,2.2-5.6c1.1-4.3-0.7-7.8-4.7-9.2c-1.9-0.6-4-0.8-6-0.8
		c-27.8-0.1-55.7,0-83.5-0.1c-3.1,0-4.7,1.1-6.2,3.8c-19,35.3-38.1,70.6-57.2,105.9C1459.2,719.5,1458.7,720.9,1457.8,722.7z"/>
	<path class="st0" d="M964.1,518.8c45.5-84.1,90.5-167.2,135.5-250.5c1.6,0,3.1,0,4.6,0c62,0,124,0,186,0c6.8,0,13.5,0.4,19.9,2.8
		c9.1,3.4,15.8,9.4,18.4,19.7c1.6,6.5,1,13.1-1.1,19.4c-1.4,4.2-3.1,8.4-5.2,12.3c-25.5,47.4-51.2,94.7-76.8,142.1
		c-3.8,7-8.3,13.3-13.6,18.9c-17.8,18.5-38.8,30.5-63.5,34.6c-3.5,0.6-7,0.7-10.5,0.7c-62.9,0-125.7,0.1-188.6,0.1
		C967.8,518.8,966.5,518.8,964.1,518.8z M1074.5,450.9c6.8,0,12.5,0,18.2,0c23.9,0,47.8,0,71.6,0c9.3,0,16.9-4.2,21.6-12.8
		c15.7-28.7,31.2-57.5,46.8-86.4c0.8-1.5,1.5-3.1,1.9-4.7c1.3-5.6-1.3-9.6-6.6-10.4c-1.4-0.2-2.9-0.2-4.4-0.2c-27.7,0-55.4,0-83.1,0
		c-1.3,0-2.6,0-4.1,0C1115.9,374.4,1095.4,412.2,1074.5,450.9z"/>
	<path class="st0" d="M684.6,541.8c-1.3,1-2.6,1.9-3.9,2.9c-28.8,20.3-57.7,40.7-86.5,61.1c-2.8,2-5.5,2.9-8.9,2.9
		c-35.9-0.1-71.8,0.1-107.7-0.2c-10.9-0.1-19.4,4.5-26,13.1c-3.7,4.9-6.4,10.7-10.1,17.1c2.7,0,4.4,0,6,0c37.5,0,75-0.1,112.5,0.1
		c5.1,0,10.3,0.5,15.2,1.7c18,4.4,26.3,19.8,21.1,38.7c-1.3,4.7-3.3,9.4-5.5,13.7c-7.8,14.8-15.7,29.6-24,44.2
		c-3.3,5.8-7.2,11.5-11.6,16.4c-17.8,19.7-39.4,32.1-64.9,36.5c-4,0.7-8.2,0.8-12.3,0.8c-66.5,0-133.1,0-199.6,0
		c-1.4,0-2.8-0.1-5.2-0.3c1.9-1.5,2.9-2.3,3.9-3c29.4-20.8,58.9-41.6,88.3-62.4c2.3-1.7,4.7-2.2,7.4-2.2c37.7,0.1,75.3,0,113,0.1
		c10.7,0,18.6-4.6,23.8-14.6c2.8-5.3,5.7-10.5,9-16.5c-2.3-0.1-4-0.3-5.6-0.3c-23.6,0-47.2,0-70.8,0c-14.2,0-28.4,0-42.6,0
		c-7.7,0-15.2-0.7-22.3-4.3c-9.2-4.7-14.9-12.3-15.4-23.2c-0.2-4.7,0.6-9.7,1.8-14.3c1.3-4.6,3.4-9,5.6-13.2
		c6.6-12.5,13.7-24.8,20.1-37.4c9.4-18.4,23.1-32.1,39.9-42.5c17.2-10.7,35.5-16.2,55.6-16.1c64.8,0.3,129.5,0.2,194.3,0.2
		c1.7,0,3.4,0,5.2,0C684.4,541,684.5,541.4,684.6,541.8z"/>
	<path class="st0" d="M320.5,370.5c-0.8,1.4-1.7,2.9-2.5,4.3c-25.2,46.5-50.4,93-75.5,139.6c-1.8,3.3-3.7,4.4-7.2,4.4
		c-21.1-0.2-42.2-0.1-63.3-0.1c-1.6,0-3.1,0-5.6,0c45.5-84,90.5-167.1,135.5-250.3c22.8,0,45.5,0,68.7,0
		c8.7,51.9,17.4,103.7,26.3,156.7c1.4-2.4,2.3-3.8,3.1-5.2c26.5-49,53.1-97.9,79.4-147c2-3.7,4.1-4.8,7.9-4.7
		c21,0.2,41.9,0.1,62.9,0.1c1.6,0,3.1,0,5.3,0c-1,2-1.6,3.4-2.3,4.7c-43.6,80.6-87.3,161.2-130.9,241.9c-1.5,2.7-3,4-6.1,4
		c-21.8-0.2-43.7-0.1-65.5-0.1c-1.3,0-2.6-0.1-4.3-0.2c-8.3-49.4-16.5-98.6-24.8-147.9C321.2,370.6,320.8,370.6,320.5,370.5z"/>
	<path class="st0" d="M1074.6,639.5c-1.2,0.9-2.3,1.8-3.5,2.6c-22,15.5-44,31-65.9,46.7c-2.4,1.7-4.9,2.4-7.8,2.4
		c-16.3-0.1-32.5,0-48.8-0.1c-2.9,0-4.5,1-5.8,3.7c-4.2,8.2-8.7,16.3-13.1,24.4c-0.5,0.9-0.9,1.9-1.3,2.7c0.1,0.4,0.1,0.6,0.2,0.7
		c0.1,0.1,0.2,0.2,0.4,0.2c0.3,0.1,0.6,0.1,0.9,0.1c57.9,0.1,115.8,0.1,173.7,0.1c0.1,0,0.3,0.1,0.9,0.2c-0.4,1.1-0.7,2.3-1.3,3.3
		c-11,20.4-22.1,40.8-33.1,61.3c-1.3,2.3-2.7,3.2-5.2,3.2c-13.2-0.1-26.4-0.1-39.6-0.1c-67.6,0-135.1,0-202.7,0c-1.7,0-3.5,0-6,0
		c1-2.1,1.7-3.6,2.5-5c24.9-46,49.8-92,74.6-138c18.6-34.4,37.2-68.7,55.7-103.1c1.9-3.5,3.9-4.6,7.6-4.6
		c84.3,0.1,168.5,0.1,252.8,0.1c1.5,0,3.1,0,4.6,0c0,0.3,0.1,0.6,0.1,0.9c-1.2,0.9-2.3,1.8-3.5,2.6c-29.2,20.6-58.4,41.2-87.6,61.9
		c-2.5,1.8-5,2.7-8.1,2.7c-40-0.1-80-0.1-120-0.1c-1.8,0-3.5,0-5.7,0c-5.3,9.7-10.6,19.5-16.3,30c34.2,0,67.5,0,100.8,0
		C1074.4,638.8,1074.5,639.2,1074.6,639.5z"/>
	<path class="st0" d="M1193.4,722.9c59.1,0,117.6,0,176.8,0c-0.9,2-1.5,3.3-2.2,4.6c-10.7,19.8-21.4,39.5-32,59.3
		c-1.7,3.1-3.5,4.3-6.9,4.2c-54.1-0.1-108.2-0.1-162.2-0.1c-26.4,0-52.8,0-79.1,0c-1.6,0-3.2,0-4.9,0c-0.5-2.4,0.9-3.8,1.8-5.3
		c16.4-30.3,32.8-60.6,49.2-90.9c27-49.9,54-99.8,80.9-149.8c1.8-3.4,3.8-4.7,7.5-4.7c84.3,0.1,168.5,0.1,252.8,0.1
		c1.5,0,3.1,0.1,4.8,1c-1.2,0.9-2.3,1.8-3.5,2.7c-29.3,20.7-58.6,41.4-87.9,62.2c-2.3,1.6-4.6,2.3-7.4,2.3c-40.2-0.1-80.3,0-120.5,0
		c-1.8,0-3.5,0-5.6,0c-5.3,9.7-10.5,19.4-16.2,29.9c5.3,0.4,10,0.2,14.7,0.2c4.7,0,9.4,0,14.1,0c4.8,0,9.7,0,14.5,0
		c4.8,0,9.7,0,14.5,0s9.7,0,14.5,0c4.7,0,9.4,0,14.1,0c4.8,0,9.6,0,15.4,0c-1.5,1.4-2.1,2.1-2.9,2.7c-22.7,16.1-45.4,32.1-68.1,48.2
		c-2,1.4-4,1.7-6.2,1.7c-16.4,0-32.8,0.1-49.2-0.1c-2.8,0-4.5,0.7-5.9,3.5c-4.2,8.2-8.7,16.3-13,24.4
		C1194.6,720.1,1194.1,721.2,1193.4,722.9z"/>
	<path class="st0" d="M569,268.4c87.7,0,175.1,0,263.1,0c-1,1-1.6,1.8-2.3,2.4c-30.2,21.3-60.3,42.6-90.5,64
		c-2.1,1.5-4.3,1.7-6.6,1.7c-40.3,0-80.6,0-120.9-0.1c-3.7,0-5.8,1-7.6,4.5c-3.5,7.1-7.4,13.8-11.1,20.7c-0.7,1.3-1.4,2.7-2.4,4.8
		c6,0.3,11.5,0.1,16.9,0.2c5.6,0,11.1,0,16.7,0c5.7,0,11.4,0,17.1,0c5.6,0,11.1,0,16.7,0s11.1,0,16.7,0c5.5,0,11,0,16.5,0
		c0.1,0.3,0.1,0.5,0.2,0.8c-0.9,0.7-1.7,1.5-2.6,2.1c-22.5,15.9-44.9,31.7-67.4,47.7c-1.9,1.4-3.8,1.9-6.1,1.9
		c-16.4-0.1-32.8,0.1-49.2-0.1c-3.2,0-5,1.1-6.5,4.1c-4,7.8-8.2,15.5-12.4,23.2c-0.6,1.2-1.2,2.5-2.1,4.4c6.2,0.5,11.9,0.2,17.7,0.2
		c5.9,0.1,11.7,0,17.6,0c5.9,0,11.7,0,17.6,0s11.7,0,17.6,0c6,0,12,0,18,0c5.9,0,11.7,0,17.6,0c5.9,0,11.7,0,17.6,0
		c5.9,0,11.7,0,17.6,0c5.9,0,11.7,0,17.6,0c5.8,0,11.6,0,18.3,0c-12.5,23.1-24.5,45.3-36.6,67.7c-83.8,0-167.4,0-251.9,0
		C478.9,434.8,524,351.6,569,268.4z"/>
	<path class="st0" d="M699.1,518.6c1-2,1.6-3.3,2.4-4.7c43.5-80.5,87.1-161,130.6-241.6c1.6-2.9,3.2-4.1,6.5-4.1
		c84.7,0.1,169.4,0.1,254.2,0.1c1.3,0,2.6,0,4.9,0c-1.5,1.4-2.3,2.2-3.2,2.8c-29.9,21.2-59.9,42.3-89.7,63.5
		c-2.1,1.5-4.2,1.9-6.6,1.9c-40.2,0-80.3,0-120.5,0c-1.8,0-3.5,0-5.7,0c-5.3,9.8-10.6,19.5-16.3,30c34.2,0,67.5,0,101.9,0
		c-1.6,1.4-2.3,2.3-3.2,2.9c-22.6,16-45.2,31.9-67.8,47.9c-1.9,1.4-3.9,1.8-6.2,1.8c-16.1-0.1-32.2,0-48.4,0c-1.6,0-3.2,0-5,0
		c-5.6,10.4-11.1,20.6-17,31.6c59.4,0,117.9,0,177,0c-0.7,1.7-1.1,2.9-1.7,3.9c-10.9,20.2-21.8,40.3-32.7,60.5
		c-1.4,2.6-2.9,3.7-5.8,3.7c-81.2-0.1-162.4-0.1-243.6,0C702.2,518.8,701,518.7,699.1,518.6z"/>
	<path class="st0" d="M664.9,717.4c-13.3,24.6-26.7,49.1-40,73.7c-24.4,0-48.6,0-73.5,0c1-2,1.7-3.6,2.6-5.1
		c30.3-56,60.7-112,91-167.9c13.3-24.6,26.7-49.2,39.9-73.9c1.4-2.7,3-3.6,5.9-3.6c63.2,0.1,126.3,0.1,189.5,0.2
		c6.3,0,12.6,0.8,18.5,3.2c13.3,5.6,19.7,18,17,33c-1.1,6.1-3.2,11.7-6.1,17c-12.6,23.4-25.3,46.8-38,70.2
		c-3.7,6.8-8.3,12.9-13.6,18.3c-18.1,18.4-39.2,30.5-64.1,34.3c-3.6,0.6-7.3,0.6-11,0.6c-37.7,0-75.3,0-113,0
		C668.4,717.4,666.8,717.4,664.9,717.4z M702,649.4c2.2,0,3.7,0,5.3,0c24.9,0,49.8,0,74.7,0c3.2,0,6.4,0.1,9.7,0
		c9.5-0.3,16.8-4.7,21.6-13.6c2.1-3.9,4.3-7.8,6.3-11.8c0.8-1.6,1.6-3.3,2.1-5.1c1.1-4.5-0.7-8.1-4.9-9.5c-1.9-0.6-4-0.8-6.1-0.8
		c-27.7,0-55.4,0-83-0.1c-2.8,0-4.5,0.7-5.9,3.5c-5.7,11.1-11.8,22-17.6,32.9C703.5,646.1,703,647.4,702,649.4z"/>
	<path class="st0" d="M1435.4,427.5c-1,0.8-2.1,1.6-3.1,2.4c-12.5,8.8-24.9,17.6-37.4,26.4c-2.2,1.6-4.4,2.2-7,2.2
		c-11.1-0.1-22.3,0-33.4,0c-1.6,0-3.2,0-5,0c-10.9,20.2-21.7,40.1-32.5,60.1c-14.9,0-29.7,0-44.9,0c1-2,1.6-3.5,2.4-4.9
		c25.7-47.5,51.4-95,77-142.5c1.7-3.1,3.4-4.3,6.9-4.3c89.1,0.1,178.2,0.1,267.3,0.1c3.9,0,8,0.4,11.7,1.5
		c10.1,2.9,14.7,11.7,11.9,22.4c-0.8,3.3-2.2,6.5-3.8,9.4c-15.4,28.6-30.4,57.4-46.5,85.5c-11.9,20.9-30.2,32.2-53.2,32.8
		c-25.9,0.7-51.9,0.3-77.8,0.1c-3.9,0-7.9-0.7-11.6-2.1c-7.8-3-11.4-10.2-10.1-19c0.6-4.6,2.5-8.6,4.6-12.6
		c18.7-34.5,37.3-69,56-103.5c0.9-1.7,1.8-3.4,2.2-5.7c-1.2,0.8-2.4,1.5-3.6,2.3c-12.8,9.1-25.7,18-38.4,27.3c-2.8,2-5.6,2.8-9,2.8
		c-25.6-0.1-51.3,0-76.9-0.2c-3.5,0-5.3,1.1-6.8,4.3c-2.1,4.6-4.7,8.9-7.4,14c23.2,0,45.7,0,68.1,0
		C1435.2,426.7,1435.3,427.1,1435.4,427.5z M1530,477.5c6.6,0,13.2,0,19.8,0c6.3,0,10.9-3,14-8.8c9-16.7,18-33.3,27-49.9
		c4-7.4,2.2-10.7-5.8-10.7c-11.6,0-23.2,0.2-34.7-0.1c-8.9-0.2-15.1,4-19.4,12c-8.3,15.3-16.5,30.6-24.8,45.9
		c-0.3,0.5-0.6,1.1-0.9,1.6c-3.1,6.4-1.2,9.9,5.5,10C1517.1,477.6,1523.6,477.5,1530,477.5z"/>
	<path class="st0" d="M1763.6,453.7c0.9,0.3,1.9,0.7,2.8,1c7,2.3,8.8,6.1,6.4,13.5c-0.5,1.6-1.1,3.2-1.9,4.7
		c-7.7,14.5-15.5,29-23.3,43.6c-0.8,1.5-1.8,2.3-3.5,2.3c-13.6-0.1-27.3-0.1-40.9-0.1c-0.3,0-0.5-0.2-1.3-0.6
		c7.8-14.3,15.5-28.6,23.2-42.9c-3.3-1.2-48.1-1.6-58.7-0.6c-3.9,7.2-8,14.6-12,22.1c-4,7.3-7.9,14.6-11.8,21.9
		c-14.8,0-29.4,0-44.5,0c0.9-1.8,1.5-3.2,2.2-4.5c25.8-47.6,51.6-95.2,77.3-142.9c1.8-3.3,3.7-4.4,7.2-4.4
		c35.2,0.1,70.3,0,105.5,0.2c4.2,0,8.6,0.4,12.6,1.7c9.5,2.9,13.8,11.3,11.4,21.5c-0.7,3-1.7,6-3.2,8.7c-4.9,9.4-10.1,18.7-15.2,28
		c-1.4,2.6-3,5-4.7,7.4C1784.4,444.2,1775.5,451.1,1763.6,453.7z M1689,432.9c17.8,0,34.6,0.2,51.4-0.1c5.1-0.1,9.2-3,11.8-7.8
		c1.1-2,2.1-4.1,3.3-6.1c4.7-7.5,1.2-11.1-6.1-10.9c-12.6,0.3-25.2,0.1-37.8,0.1c-3,0-6.7-0.8-9,0.6c-2.3,1.4-3.5,5.2-5,8
		C1695,421.9,1692.2,427,1689,432.9z"/>
	<path class="st0" d="M1698.6,790.9c4.5-8.4,8.7-16.3,12.9-24.2c-0.2-0.2-0.4-0.4-0.6-0.5c-0.8,0.7-1.6,1.4-2.4,2.2
		c-6.2,6.9-12.4,13.7-18.5,20.6c-1.5,1.7-3.1,2.9-5.8,1.6c1.4-8.3,2.9-16.7,4.3-25.1c-0.3-0.1-0.5-0.2-0.8-0.3
		c-1.8,3.3-3.7,6.7-5.5,10c-2.2,4.1-4.6,8-6.5,12.2c-1.6,3.3-3.6,4.7-7.4,3.4c0.6-1.2,1-2.5,1.6-3.6c4.8-8.9,9.8-17.8,14.3-26.9
		c1.6-3.2,3.6-4.6,6.9-4.1c1.2,0.2,2.5,0.2,4.1,0.4c-1.4,8-2.6,15.7-4.1,24.1c1.2-1,2-1.4,2.6-2.1c5.3-5.8,10.8-11.5,15.7-17.7
		c3.5-4.4,7.4-5.6,13-4.1c-6,11.6-12.3,22.9-18.3,34.2C1702.4,790.9,1700.8,790.9,1698.6,790.9z"/>
	<path class="st0" d="M1648.9,761.5c1.9-5.3,1.9-5.3,5.7-5.3c7.5,0,14.9,0,22.4,0c1,0,2,0.2,3,0.3c-1.4,4.8-1.5,5.2-5.5,4.7
		c-4.6-0.5-7.5,1.2-10,5.4c-4.3,7.2-9.4,13.9-13.9,21.1c-1.9,3-4,4.3-7.9,3c6.4-9.6,12.7-19,19.4-29.1
		C1657.4,761.5,1653.4,761.5,1648.9,761.5z"/>
</g>
</svg>
