<?xml version="1.0" encoding="utf-8"?>
<!-- Generator: Adobe Illustrator 24.3.0, SVG Export Plug-In . SVG Version: 6.00 Build 0)  -->
<svg version="1.1" id="Layer_1" xmlns="http://www.w3.org/2000/svg" xmlns:xlink="http://www.w3.org/1999/xlink" x="0px" y="0px"
	 viewBox="0 0 775.2 700.5" style="enable-background:new 0 0 775.2 700.5;" xml:space="preserve">
<style type="text/css">
	.st0{fill:#FFFFFF;}
</style>
<g>
	<path class="st0" d="M382.4,0.1c1,0,1.9,0,2.9-0.1c57.5-0.8,115.2,13.6,166.3,41.9c62.5,34.6,114.3,89.8,146.5,156.6
		c7.6,15.7,14,32,19.3,48.7c1.1,3.4,2.4,6.7,3.6,10.2c8.7,1.3,16.7,2.6,24.8,3.8c21.5,3.2,26.3,9,27.2,31.9
		c0.4,11.3,1.4,22.6,2.2,33.9c0,17.4,0,34.9,0,52.3c-0.8,9.5-1.9,19-2.4,28.5c-1.4,25.5-6.8,31.6-30.8,34.8
		c-7.2,1-14.3,2.2-20.1,3.1C666,604.1,560.1,694.1,403.4,700.1C231.8,706.7,115,616.2,52.7,443.9c-8.7-1.7-18.8-3.6-28.9-5.5
		c-11.2-2.1-17.4-9.5-18.9-21.2c-1-7.7-1.5-15.5-2-23.3c-1-16.8-1.9-33.6-2.9-50.4c0-6.4,0-12.9,0-19.3c0.9-9.9,1.8-19.8,2.6-29.8
		c1.8-22,8.2-29.9,28.1-34.9c8.3-2.1,16.7-3.8,25-5.7c1.1-2.6,2-4.7,2.7-6.8c22.7-67.5,60.9-128.5,115.2-171.6
		C233,28.3,308.6,1.8,382.4,0.1z M624.7,459.2c-79.2,1.8-158.3,5.2-237.4,4.8s-158.2-4.6-237.9-7.2
		c39.8,97.6,139.9,161.9,245.9,159.1C494.9,613.2,594.2,545.2,624.7,459.2z M152.9,241.8c157.7-8,315.1-8.4,473,4.7
		c-28.4-76.6-119-164.6-246.2-160C280.5,90.2,171.3,164.5,152.9,241.8z M569.4,301.9c0,28.7,0,57.2,0,86c8,0,15.4,0,24.2,0
		c0-18.7,0-36.2,0-53.8c0.7-0.1,1.4-0.2,2.1-0.4c9.9,18.5,19.8,37,29.2,54.4c14.1,0,26.4,0,38.8,0c0-29.2,0-57.5,0-85.6
		c-8.3,0-15.8,0-24.3,0c0,18.8,0,36.5,0,54.1c-0.7,0.2-1.4,0.3-2.1,0.5c-8.4-18.3-16.9-36.6-25.5-55.2
		C597.8,301.9,584.1,301.9,569.4,301.9z M203.6,388.2c0-29.1,0-57.3,0-85.9c-6.9,0-13,0-20.8,0c0,19.2,0,37.4,0,55.6
		c-0.7,0-1.4,0.1-2.1,0.1c-9.4-18.9-18.8-37.9-27.6-55.8c-14.8,0-27.9,0-41.3,0c0,29.1,0,57.3,0,86c8,0,15.1,0,24.1,0
		c0-18.1,0-35.4,0-52.7c0.8-0.1,1.6-0.2,2.4-0.3c9.4,17.9,18.8,35.7,27.9,52.9C179.4,388.2,191.3,388.2,203.6,388.2z M348.1,301.6
		c-20.2,0-39.1-0.8-57.9,0.3c-14,0.8-22.7,14.2-21.8,30.4c0.9,15.4,9.2,23.8,24.3,24.1c9.9,0.2,19.8,0,29.7,0.1
		c2.9,0,5.8,0.8,9.3,1.3c-0.5,3.7-0.9,6.6-1.5,10.6c-20.3,0-39.9,0-59.7,0c0,7.4,0,13.4,0,20.6c21.6,0,42.2,0.2,62.7-0.1
		c14.3-0.2,21.6-9.1,21.8-26c0.2-16.5-7.3-25.6-21.8-25.9c-12.4-0.3-24.8-0.1-37.6-0.1c0-5,0-8.7,0-13.7c18,0,35,0,52.5,0
		C348.1,315.8,348.1,309.6,348.1,301.6z M443.6,301.7c-20.5,0-39.8-0.9-59,0.3c-13.3,0.8-21.8,14.3-21.1,29.7
		c0.7,15.3,9.2,24.3,23.9,24.6c11.6,0.3,23.2,0.1,34.8,0.3c1.2,0,2.4,0.8,4.5,1.5c-0.5,3.2-1,6.4-1.7,10.6c-20.7,0-40.3,0-59.9,0
		c0,7.1,0,12.9,0,20.2c21.2,0,41.7,0.1,62.3,0c15.2-0.1,22.6-9.1,22.6-26.6c0-16.3-7.6-25.1-22.4-25.3c-12.3-0.2-24.7,0-37.2,0
		c0-5.3,0-8.7,0-13.9c18.1,0,35.4,0,53,0C443.6,315.5,443.6,309.6,443.6,301.7z M535,387.7c9.1,0,16.8,0,25.6,0
		c-13.4-29.6-26.1-57.7-38.8-85.7c-11.4,0-22,0-33.2,0c-12,28.5-23.8,56.8-36.3,86.4c9.5,0,17.1,0,25.1,0c2.5-4.7,4.9-9.4,7.3-14.1
		c14.5,0,28.5,0,42.5,0C530.1,379.1,532.6,383.3,535,387.7z M251.4,302.3c-9.7,0-18.4,0-27.6,0c0,29.1,0,57.1,0,85.8
		c9.5,0,18.3,0,27.6,0C251.4,359.3,251.4,331.6,251.4,302.3z"/>
	<path class="st0" d="M518.1,350.5c-8.8,0-15.4,0-23.7,0c3.7-8.4,6.9-15.6,11.4-25.7C510.3,334.1,513.7,341.3,518.1,350.5z"/>
</g>
</svg>
