<?xml version="1.0" encoding="utf-8"?>
<!-- Generator: Adobe Illustrator 24.3.0, SVG Export Plug-In . SVG Version: 6.00 Build 0)  -->
<svg version="1.1" id="Layer_1" xmlns="http://www.w3.org/2000/svg" xmlns:xlink="http://www.w3.org/1999/xlink" x="0px" y="0px"
	 viewBox="0 0 1105.2 523.2" style="enable-background:new 0 0 1105.2 523.2;" xml:space="preserve">
<style type="text/css">
	.st0{fill:#FFFFFF;}
</style>
<g>
	<path d="M293.2,179.2c0.8,1.7,1.9,2.2,4,2.1C295.9,180.6,294.5,179.9,293.2,179.2z M473,111.6c0,0.6,0,1.2,0,1.8
		C473,112.8,473,112.2,473,111.6c0-1.6,0.1-3.2,0.1-4.7C473,108.4,473,110,473,111.6z"/>
	<path class="st0" d="M473,111.6c0,0.6,0,1.2,0,1.8C473,112.8,473,112.2,473,111.6c0-1.6,0.1-3.2,0.1-4.7
		C473,108.4,473,110,473,111.6z M196.6,353.4c-0.9-1.2-1.8-2.5-2.8-3.6c-0.5-0.6-1.3-1-2-1.5c0,1-0.3,2.1-0.1,3
		c1.2,3.8,2.5,7.6,3.7,11.4c2.7,0,5.4-0.1,8.2-0.3C201.3,359.4,199,356.4,196.6,353.4z"/>
	<path class="st0" d="M487.9,307.9c-0.6-1.1-1.6-2.1-1.9-3.3c-6.2-24.5-12.2-48.9-18.4-73.4c-0.8-3.1,0.1-4.1,2.9-4
		c1.7,0,3.4-0.2,6-0.3c5.4-1.4,6.9,1.8,7.2,8.1c1.2,23,2.9,46.1,4.5,69.1C488.2,305.3,488,306.6,487.9,307.9z"/>
	<path class="st0" d="M577.6,235.3c-1.9,23.2-3.7,46.4-5.6,69.6c-0.1,0.7-0.2,1.4-0.4,2c-0.1,0.3-0.2,0.6-0.3,0.9
		c-0.1,0.2-0.1,0.4-0.2,0.6c-0.1,0.2-0.1,0.4-0.2,0.5c-0.1,0.4-0.3,0.9-0.4,1.3c-0.1-0.3-0.2-0.7-0.2-1c-0.1-0.3-0.2-0.7-0.2-1
		c0-0.1-0.1-0.3-0.1-0.4c-0.2-1-0.5-2-0.5-3.1c-1.7-23.9-3.3-47.8-5-71.7c-0.3-4.5,0.2-7.8,5-6.7
		C578.4,226.6,578.3,226.5,577.6,235.3z"/>
	<g>
		<path class="st0" d="M193.9,232.6c-1.5,15.1-10.5,23.8-22.3,30.4c-3.2,1.8-4.5,0.7-5.3-2.7c-8.3-31.6-16.6-63.1-25.1-94.6
			c-1.1-4.2,0.7-5,3.9-5.6c23.3-4.1,44.9,12.5,48.7,37.6c0.9,6,1.2,12,1.8,18.1C194.9,221.4,194.4,227,193.9,232.6z"/>
		<path class="st0" d="M203.6,362.4c-2.8,0.2-5.5,0.3-8.2,0.3c-1.2-3.8-2.5-7.6-3.7-11.4c-0.3-0.9,0-2,0.1-3c0.7,0.5,1.5,0.9,2,1.5
			c1,1.1,1.9,2.4,2.8,3.6C199,356.4,201.3,359.4,203.6,362.4z"/>
		<path class="st0" d="M297.2,181.3c-2.1,0.2-3.2-0.4-4-2.1C294.5,179.9,295.9,180.6,297.2,181.3z"/>
		<path class="st0" d="M488.1,304.1c0.1,1.3-0.1,2.6-0.2,3.8c-0.6-1.1-1.6-2.1-1.9-3.3c-6.2-24.5-12.2-48.9-18.4-73.4
			c-0.8-3.1,0.1-4.1,2.9-4c1.7,0,3.4-0.2,6-0.3c5.4-1.4,6.9,1.8,7.2,8.1C484.9,258,486.6,281,488.1,304.1z"/>
		<path class="st0" d="M577.6,235.3c-1.9,23.2-3.7,46.4-5.6,69.6c-0.1,0.7-0.2,1.4-0.4,2c-0.1,0.3-0.2,0.6-0.3,0.9l0,0
			c-0.4,0-0.9,0-1.3,0c-0.2-1-0.5-2-0.5-3.1c-1.7-23.9-3.3-47.8-5-71.7c-0.3-4.5,0.2-7.8,5-6.7C578.4,226.6,578.3,226.5,577.6,235.3
			z"/>
		<path class="st0" d="M604.8,93c-13.7,21.3-15.1,46.3-18.5,70.6c-0.7,4.6-1.9,5.9-6.2,6c-17,0.4-17,0.5-17-17.3v-6.7
			c-0.4,0-0.8-0.1-1.1-0.1c1.6-14,3-28,4.7-42c1-8.3,6.1-13.3,13.2-14.3c7.6-1.1,15.4-0.2,23.1,0.1C603.7,89.3,605.2,92.4,604.8,93z
			"/>
		<path class="st0" d="M1102.5,243.2c-43.6-38.3-91.8-51.6-146.1-30.1c-4.6,1.8-5.9,0.7-7.7-3.6c-10.4-24.4-27.8-40.9-52.3-46.6
			c-35-8.2-67.8-1.5-97.6,20.2c-1.4,1-2.8,1.8-4.3,2.7c0.2-1.9,0.4-3.8,0.7-5.6c0.1-0.4,0.3-0.8,0.4-1.3c12.7-40,25.4-80,38.2-119.9
			c1.2-3.8,2.3-6.5-3.5-4.9c-29.3,8.5-59.2,7.9-89.2,7.4c-4-0.1-7.3,0.1-8.2-5.7c-0.3-1.9-3.2-4.1-5.3-4.7
			c-12.5-3.9-25-8.1-37.8-10.9c-12.6-2.8-25.5-3.1-38.3,0.5c-5.6,1.6-11.2,3-16.9,4.5c-0.9-6.2-2.4-12.4-2.5-18.6
			c-0.1-6.5-3.1-9.7-8-12.2c-29.1-15.3-59.3-19-90.2-8.3c-26.2,9.1-44.9,27.3-54.7,55.6c-3.2,9.2-4.7,18.4-5.5,27.8
			c-0.1,1-0.2,2.1-0.2,3.1c-0.2,3.1-0.3,6.3-0.5,9.4c0,1.6-0.1,3.1-0.1,4.7s-0.1,3.2-0.1,4.7c0,0.6,0,1.2,0,1.8
			c0,1.8-0.1,3.7-0.1,5.5c-0.1,3,0,5.9,0.3,8.8c0.7,6.4-1.4,9-7.3,10.5c-53.9,13.7-107.7,27.7-161.5,41.6c-3.2,0.8-5.5,1.4-7.1,1.5
			c-2.1,0.2-3.2-0.4-4-2.1c-0.8-1.6-1.3-4.3-2-8.4c-9.9-53.7-39.7-85.8-88.9-95.5c-27.6-5.5-55.1-2.1-82.3,3.1
			C80.4,85.8,42.5,99.7,4.8,113.9c-1.7,0.6-3.2,1.8-4.8,2.7c1.3,1.4,2.3,3.2,3.8,4.2c14.8,10.9,24.8,25.4,29.7,43.9
			c1.2,4.5,2.3,9.1,3.5,13.6c25.8,93.5,51.7,187,77.4,280.5c4.6,16.6,8.3,33.5,6.6,51.1c-1.5,15.2-1.7,15.1,11.5,10.7
			c47.4-15.8,94.9-31.7,142.4-47.3c2.5-0.8,5.7,0.6,8.5,1.5c6,2,11.7,5.3,17.7,6.2c5.2,0.8,11-0.2,16.2-1.9
			c36.4-11.9,72.8-24.3,109.1-36.5c1.5-0.5,2.9-1.5,4.4-2.2c-1.4-1-2.8-2.4-4.3-3.1c-8.7-4-17.5-7.7-26.3-11.7
			c-1.6-0.7-3-2.2-4.4-3.3c1.4-1,2.7-2.2,4.1-3c20.9-11.7,41.8-23.3,62.7-35c5.8-3.2,11.5-6.6,17.3-9.8c0.8-0.5,1.9-0.5,2.8-0.7
			c-0.1,1.1,0.1,2.3-0.3,3.2c-2.1,4.9-4.1,9.9-6.6,14.4c-3,5.4-6.6,10.4-10.1,15.5c-2.2,3.2-1.2,4.3,2.2,4
			c6.3-0.7,12.6-1.4,18.9-2.1c14.3-1.6,28.5-3.2,42.8-4.7c1-0.1,2.1,0.1,3.1,0.2c-0.4,0.9-0.8,1.8-1.3,2.7c-0.7,1-1.4,2-2.1,3
			c1.4,0.3,2.7,0.8,4.1,0.9c19.4,0.9,38.7,1.7,58.1,2.7c23.8,1.2,47.6,2.5,71.3,4c4.7,0.3,6.3-0.8,3.7-5.7c-1.6-2.9-2.9-6-4-9.2
			c-1-3-1.6-6.2-2.3-9.4c2.6,0.4,5.3,0.8,7.9,1.3c1.2,0.2,2.5,0.6,3.7,0.9c27,7.1,54,14.3,81,21.3c1.5,0.4,3.1,0,4.7,0
			c-0.6-1.4-1.1-2.9-1.9-4.1c-3.6-5.5-7.7-10.8-10.8-16.6c-2-3.9-3.8-8.9-3.3-13c1.4-10.8,4.1-21.5,6.4-32.2
			c0.3-1.2,1.1-2.2,1.7-3.3c0.6,1.2,1.2,2.4,1.9,3.4c6.9,10.1,12.8,21.3,20.9,30c14.5,15.7,33.3,23.2,53.4,27.1
			c7.3,1.4,7.3,1.4,2.9,8c-6.7,9.8-13.2,19.8-20.1,29.4c-2.6,3.7-2.5,5.5,1.2,8.4c15.1,11.5,31.8,19.5,49.4,25.1
			c34.1,11,68.4,15.4,103.2,3.6c49.1-16.7,83.2-59.5,65.8-125.6c-3.6-13.6-8.5-26.8-12.4-40.3c-1.5-5.4-3.4-11.7,2.4-16
			c4.4-3.3,11.4-1.8,16.8,3.4c2,1.9,3.7,4.3,5.1,6.8c3.3,5.7,6.6,11.5,9.5,17.5c2.1,4.2,3.4,4.8,6.1,0.4
			c15.8-25.8,31.8-51.4,47.9-76.9C1106,248.3,1105.7,246.1,1102.5,243.2z M1089,262.1c-9.4,15-18.9,29.8-28.1,44.8
			c-2.4,3.8-3.4,4.5-6.1,0c-7.1-12-18-18.2-31.1-18.9c-15.5-0.8-24.8,13-19,28.6c7.7,20.5,13.9,41.3,17.1,63.3
			c5.1,35.3-7.7,65.4-36.7,83.4c-27,16.8-56.2,20.6-86.7,15.9c-24.2-3.8-47.3-11-68.8-23.7c-2.9-1.7-7.5-2.8-3.3-8
			c0.4-0.5,0.3-2.2,0-2.4c-6.5-3.6-1.6-6.8,0.4-9.8c6-9,12.2-17.8,18.3-26.7c1-1.5,1.6-3.4,2.4-5.2c-1.6-0.3-3.2-0.6-4.9-0.8
			c-14.2-1.4-27.9-4.7-40.7-11.5c-18.7-9.9-31.2-24.3-38.1-42.9c-2.9-7.8-4.8-16.4-5.7-25.7c-1.8-18.7-1.5-37.2,2.1-55.6
			c0.2-0.9-0.2-1.9-0.3-2.8c-0.4,0.8-0.9,1.5-1.1,2.4c-6.3,24.3-12.8,48.6-19,72.9c-2.9,11.2-5.7,22.3-8.5,33.5
			c-1.3,5.3,0.3,11.5,0.3,17.3c0,0.9-1.7,2.8-2.1,2.7c-6.5-2.3-5.8,1.9-4.5,5.9c1.8,5.4-0.1,5.3-4.2,4.1
			c-21.8-6.2-43.6-12.1-65.4-18.1c-7.4-2-7.5-2-6.1,6.2c0.3,1.8,1,3.5,1.1,5.2c0.1,0.9-0.6,2.6-0.9,2.6c-6-0.4-4.9,3.3-4.1,7.3
			c0.1,0.6-2.6,2.7-3.9,2.6c-12.4-0.5-24.8-1.3-37.2-2v0.1c-14.3-0.8-28.6-1.7-42.9-2.4c-4-0.2-5.7-0.8-2.7-5.1
			c1-1.4,1.1-3.6,1.6-5.4c-1.8-0.2-3.7-0.8-5.5-0.6c-21.8,2.3-43.6,4.6-65.4,7.2c-4.6,0.5-5.1,0.3-3.8-4.9c2.7-10.9,4.3-22.3,6-33.5
			c0.8-5.2-1.4-5.6-5.3-3.4c-15.2,8.7-30.6,17.1-45.8,25.9c-3.6,2.1-6,2.2-8.4-1.7c-1.6-2.6-3.7-4.9-5.5-7.4
			c-5.4-7.1-5.6-7.2-10.5,0.3c-9.2,14.1-21.3,23.6-37.1,27.1c-4.5,1-9.2,0.7-13.8,1.1c-1,0.1-2,0.3-3,0.5c0.6,1.1,0.9,2.5,1.8,3.1
			c10.4,7.6,20.9,15.1,31.3,22.6c1.4,1,2.8,1.9,4.2,2.8c-1.5,0.7-2.9,1.5-4.4,2.1c-1.2,0.5-2.4,0.8-3.6,1.3c-0.9,0.4-1.8,1-2.7,1.5
			c0.9,0.8,1.7,1.6,2.6,2.4c1,0.8,2,1.5,3,2.3c-1.3,0.7-2.5,1.6-3.8,2c-26.5,8.9-53,17.8-79.6,26.4c-12,3.9-22,1.3-30.4-9.7
			c-25.5-33-51.2-65.9-76.9-98.9c-2.8,0.2-5.5,0.3-8.2,0.3c7.9,24.7,15.6,49.4,24.6,73.6c3.7,9.8,11.4,18.1,18.1,26.4
			c2.9,3.6,2.5,4-1.2,5.2c-2.4,0.8-8.6,0.7-2.6,6.1c0.1,0.1-1.1,2.9-2.1,3.3c-9.6,3.4-19.3,6.5-29,9.6
			c-22.5,7.4-45.1,14.9-67.6,22.1c-1.7,0.5-5.2,3.8-5.2-1.9c-0.3-23.7-7-46-13.2-68.4C93.6,354.1,69.9,269.6,46.3,185
			c-5.4-19.5-10.5-39-24.7-53.8c-0.3-0.3,0.8-3,1.8-3.6c2.5-1.6,7.9-1.6,2.4-6.5c1.1-1.3,2-3.3,3.3-3.7c24-7.8,47.8-16.1,72.1-22.8
			c28.7-8,58-12.4,87.7-9.9c39.9,3.4,71.8,20.9,86.1,63.3c2.8,8.2,4.9,16.9,6.5,25.6c1.4,7.6,2.4,15.3,3.1,23
			c2.6,30.7-4.6,58.8-23.9,82.7c-1,1.2-1,4.7-0.1,5.9c13.1,17,26.5,33.8,39.8,50.6c0.8,0.9,1.9,1.5,2.9,2.3
			c-0.1-1.3-0.1-2.6-0.4-3.8c-5.8-25.1-11.9-50.1-17.4-75.2c-0.9-4.1-0.5-8.9,0.6-13c4.3-15.5,6.5-31.1,5.6-47.2
			c-0.2-4,0.9-5.5,4.4-6.4c4.8-1.2,9.6-2.4,14.4-3.6c14.7-3.7,29.4-7.5,43.9-11.6c5.9-1.7,7.4,0,8.5,6c2.4,13.2,4.8,26.3,7.2,39.5
			c3.5,18.6,7,37.1,10.8,55.6c2,10,5.7,19.7,9.2,29.4c1,2.7,4,4.7,6,7c0.7-3.1,2.3-6.4,1.9-9.3c-1.4-10.7-3.1-21.3-5.3-31.8
			c-3.2-15.6-6.6-31.1-9.9-46.7c-2.8-12.9-5.6-25.8-8.5-38.7c-0.9-4.2-1.7-7.5,3.7-8.2c0.8-0.1,2.2-2.4,1.9-3.2
			c-1.7-5,1.4-5.7,4.6-6.5c20.7-5.4,41.3-10.8,62-16.3c4.4-1.2,6-0.2,6.3,4.8c0.4,6.3,1.4,12.5,2.7,18.6c0.4,1.9,2.8,3.3,4.3,4.9
			c1.1-1.7,3.1-3.5,3.1-5.1c-0.1-4.2,1.7-4.6,4.9-4.8c12-0.8,11.7-0.9,11.8-13.5c0.2-22.4,0.5-44.9,1.1-67.3
			c0.1-4.2,1.3-8.5,2.7-12.4c20.1-54.7,59.2-75.1,113.4-62.7c6.7,1.5,13.3,4.3,19.6,7.4c2.4,1.2,4.8,4.9,5.3,7.9
			c1.5,9.2,2.3,18.5,3.4,27.8c0.1,0.5,0.1,1.1,0.2,1.6c0.2,1.8-0.1,5.2,3.6,2.7c1.1-0.8,2.2-1.5,3.4-2.2
			c21.1-13.1,43.8-13.3,67.2-7.5s23.4,5.8,29.1,30.6c2.2,9.6,4.2,19.2,6.5,28.8c0.9,3.6-0.1,4.5-3.3,3.6c-3.6-0.9-7.3-1.5-11-2.3
			c-0.1,0-0.1,0-0.2,0c-4.1-0.9-5.7,0.4-4.1,4.9c1.8,5.2,0.9,7.6-4.9,5.6c-2.2-0.8-4.6-0.8-6.9-1c-18.3-1.7-28.8,6.4-32.4,25.5
			c-1.3,6.8-1.4,13.8-2.4,20.7c-0.7,4.4,1.2,5.5,4.7,5.8c7.1,0.5,14.3,1.4,21.4,1.7c4.2,0.2,6.1,1,4.7,6.3c-3.8,14.3-7,28.7-10.7,43
			c-0.4,1.6-2.3,2.7-3.5,4c-0.7,0.7-1.9,1.4-2,2.1c-0.7,10-5.5,7.3-10.5,3.9c-0.5-0.4-1.2-0.5-1.8-0.7c-10.5-4.1-10.9-3.6-12.2,8.2
			c-2.5,24-5.1,47.9-7.6,71.9c-1.4,13.3-2.8,26.7-4.3,40c-0.1,1.3-0.4,2.7-0.3,4c0,0.9,0.5,1.9,0.7,2.8c0.6-0.5,1.5-0.9,1.8-1.6
			c2.2-4.3,4.8-8.6,6.2-13.2c2.9-9.8,5.8-19.7,8.6-29.5c16.5-56.4,32.9-112.8,49.3-169.2c2.2-7.5,4.1-15.1,5.7-22.8
			c0.9-4.1,2.7-5.1,6.3-4c0.2,0.1,0.4,0.1,0.6,0.2c4.3,1.3,8.6,2.3,12.8,3.9c4,1.5,5.4,1.1,4.1-3.9c-3.5-14.4-6.3-28.9-9.9-43.2
			c-1.4-5.7,0.2-6.8,5.3-6.9c24.6-0.8,49.2-1.8,73.8-3.1c5.9-0.3,3.8,2.6,2.8,5.5c-11.6,36.8-23.5,73.6-34.8,110.5
			c-0.5,1.6-1,3.2-1.4,4.8c-5.4,17.8-10.2,35.9-15.3,53.8c-0.3,1-0.1,2.1-0.1,3.2c0.6-0.9,1.3-1.7,1.7-2.7
			c7.4-18.4,17.5-34.6,31.6-47.5c2.4-2.2,4.9-4.2,7.5-6.2c25.4-19.1,54-25.1,84.2-19.7c31,5.5,52,30.9,54.7,64.5
			c0.1,0.9,0.1,1.7,0.2,2.6c1.4,27.1-4.5,52.7-17.3,76.3c-1.6,3-3,6.6-7.6,4.9c-1-0.4-3.4,0.9-4,2.1c-2.3,4.7-5.6,4.3-9.6,3.3
			c-23.2-5.5-46.5-10.7-69.8-15.9c-1.9-0.4-3.9,0.1-5.9,0.1c0.5,2.1,0.7,4.5,1.7,6.3c7,13.3,19,17.1,32,18.4
			c17.7,1.7,35.3,1.8,52.8-2.3c1.2-0.3,2.4-0.1,3.7-0.1c-0.5,1.2-0.9,2.4-1.5,3.5c-0.8,1.3-1.8,2.5-2.5,3.8
			c-0.5,0.7-0.7,1.6-1.1,2.4c0.9,0.1,1.8,0.2,2.8,0.2c1.2,0,2.4-0.1,3.7-0.1c-0.5,1.3-0.8,2.8-1.5,4c-9.8,14.7-19.5,29.4-29.4,44
			c-1,1.4-1.9,2.9-2.9,4.3c-1.2,1.7-3.2,2.8-4.8,4c-1.4,1.1-2.9,2-4.4,3c1.5,0.8,2.9,1.7,4.5,2.3c11.7,4.3,23.5,5.1,35.3,0.6
			c14.9-5.8,20.5-17.3,15.8-33.6c-0.2-0.6-0.3-1.1-0.5-1.7c-1.7-5.4-3.8-10.6-5.4-16.1c-1.7-5.6-3.1-11.4-4.3-17.2
			c-0.3-1.3,0.5-3,1.3-4.2c18.6-27.3,27.2-57.5,25.9-90.5c-0.1-3.3-0.4-6.6-0.7-9.9c-0.5-4.6,2.4-5.2,5-6.4
			c34-16.1,68.1-15.1,101.8,0.4c10.4,4.7,19.8,11.7,29.6,17.8c2.7,1.7,5.6,3.8,2.5,7.9c-0.4,0.5-0.3,2.1,0.1,2.3
			C1094.5,255.8,1091,259,1089,262.1z"/>
		<path class="st0" d="M849.2,247.9c5.2-5.1,10.2-10.6,16.1-14.6c7.6-5.1,18.5-0.1,16.8,11.9v0.7c-0.4,13.2-0.4,13.2-12.2,10.5
			c-6.4-1.4-12.7-2.9-19.1-4.2C847.9,251.7,847,250.1,849.2,247.9z"/>
		<path d="M571.3,307.9c-0.1,0.2-0.1,0.4-0.2,0.6C571.1,308.2,571.2,308.1,571.3,307.9L571.3,307.9z"/>
	</g>
</g>
</svg>
