<?xml version="1.0" encoding="utf-8"?>
<!-- Generator: Adobe Illustrator 24.3.0, SVG Export Plug-In . SVG Version: 6.00 Build 0)  -->
<svg version="1.1" id="Layer_1" xmlns="http://www.w3.org/2000/svg" xmlns:xlink="http://www.w3.org/1999/xlink" x="0px" y="0px"
	 viewBox="0 0 615.3 783.7" style="enable-background:new 0 0 615.3 783.7;" xml:space="preserve">
<style type="text/css">
	.st0{fill:#FFFFFF;}
</style>
<g>
	<path class="st0" d="M283.5,0.8C347.1-4,412.1,11.8,467,47.9c27.3,18,52.7,38.8,72.7,65.6c44.2,59.2,70.1,126.3,73.3,202.6
		c0.1,2.8,1.5,5.6,2.3,8.3c0,9.6,0,19.2,0,28.8c-4.3,6.2-2.7,13.4-2.5,20c0.3,12-3.8,20-13.3,27.1c-27.4,20.7-53.9,42.7-81,63.8
		c-4.7,3.7-7,7.7-7.5,13.9c-1,13.5-2.8,26.8-4.2,40.3c-2.3,21.2-4.9,42.4-6.6,63.7c-0.9,11.3-3.2,9.9-10.3,10
		c-27.4,0.4-54.8,0.9-82.2,1.2c-18.8,0.2-37.7,0.4-56.5,0.3c-5.6,0-10.1,1.4-14.5,5.4c-16.1,14.6-39.2,16-56.1-0.1
		c-4.4-4.2-9.1-5-14.6-5c-17.6,0.2-35.2,0.1-52.8,0.1c-29.5-0.1-59-0.2-88.5-0.2c-4.4,0-7.7,0-8.3-6.4c-3-32.1-6.7-64.1-9.7-96.2
		c-1.9-20.5-1.6-20.5-17.6-32.6c-25.7-19.4-51.3-39-77-58.5c-5.1-3.9-8.4-8-9.1-15.6c-4.1-39.2-4.9-78.3,2.9-117.1
		c16.3-81.5,54.2-149.4,115.6-201.1C168.1,27,225.2,5.2,283.5,0.8z M391.7,538.9L391.7,538.9c16.4-0.1,32.8,0.1,49.2-0.2
		c11.4-0.2,13.4-2.4,14.4-14.4c1.1-13.9,2-27.8,3.2-41.7c1.1-11.7,2.8-23.3,3.8-35c0.5-5.3,2.8-8.5,6.8-11.6
		c23.9-18.4,47.1-37.9,71.4-55.5c13.5-9.8,21.7-20.1,22.1-38.8c0.4-20-1.6-39-8-57.6c-2.3-6.7-3-6.6-7.8-1.4
		c-48.2,51.8-96.3,103.6-144.5,155.4c-1.7,1.9-3.6,3.6-5.5,5.2c-0.3,0.3-1.3-0.2-1.9-0.5c-0.1-0.1-0.2-0.9,0-1.2
		c0.8-1.5,1.6-3,2.6-4.3c31.8-42.7,63.6-85.4,95.5-128.1c16-21.5,32-43.2,48.2-64.5c4.1-5.3,4.9-10.1,2.9-16.7
		c-6.3-21.4-18-39-32.5-54.8c-2.5-2.8-4.6-3.4-6.6,0.5c-1.2,2.3-2.6,4.4-3.8,6.7c-28.9,54.3-57.7,108.6-86.6,162.8
		c-13.7,25.8-27.5,51.6-41.4,77.3c-1,1.9-3.5,3-5.3,4.4c-0.1-2.5-0.6-4.9-0.3-7.4c0.2-1.6,1.3-3.2,1.9-4.8
		c37.6-86.2,75.1-172.6,113.2-258.6c4.5-10.2,3.2-16.5-3.2-24.3c-11.9-14.5-27.2-23.5-42.5-32.8c-9.8-5.9-11.1-5.2-14.4,6.1
		c-0.1,0.4-0.3,0.8-0.4,1.2c-17.7,66.7-35.3,133.4-53,200.1c-8.6,32.3-17.2,64.6-26,96.8c-0.8,3-3.1,5.5-4.8,8.2
		c-0.2-2.9-1-6-0.5-8.8c9.9-56.5,19.8-113,29.8-169.5c8.5-47.9,17.2-95.8,25.7-143.7c1.9-10.9,1.2-12.2-8.3-17.4
		c-16.9-9.3-35.1-11.1-53.7-10.5c-10.3,0.3-10.4,0.4-10.8,10.9c-0.9,23.1-1.6,46.2-2.4,69.3c-0.8,23.5-1.7,47-2.4,70.6
		c-1,32.3-1.8,64.5-2.7,96.8c-0.9,33.1-1.9,66.3-2.9,99.4c-0.1,1.7-0.1,3.5-0.5,5.2c-0.3,1.1-1.3,1.9-2,2.9
		c-0.8-1.1-2.3-2.2-2.4-3.5c-0.8-8.7-1.7-17.3-2-26c-1.2-30.9-2.1-61.9-3.1-92.8c-0.2-6.1,0-12.2-0.3-18.3
		c-1.4-28.7-3.1-57.4-4.2-86.1c-1.3-32.3-2.2-64.5-3.3-96.8c-0.3-7.8-1.1-15.7-1.6-23.5c-0.6-8.2-0.6-8.3-8.9-8.5
		c-6.1-0.1-12.3-0.2-18.4,0c-14.7,0.5-27.9,5.8-40.4,13.9c-4.3,2.8-6,5.8-4.7,11.7c4.7,22.5,8.7,45.2,13,67.8
		c15.4,82,30.8,164,46.1,246c0.7,3.8,0.8,7.8,1,11.7c0,0.7-0.8,2.2-1,2.2c-1.1-0.2-2.7-0.5-3.1-1.3c-1.2-2.7-2.2-5.6-3-8.6
		c-3.3-12.1-6.5-24.3-9.8-36.5c-16-60-32-119.9-48-179.9c-7.4-27.7-14.7-55.4-22.1-83c-2.9-11-3.1-11.1-13.4-6.8
		c-19.5,8.2-35.3,21.6-48.3,39.1c-4.1,5.6-3.9,10.5-1,16.7c16.8,36.9,33.3,74,49.9,111c22.5,50,45,99.9,67.5,149.9
		c1.4,3.1,2.5,6.4,3.5,9.8c0.2,0.8-0.7,2.1-1.4,2.9c-0.2,0.3-1.7-0.2-2.1-0.7c-3.3-5-6.7-9.9-9.6-15.1
		c-41.3-75.3-82.5-150.8-123.9-226.1c-8.8-16-6.8-14.1-17.4-1.3c-11.5,13.9-20.5,29.4-24.6,47.7c-1.5,6.6-1.6,12.3,3,18.3
		c41.9,54.2,83.6,108.6,125.3,163c7,9.1,14,18.2,20.8,27.6c1.2,1.7,1,4.5,1.4,6.8c-2-0.9-4.6-1.2-6.1-2.7
		c-6.1-6.5-11.7-13.4-17.8-19.9C153.6,376,109.8,328.8,66,281.6c-4.6-5-5.9-4.8-7.8,2c-6.2,22.7-10.3,45.7-6.2,69.6
		c1.3,7.8,4,13.5,10.1,18.3c27.8,22.2,55.3,45,83.1,67.4c4.9,3.9,7.7,7.8,8.2,14.8c2,23.8,4.8,47.6,7.4,71.4c0.3,3,0.6,6.2,1.8,8.9
		c0.9,1.9,3,3.9,4.9,4.4c2.7,0.8,5.7,0.2,8.6,0.2c32,0.1,63.9,0.2,95.9,0.2c5.6,0,9.7,1.2,14,5.9c14.4,15.8,29.2,15.9,43.9,0.7
		c4.4-4.5,8.6-7.1,15-6.9C360.6,539.2,376.1,538.9,391.7,538.9z"/>
	<path class="st0" d="M83.5,783.7c-16.8-1-34-1.8-51.1-3.2c-17.5-1.4-27.2-13.6-26.7-32.3c0.1-4.1,0.8-6.7,5.3-6.7
		c14.3,0.1,28.7,0.1,43,0c3.6,0,4.5,2.1,5.3,5.6c2.5,11.3,4.5,12.9,14.8,13.2c7.4,0.2,14.7,0.3,22.1,0.3c10.4,0,15.3-4.8,15.8-15.4
		c0.6-11.4-3.9-16.8-15-17.6c-5.7-0.4-11.5-0.1-17.2-0.3c-14.3-0.6-28.6-1-42.9-2.1c-5.2-0.4-10.5-1.8-15.4-3.9
		c-6.9-2.9-11.7-8.9-12.2-16.8c-0.5-9.5,0.1-19.1,0.8-28.6c0.7-9.3,6.5-14.9,14.2-18c4.2-1.6,8.7-3.1,13.1-3.2
		c29.4-0.9,58.9-2,88.3-1.8c8.7,0,17.8,2.9,26,6.3c8.7,3.6,14,20.6,10.3,29.4c-0.6,1.5-3.2,2.8-4.9,2.8c-13.5,0.2-27,0.1-40.5,0.1
		c-3.5,0-4.5-1.9-5.4-5.5c-2.6-10.9-5-13.2-14.9-13.7c-9-0.4-18-0.4-27,0.5c-9.3,1-12.6,5.6-12.3,14.4c0.3,9.7,4.1,14.7,13.2,15.2
		c17.6,1,35.2,0.8,52.7,2.2c8.8,0.7,17.7,2.9,26.2,5.9c8.3,2.9,12.8,9.9,14.1,19.6c1.3,10.1,2.1,19.9-0.4,29.8
		c-3.2,12.5-10.5,19.4-22.6,20.2C121.5,781.6,102.7,782.6,83.5,783.7z"/>
	<path class="st0" d="M185.8,718.7c0-17.9-0.1-35.8,0-53.7c0.1-9.5,0.4-9.8,8.8-9.9c9.8-0.2,19.7,0.1,29.5-0.1
		c5.1-0.1,7.5,2,7.4,7.7c-0.2,8.7-0.2,17.5,0,26.2c0.2,7.5,1.2,8.2,8.1,6.2c18.2-5.3,36.4-4.6,54.7-1c16.8,3.4,23.7,13.7,22.9,29.9
		c-0.9,17.4-0.9,34.9-0.9,52.3c0,4.7-1.6,6.3-5.6,6.3c-10.2,0-20.5-0.2-30.7,0.1c-5.7,0.2-6.8-2.9-6.8-8.1
		c0.2-13.1-0.2-26.2,0.1-39.3c0.3-12.2-1.8-18.5-18.5-19.9c-4.7-0.4-9.8,0.9-14.5,2.4c-7.2,2.2-8.8,4.8-8.9,13.4
		c-0.1,14.9-0.2,29.7,0,44.6c0.1,5-1.7,7.1-6.4,7.1c-10.7-0.2-21.3,0.1-32-0.1c-6.9-0.2-7.2-0.5-7.3-8.8
		C185.7,755.4,185.8,737.1,185.8,718.7z"/>
	<path class="st0" d="M406.1,782.9c-12.7,0-25.4,0.3-38-0.1c-4.8-0.2-9.7-1.4-14.3-3c-8.5-2.9-13.5-9.6-15.3-18.8
		c-2.8-15.1-2.8-30.4-0.1-45.5c2.3-13.2,11.6-22.2,26.1-23.5c17.1-1.6,34.3-1.8,51.4-2.1c8.1-0.1,16.3,0.8,24.4,1.8
		c6,0.8,12.3,1.7,17.9,4c8.4,3.5,14.3,10,14.9,20.5c0.4,7,0.9,13.9,1.5,20.8c0.4,5.2-2,7-6.6,6.9c-9.8-0.1-19.6-0.1-29.5-0.1
		c-14.7,0-29.5-0.2-44.2-0.1c-3.5,0-7.6-1.3-9.7,3.3c-2,4.5-0.4,12.3,3.5,15.6c2.2,1.8,5,3.6,7.6,3.8c6.5,0.6,13.1,0.8,19.6,0.2
		c5-0.5,9.4-3.3,11.2-8.9c1.2-3.9,3.4-5.6,7.2-5.5c11,0.1,22.1,0.1,33.1,0c5.2-0.1,6.1,3.1,5.7,7.6c-1.2,12.5-12,22.4-26,22.9
		C433.1,783.3,419.6,782.9,406.1,782.9z M405.6,725.9c4.9,0,9.8,0.4,14.6-0.2c2.5-0.3,6.3-1.8,6.8-3.6c0.6-2.1-1.2-5.7-2.9-7.7
		c-5.9-7.2-27.3-7.9-34-1.4c-0.9,0.9-1.7,1.8-2.4,2.9c-3,4.9-1,9.4,4.6,9.9C396.6,726.2,401.1,725.9,405.6,725.9z"/>
	<path class="st0" d="M541.2,718.7c0,18.3,0.1,36.6,0,54.9c-0.1,8.7-0.2,8.8-8.1,9c-9.8,0.2-19.6,0.2-29.4,0c-7.6-0.2-8-0.4-8-8
		c-0.1-37-0.1-74.1,0-111.1c0-7.7,0.7-8.2,7.7-8.4c9.8-0.2,19.6-0.2,29.4,0c8.2,0.1,8.4,0.3,8.4,8.7
		C541.3,682.1,541.2,700.4,541.2,718.7z"/>
	<path class="st0" d="M612.3,718.9c0,18.3,0.1,36.6,0,54.9c-0.1,8.5-0.3,8.7-8.4,8.8c-9.4,0.2-18.8,0.1-28.2,0
		c-8.8-0.1-8.9-0.2-9-9.4c-0.1-26.1,0-52.3,0-78.4c0-10.5-0.1-20.9,0.1-31.4c0.1-7.7,0.6-8.2,7.7-8.4c9.8-0.2,19.6-0.2,29.4,0
		c8.1,0.2,8.4,0.4,8.5,8.9C612.4,682.3,612.3,700.6,612.3,718.9z"/>
</g>
</svg>
