<?xml version="1.0" encoding="utf-8"?>
<!-- Generator: Adobe Illustrator 25.2.3, SVG Export Plug-In . SVG Version: 6.00 Build 0)  -->
<svg version="1.1" id="Layer_1" xmlns="http://www.w3.org/2000/svg" xmlns:xlink="http://www.w3.org/1999/xlink" x="0px" y="0px"
	 viewBox="0 0 21.3 22" style="enable-background:new 0 0 21.3 22;" xml:space="preserve">
<style type="text/css">
	.st0{fill:#FFFFFF;}
</style>
<g>
	<path class="st0" d="M18.3,0c-0.1,0.1-0.1,0.3-0.2,0.4c-2,3.6-4,7.3-5.9,10.9c-0.3,0.5-0.6,0.8-1.1,0.7c-0.4,0-0.7,0-1.1,0
		c-0.4,0-0.7-0.2-0.9-0.5C7.1,7.8,5.1,4,3,0.3C3,0.2,3,0.1,3,0c0.5,0,1,0,1.6,0C5,0.8,5.4,1.5,5.8,2.3c1.6,3,3.2,6,4.9,9
		c0.2,0.4,0.6,0.6,1,0.4c0.2-0.1,0.3-0.3,0.4-0.5c1.8-3.2,3.5-6.5,5.3-9.7C17.7,1,17.9,0.5,18.3,0C18.1,0,18.2,0,18.3,0z"/>
	<path class="st0" d="M17.7,0h0.1c0,0.1-0.1,0.3-0.1,0.4c-0.7,1.3-1.4,2.6-2.1,4c-0.9,1.7-1.8,3.3-2.7,5c-0.2,0.4-0.5,0.7-1,0.6
		c-0.3,0-0.7,0-1,0c-0.5,0-0.8-0.2-1.1-0.7c-1.5-2.8-3-5.6-4.5-8.4C5.1,0.5,4.9,0.3,4.8,0c0.5,0,1,0,1.6,0c0.1,0.3,0.3,0.5,0.4,0.8
		c1.5,2.8,3.1,5.7,4.6,8.5c0.2,0.3,0.3,0.5,0.7,0.5c0.3,0,0.5-0.2,0.6-0.5c0.9-1.7,1.8-3.4,2.8-5.1C16.2,2.8,17,1.4,17.7,0z"/>
	<path class="st0" d="M6.7,0c0.5,0,1,0,1.6,0c0.1,0.2,0.2,0.3,0.3,0.5c1.2,2.2,2.4,4.4,3.6,6.6c0.4,0.7,1,0.7,1.4,0
		c0.4-1.1,1-2.2,1.6-3.4c0.7-1.2,1.4-2.5,2-3.7h0.1c0,0.1-0.1,0.2-0.1,0.3c-0.4,0.8-0.8,1.5-1.2,2.2c-0.8,1.5-1.7,3.1-2.5,4.6
		c-0.2,0.4-0.5,0.6-0.9,0.6c-0.3,0-0.6,0-1,0c-0.6,0.1-1-0.2-1.3-0.8C9.2,4.8,8,2.6,6.8,0.4C6.8,0.3,6.7,0.1,6.7,0z"/>
	<path class="st0" d="M8.6,0c0.5,0,1,0,1.6,0c0.9,1.7,1.8,3.3,2.7,5c0.2,0.3,0.4,0.5,0.8,0.5c0.3,0,0.5-0.3,0.6-0.5
		c0.8-1.7,1.7-3.4,2.6-5C17,0,17,0,17.1,0c-1,1.8-1.9,3.5-2.9,5.3c-0.2,0.3-0.4,0.4-0.7,0.4c-0.4,0-0.8,0-1.2,0
		c-0.5,0-0.8-0.2-1-0.6c-0.9-1.6-1.7-3.2-2.6-4.8C8.6,0.2,8.6,0.1,8.6,0z"/>
	<path class="st0" d="M21.3,18.1c-0.6,0-1.1,0-1.7,0c-0.4,0-0.8-0.3-0.8-0.8c0-1.3,0-2.7,0-4c0.8,0,1.6,0,2.5,0c0,0.3,0,0.6,0,0.8
		c-0.5,0-1.1,0-1.6,0c0,0.4,0,0.7,0,1.1c0.5,0,1,0,1.5,0c0,0.3,0,0.6,0,0.9c-0.5,0-1,0-1.5,0c0,0.4,0,0.7,0,1.1c0.5,0,1.1,0,1.6,0
		C21.3,17.6,21.3,17.8,21.3,18.1z"/>
	<path class="st0" d="M0,13.4c0.8-0.2,0.9-0.1,1.1,0.7C1.4,15,1.7,16,2.1,17c0.1-0.1,0.1-0.2,0.1-0.3c0.3-0.9,0.7-1.9,0.9-2.8
		c0.1-0.4,0.3-0.5,0.6-0.5c0.1,0,0.3,0,0.4,0c0,0.1-0.1,0.2-0.1,0.3c-0.5,1.4-1,2.8-1.5,4.2c-0.1,0.3-0.2,0.3-0.5,0.3
		c-0.2,0-0.4,0-0.5-0.3c-0.5-1.4-1-2.7-1.5-4.1C0.1,13.7,0.1,13.6,0,13.4L0,13.4z"/>
	<path class="st0" d="M16.4,0c0.1,0,0.1,0,0.2,0c-0.6,1.1-1.2,2.2-1.8,3.3c-0.1,0.2-0.4,0.3-0.5,0.3c-0.5,0-1,0.1-1.5,0
		c-0.2,0-0.6-0.2-0.7-0.4c-0.6-1-1.1-2.1-1.7-3.2c0.5,0,1,0,1.6,0c0.5,1,1.1,2,1.6,3c0.3,0.6,0.9,0.6,1.2,0.1C15.4,2,15.9,1,16.4,0z
		"/>
	<path class="st0" d="M16.2,0c-0.2,0.4-0.4,0.9-0.7,1.3c-0.1,0.1-0.3,0.2-0.5,0.2c-0.5,0-1,0.1-1.5,0c-0.3,0-0.5-0.2-0.7-0.4
		c-0.2-0.3-0.4-0.7-0.6-1.1c0.5,0,1,0,1.6,0c0.2,0.3,0.3,0.6,0.5,0.9c0.3,0.5,0.9,0.5,1.2,0C15.7,0.6,15.9,0.3,16,0
		C16.1,0,16.2,0,16.2,0z"/>
	<path class="st0" d="M17.4,17.3c0-0.5,0-1.1,0-1.6c0.3,0,0.5,0,0.8,0c0,0.7,0,1.4,0,2.1c0,0.1-0.1,0.2-0.2,0.2
		c-0.9,0.5-2.2,0.2-2.9-0.8c-0.7-0.9-0.7-2.2,0-3.1c0.7-0.9,1.9-1.2,2.9-0.7c0.1,0.1,0.2,0.2,0.2,0.4c0,0.3,0,0.5,0,0.8
		c-1-0.7-1.7-0.7-2.3-0.1c-0.5,0.5-0.6,1.3-0.3,1.9C16,17.1,16.7,17.5,17.4,17.3z"/>
	<path class="st0" d="M15,18.1c-0.3,0-0.5,0-0.7,0c-0.1,0-0.2-0.1-0.2-0.2v-0.1c-0.1-0.3-0.2-0.8-0.4-0.9c-0.4-0.1-1-0.1-1.4,0
		c-0.1,0-0.1,0.1-0.2,0.2c-0.1,0.1-0.1,0.3-0.2,0.4c-0.3,0.8-0.3,0.8-1.2,0.6c0-0.1,0.1-0.2,0.1-0.3c0.5-1.4,1.1-2.7,1.6-4.1
		c0.1-0.3,0.2-0.4,0.5-0.4s0.4,0.1,0.5,0.3c0.5,1.4,1.1,2.8,1.6,4.1C14.9,17.9,15,18,15,18.1z M12.3,16c0.3,0,0.6,0,0.9,0
		c-0.2-0.5-0.3-0.9-0.5-1.4C12.6,15.1,12.5,15.6,12.3,16z"/>
	<path class="st0" d="M6.7,17.3c0.5,0,0.9,0,1.4,0c0,0.3,0,0.6,0,0.8c-0.5,0-1.1,0-1.6,0c-0.3,0-0.6-0.4-0.6-0.7c0-1.3,0-2.7,0-4.1
		c0.3,0,0.5,0,0.8,0C6.7,14.7,6.7,15.9,6.7,17.3z"/>
	<path class="st0" d="M9.2,17.3c0.5,0,0.9,0,1.4,0c0,0.3,0,0.5,0,0.8c-0.5,0-1.1,0.1-1.6,0c-0.3,0-0.6-0.4-0.6-0.8
		c0-1.3,0-2.6,0-3.9c0,0,0,0,0-0.1c0.2,0,0.5,0,0.8,0C9.2,14.7,9.2,15.9,9.2,17.3z"/>
	<path class="st0" d="M11.1,20c0,0.6,0,1.2,0,1.9c-0.2,0-0.3,0-0.5,0c0-0.9,0-1.9,0-2.8c0.6-0.1,0.7-0.1,0.9,0.5
		c0.2,0.5,0.3,1,0.5,1.6c0.2-0.6,0.4-1.1,0.5-1.6c0.2-0.6,0.2-0.6,0.9-0.5c0,0.9,0,1.9,0,2.8c-0.1,0-0.3,0-0.5,0c0-0.6,0-1.2,0-1.8
		h-0.1c-0.2,0.5-0.3,1-0.5,1.5C12.2,21.8,12.2,22,12,22s-0.3-0.2-0.3-0.3C11.6,21.1,11.4,20.6,11.1,20C11.2,20,11.2,20,11.1,20z"/>
	<path class="st0" d="M5.3,18.1c-0.3,0-0.5,0-0.8,0c0-1.6,0-3.2,0-4.8c0.3,0,0.5,0,0.8,0C5.3,14.9,5.3,16.5,5.3,18.1z"/>
	<path class="st0" d="M6.8,21.9c-0.2,0-0.3,0-0.5,0c0-0.9,0-1.9,0-2.8C6.8,19,6.8,19,7.1,19.4c0.3,0.5,0.5,1,0.8,1.5
		c0,0,0,0,0.1,0.1c0-0.6,0-1.3,0-1.9c0.2,0,0.3,0,0.5,0c0,1,0,1.9,0,2.8c-0.3,0.1-0.6,0-0.8-0.3c-0.3-0.5-0.6-1-0.9-1.6
		C6.8,20.6,6.8,21.3,6.8,21.9z"/>
	<path class="st0" d="M16.4,21.9C16,22,15.8,22,15.7,21.5c-0.1-0.3-0.2-0.4-0.5-0.3c-0.3,0-0.6-0.1-0.7,0.3
		c-0.1,0.4-0.3,0.5-0.7,0.4c0.2-0.6,0.4-1.2,0.7-1.7c0.1-0.3,0.2-0.6,0.4-0.9c0-0.1,0.2-0.2,0.3-0.2s0.2,0.1,0.2,0.1
		C15.6,20.1,16,21,16.4,21.9z M15.3,20.6c-0.1-0.3-0.2-0.5-0.3-0.8c-0.1,0.3-0.2,0.5-0.3,0.8C15,20.6,15.1,20.6,15.3,20.6z"/>
	<path class="st0" d="M16.4,21.1c0.3,0,0.5-0.1,0.6,0.2c0.1,0.2,0.4,0.2,0.5,0c0.1-0.1,0-0.4-0.1-0.5s-0.3-0.1-0.4-0.2
		c-0.4-0.2-0.6-0.5-0.6-0.9c0.1-0.4,0.4-0.7,0.8-0.7s0.7,0.3,0.8,0.8c-0.2,0-0.4,0.1-0.6-0.1c-0.1-0.2-0.3-0.2-0.4,0
		c0,0.1,0,0.3,0.1,0.4s0.3,0.1,0.4,0.2c0.4,0.2,0.6,0.6,0.5,1c0,0.4-0.4,0.7-0.8,0.7C16.7,22,16.4,21.7,16.4,21.1z"/>
	<path class="st0" d="M8.9,19.1c0.5,0,1,0,1.5,0c0,0.2,0,0.3,0,0.5c-0.3,0-0.6,0-0.9,0c0,0.2,0,0.4,0,0.7c0.3,0,0.6,0,0.9,0
		c0,0.2,0,0.3,0,0.5c-0.3,0-0.6,0-0.9,0c0,0.2,0,0.4,0,0.7c0.3,0,0.6,0,0.9,0c0,0.2,0,0.3,0,0.5c-0.3,0-0.7,0-1,0S9,21.8,9,21.5
		C8.9,20.6,8.9,19.9,8.9,19.1z"/>
	<path class="st0" d="M5.3,19.6c-0.5-0.2-0.9-0.2-1.2,0.3c-0.2,0.3-0.2,0.8,0,1.1c0.3,0.5,0.7,0.5,1.2,0.3c0.1,0.6,0,0.6-0.5,0.6
		c-0.8,0-1.4-0.7-1.4-1.5C3.4,19.7,4,19,4.8,19C5.3,19,5.3,19,5.3,19.6z"/>
	<path class="st0" d="M5.5,19.1c0.2,0,0.3,0,0.5,0C6,20,6,21,6,21.9c-0.2,0-0.3,0-0.5,0C5.5,21,5.5,20,5.5,19.1z"/>
</g>
</svg>
