<?xml version="1.0" encoding="utf-8"?>
<!-- Generator: Adobe Illustrator 25.2.3, SVG Export Plug-In . SVG Version: 6.00 Build 0)  -->
<svg version="1.1" id="Layer_1" xmlns="http://www.w3.org/2000/svg" xmlns:xlink="http://www.w3.org/1999/xlink" x="0px" y="0px"
	 viewBox="0 0 23 22" style="enable-background:new 0 0 23 22;" xml:space="preserve">
<style type="text/css">
	.st0{fill:#FFFFFF;}
</style>
<g>
	<path class="st0" d="M14.2,12.6c0.1,0,0.2-0.1,0.2-0.1c0.6-0.4,1.1-0.7,1.7-1.1c0.9-0.5,1.8-1.1,2.6-1.6c0.2-0.1,0.4-0.3,0.6-0.4
		c0.1,0,0.1-0.1,0.2-0.2c0,0,0-0.1,0-0.2c0-0.1-0.1-0.2-0.1-0.4c0-0.4,0-0.9,0-1.3s0-0.7,0-1.1c0-0.1,0-0.2-0.1-0.3
		c-0.1,0-0.2,0-0.3,0.1c-0.4,0.3-0.6,0.7-0.6,1.2s-0.1,0.9-0.1,1.4c0,0.3-0.1,0.5-0.2,0.8s-0.3,0.5-0.6,0.6c-0.1,0-0.1,0-0.2,0
		C17.1,10,17,9.9,17,9.7c0-0.3,0-0.7,0-1c0-0.7,0.1-1.3,0.1-2c0-0.3,0.1-0.5,0.2-0.7c0.2-0.3,0.5-0.5,0.9-0.5c0.1,0,0.2,0,0.4-0.1
		c0.1,0,0.2-0.1,0.3-0.2c0.2-0.3,0.6-0.5,0.9-0.6c0.1,0,0.2,0,0.3,0.1c0.3,0.2,0.4,0.6,0.4,0.9c0,0.6,0,1.3,0,1.9
		c0,0.2,0,0.4,0.1,0.7c0,0.2,0.1,0.2,0.2,0.1C21,8.2,21.2,8.1,21.5,8c0.3-0.1,0.6-0.2,0.8-0.3C22.6,7.6,23,7.9,23,8.2
		c0,0.1,0,0.2-0.1,0.3C23,8.7,22.8,8.9,22.7,9c-0.4,0.3-0.8,0.5-1.2,0.6c-0.8,0.3-1.5,0.7-2.3,1.1c-1.7,0.9-3.4,2-5,3.1
		c-0.1,0-0.1,0.1-0.1,0.2c0,1.5,0,3,0,4.4c0,0.9,0.1,1.8,0.2,2.7c0,0.1,0,0.2,0,0.3c0,0.2-0.1,0.4-0.3,0.5c-0.3,0.1-0.5,0.1-0.8,0
		c-0.1-0.1-0.2-0.2-0.3-0.4c0-0.5-0.1-1-0.1-1.4c0-1.5,0-3.1,0-4.6c0-0.2,0-0.4,0-0.6l0,0c-0.1,0.1-0.2,0.1-0.2,0.2
		c-0.7,0.6-1.4,1.2-2.1,1.7c-1.2,1-2.4,2.2-3.5,3.4c-0.3,0.3-0.5,0.5-0.8,0.8c-0.1,0.1-0.2,0.2-0.4,0.3c-0.2,0.1-0.4,0.1-0.5-0.1
		c-0.1-0.1-0.2-0.2-0.2-0.4c-0.1-0.1-0.1-0.2,0-0.3c0.1-0.1,0.1-0.2,0.2-0.3c0.6-0.8,1.3-1.4,2-2.1c1.3-1.2,2.7-2.3,4.1-3.5
		c0.4-0.3,0.8-0.7,1.2-1c0.1-0.1,0.2-0.2,0.3-0.4c0,0,0-0.1,0-0.2h-0.1c-0.2,0-0.4,0.1-0.6,0.1c-0.3,0-0.5,0-0.8,0s-0.5-0.2-0.5-0.5
		c0-0.2-0.1-0.3-0.1-0.5c0-0.7,0-1.5,0.2-2.2c0.1-0.7,0.5-1.2,1-1.6c0.1-0.1,0.3-0.2,0.5-0.2s0.4,0.1,0.3,0.4c0,0.2-0.1,0.3-0.2,0.4
		c-0.5,0.6-0.6,1.3-0.6,2c0,0.2,0,0.5,0,0.7v0.1c0.1,0.2,0.2,0.2,0.3,0.2c0.2-0.1,0.3-0.2,0.4-0.3c0.1-0.2,0.2-0.5,0.2-0.8
		c0.1-0.6,0.1-1.3,0.2-1.9c0-0.3,0.1-0.6,0.2-0.9c0-0.1,0.1-0.2,0.2-0.3c0.1-0.2,0.4-0.3,0.6-0.2c0.1,0.1,0.2,0.1,0.2,0.3
		c0,0.3,0,0.6,0,0.9c0,0.9-0.1,1.8-0.1,2.8c0,0.3,0,0.6,0,0.9C14.2,12.4,14.2,12.5,14.2,12.6z"/>
	<path class="st0" d="M3.6,14.8c0.1-0.4,0.1-0.7,0.2-1.1c0.3-2.2,0.8-4.4,1.4-6.6C5.5,6,5.9,4.8,6.3,3.7c0.3-0.8,0.6-1.6,0.8-2.4
		C7.2,1,7.4,0.7,7.5,0.5C7.7,0.3,7.9,0.1,8.2,0c0.1,0,0.2,0,0.3,0c0.1,0.1,0.3,0.1,0.4,0.2C9.2,0.4,9.2,0.7,9.1,1
		c0,0.3-0.1,0.6-0.3,0.8C8,2.8,7.6,4,7.1,5.1C6.8,6.1,6.6,7,6.3,8C6.1,8.6,5.9,9.2,5.7,9.9c-0.2,0.8-0.4,1.6-0.5,2.3
		c0,0.3-0.1,0.5-0.2,0.8c0,0.4,0,0.9-0.1,1.4c-0.1,0.7-0.2,1.3-0.3,2c-0.1,0.8-0.2,1.5-0.3,2.3c0,0.3-0.1,0.5-0.2,0.8
		C4,19.9,3.6,20,3.2,19.8l-0.1-0.1c-0.1-0.5-0.2-1-0.3-1.5c-0.3-1.8-0.6-3.7-0.8-5.5c0-0.3-0.1-0.6-0.2-1c0-0.1,0-0.1-0.1-0.2
		c0-0.1-0.1-0.1-0.1,0s-0.1,0.1-0.1,0.2c-0.1,0.3-0.2,0.6-0.3,0.9C1.1,12.8,1,13,0.9,13.3c-0.1,0.2-0.3,0.3-0.5,0.3
		c-0.3,0-0.4-0.2-0.3-0.5c0.2-0.6,0.3-1.3,0.5-1.9c0.3-0.9,0.6-1.8,0.9-2.7c0-0.1,0.1-0.3,0.2-0.4C2,7.8,2.4,7.9,2.6,8.3
		c0,0.3,0.1,0.7,0.2,1.1c0.2,1.1,0.4,2.3,0.6,3.4c0.1,0.6,0.2,1.2,0.2,1.9C3.6,14.7,3.6,14.7,3.6,14.8L3.6,14.8z"/>
	<path class="st0" d="M8.2,13.2c0-0.9,0.1-1.8,0.2-2.7c0-0.2,0.1-0.4,0.3-0.5c0.5-0.3,0.9-0.5,1.5-0.6c0.1,0,0.2,0,0.2,0.1
		c0.1,0.2,0.2,0.4,0,0.7c-0.1,0.1-0.2,0.2-0.2,0.3c-0.1,0.1-0.2,0.2-0.2,0.3c-0.3,0.3-0.4,0.7-0.5,1.1c0,0.5-0.1,1-0.1,1.5
		c0,0.2-0.1,0.5-0.1,0.7S9.2,14.3,9,14.4s-0.4,0.1-0.6,0.1c-0.1,0-0.2-0.1-0.2-0.3C8.2,13.8,8.2,13.5,8.2,13.2z"/>
	<path class="st0" d="M6,14.9c0-1,0.1-2.1,0.3-3.1c0-0.3,0.2-0.6,0.4-0.8c0.1-0.1,0.2-0.1,0.3-0.2c0.2-0.1,0.3,0,0.4,0.2
		c0.1,0.1,0.1,0.3,0.1,0.4c0,0.5,0,0.9-0.1,1.4c-0.1,0.8-0.2,1.5-0.3,2.3c0,0.1,0,0.1,0,0.2c0,0.2-0.2,0.4-0.4,0.4
		c-0.2,0-0.3,0-0.5,0c-0.1,0-0.2-0.1-0.2-0.2C6,15.3,6,15.1,6,14.9z"/>
	<path class="st0" d="M15,10.4c0-0.3,0.1-0.6,0.1-0.9c0-0.5,0.1-1.1,0.1-1.6c0-0.1,0-0.3,0.1-0.4c0.1-0.4,0.3-0.7,0.6-0.9
		c0.1-0.1,0.2-0.1,0.3,0c0.1,0.1,0.2,0.3,0.2,0.5s0,0.4-0.1,0.6c0,0.6-0.1,1.2-0.1,1.8c0,0.3,0,0.6-0.1,0.8c0,0.2-0.1,0.4-0.3,0.5
		c-0.1,0.1-0.3,0.1-0.4,0.2c-0.2,0.1-0.3,0-0.4-0.2C15,10.7,15,10.5,15,10.4z"/>
	<path class="st0" d="M8,8.6C8,8.7,7.9,8.9,7.8,9C7.7,9.2,7.5,9.3,7.3,9.4c-0.1,0.1-0.2,0-0.3,0c-0.1,0-0.2-0.1-0.2-0.2
		C6.7,9.2,6.7,9.1,6.7,9C6.9,8.7,7,8.4,7.3,8.2c0,0,0.1,0,0.1-0.1C7.7,8,8,8.2,8,8.6C8,8.5,8,8.6,8,8.6z"/>
	<path class="st0" d="M16,5.5c-0.2,0-0.3-0.1-0.3-0.3c0-0.1,0-0.2,0.1-0.3c0.1-0.3,0.3-0.5,0.6-0.6s0.5,0.1,0.5,0.5
		C16.8,5.1,16.4,5.5,16,5.5z"/>
</g>
</svg>
