<?xml version="1.0" encoding="utf-8"?>
<!-- Generator: Adobe Illustrator 24.3.0, SVG Export Plug-In . SVG Version: 6.00 Build 0)  -->
<svg version="1.1" id="Layer_1" xmlns="http://www.w3.org/2000/svg" xmlns:xlink="http://www.w3.org/1999/xlink" x="0px" y="0px"
	 viewBox="0 0 862.6 689.1" style="enable-background:new 0 0 862.6 689.1;" xml:space="preserve">
<style type="text/css">
	.st0{fill:#FFFFFF;}
</style>
<g>
	<path class="st0" d="M722.8,422.9c20.5,0,37.3,16.9,37.3,36.1c0,20.5-16.9,37.3-37.3,37.3c-19.3,0-36.1-16.9-36.1-37.3
		C686.7,439.7,703.6,422.9,722.8,422.9z M722.8,420.4c-20.5,0-38.6,16.9-38.6,38.5c0,21.7,18.1,39.8,38.6,39.8
		c21.7,0,39.8-18.1,39.8-39.8C762.6,437.3,744.5,420.4,722.8,420.4L722.8,420.4z"/>
	<path class="st0" d="M714.4,457.8v-13.3h6c8.4,0,10.9,2.4,10.9,7.2s-2.4,6-10.9,6L714.4,457.8L714.4,457.8z M709.6,440.9v37.3h4.8
		v-15.7h1.2c8.4,0,10.8,1.2,16.9,15.7h6c-6-13.2-6-14.5-12-16.9c8.4-1.2,10.8-6,10.8-9.6c0-7.2-4.8-10.8-13.3-10.8H709.6
		L709.6,440.9L709.6,440.9z M467.4,308.4c-19.3,4.8-56.6,7.2-96.4-8.4c6-18.1,21.7-53,56.6-79.5
		C439.7,234.9,462.6,266.2,467.4,308.4L467.4,308.4z M609.6,192.7h-1.2c-33.7-21.7-78.3-34.9-132.5-22.9
		c-78.3,18.1-113.3,86.7-122.9,120.5c-4.8-2.4-9.6-6-14.5-9.6c1.2,1.2,2.4,1.2,2.4,1.2c4.8-24.1,25.3-91.6,97.6-122.9
		c66.3-27.7,159-13.3,208.4,65.1c1.2,3.6,2.4,1.2,1.2,0C614.4,147,522.8,98.8,427.6,134.9c-75.9,28.9-100,110.8-102.4,134.9
		c-1.2-1.2-3.6-2.4-4.8-4.8c-2.4-1.2-3.6-3.6-6-6c3.6-33.7,24.1-104.8,95.2-138.5c63.9-30.1,156.6-18.1,209.6,57.8
		c1.2,2.4,2.4,1.2,1.2-1.2c-36.1-75.9-130.1-119.3-222.9-79.5c-73.5,30.1-92.8,109.6-97.6,144.6c-3.6-6-6-10.8-9.6-15.7
		c2.4-47,25.3-114.5,96.4-148.2c65.1-30.1,156.6-16.9,208.4,59c2.4,2.4,3.6,1.2,2.4-1.2C561.4,61.4,467.4,16.8,374.6,56.6
		c-72.3,30.1-92.8,104.8-96.4,142.2c-4.1-11.3-6.9-23-8.4-34.9c2.4-27.7,21.7-94,92.8-126.5c65.1-30.1,154.2-19.3,207.2,55.4
		c2.4,2.4,2.4,1.2,1.2,0C528.8,15.7,443.3-24.1,350.5,15.7c-36.1,14.5-59,39.8-73.5,66.3c-6,10.8-12,24.1-15.7,39.8
		c-3.6,13.3-4.8,25.3-4.8,32.5v1.2c-2.4,39.8,8.4,85.5,45.8,126.5c55.4,60.2,132.5,55.4,166.3,47c0,4.8,0,10.8-1.2,16.9
		c0-1.2-1.2-2.4-1.2-2.4c-22.9,8.4-91.6,24.1-154.2-22.9c-56.6-43.4-90.4-130.1-47-212c1.2-3.6-1.2-3.6-1.2-2.4
		c-50.6,68.7-45.8,172.3,32.5,236.1c62.6,50.6,145.8,31.3,168.7,21.7c-1.2,1.2-1.2,3.6-2.4,6c0,2.4-1.2,4.8-2.4,7.2
		c-31.3,14.5-102.4,32.5-166.3-12c-59-41-95.2-126.5-55.4-209.6c1.2-3.6-1.2-3.6-1.2-2.4c-48.2,69.9-38.6,173.5,42.2,233.7
		c62.6,48.2,141,25.3,172.3,12c-2.4,6-4.8,10.8-7.2,15.7c-42.2,21.7-112,36.1-177.1-8.4c-57.8-41-92.8-127.7-53-210.8
		c1.2-2.4,0-2.4-1.2-1.2c-47,69.9-38.5,173.5,42.2,233.7c61.4,47,136.1,27.7,171.1,12c-9.6,10.9-19.3,19.3-27.7,25.3
		c-26.5,12-91.6,26.5-154.2-18.1c-57.8-41-94-124.1-55.4-207.2c1.2-2.4,0-2.4-1.2-1.2c-44.6,74.7-37.3,168.7,43.4,230.1
		c31.3,24.1,66.3,30.1,95.2,30.1c14.5,0,32.5-2.4,49.4-8.4c9.6-2.4,18.1-6,24.1-9.6c0,0,1.2,0,1.2-1.2
		c34.9-18.1,68.7-51.8,85.5-103.6c24.1-77.1-18.1-141-43.4-166.3c4.8-2.4,9.6-4.8,15.7-7.2c-1.2,0-1.2,1.2-1.2,1.2
		c19.3,15.7,66.3,67.5,56.6,145.8c-8.4,71.1-67.5,143.4-160.2,147c-3.6,0-1.2,1.2,0,2.4c83.1,8.4,171.1-47,186.7-147
		c13.2-79.5-44.6-142.2-65.1-155.4c2.4-1.2,3.6-2.4,6-2.4c2.4-1.2,6-1.2,8.4-2.4c27.7,20.5,79.5,73.5,72.3,151.8
		c-6,71.1-61.4,145.8-154.2,151.8c-3.6,1.2-2.4,2.4,0,2.4c83.1,6,168.7-53,180.7-153c9.6-78.3-48.2-134.9-75.9-156.6h16.9
		c39.8,25.3,87.9,78.3,80.7,156.6c-6,71.1-62.6,144.6-155.4,151.8c-3.6,0-2.4,1.2,0,1.2c83.1,6,168.7-53,180.7-153
		c9.6-77.1-44.6-132.5-74.7-154.2c13.2,2.4,25.3,6,34.9,10.8c22.9,16.9,68.7,66.3,62.6,143.4c-6,71.1-61.4,143.4-151.8,150.6
		c-3.6,1.2-2.4,2.4-1.2,2.4c88,1.2,165.1-53,177.1-153C693.9,263.8,636.1,209.6,609.6,192.7L609.6,192.7z M380.7,592.7
		c0-1.2,1.2-1.2,2.4-1.2h19.3c2.4,0,3.6,0,3.6,1.2h-3.6c-3.6,0-4.8,2.4-4.8,4.8v75.9c0,7.2,4.8,6,16.9,6H429c2.4,0,6-1.2,8.4-7.2
		c1.2-1.2,1.2-2.4,1.2-2.4c0-1.2,0-1.2,1.2-1.2v2.4c-1.2,4.8-2.4,6-2.4,10.8c0,1.2-1.2,1.2-1.2,1.2h-56.7c0-1.2,0-1.2,1.2-1.2
		c2.4,0,7.2,0,7.2-6v-77.1c0-3.6-1.2-6-4.8-6H380.7L380.7,592.7z M468.6,592.7c-1.2,0-2.4,0-2.4-1.2h16.9c2.4,0,2.4,1.2,2.4,3.6
		c6,19.3,10.8,34.9,25.3,72.3c7.2-16.9,20.5-49.4,27.7-72.3c1.2-3.6,1.2-3.6,3.6-3.6h12c2.4,0,2.4,0,2.4,1.2h-2.4
		c-3.6,0-6,2.4-6,8.4c1.2,15.7,6,69.9,7.2,73.5c0,2.4,0,7.2,6,7.2h2.4c0,1.2-1.2,1.2-2.4,1.2H542c-1.2,0-3.6,0-3.6-1.2h2.4
		c4.8,0,4.8-1.2,4.8-7.2c-1.2-13.2-6-67.5-6-69.9c-1.2,2.4-28.9,75.9-30.1,77.1c0,1.2,0,2.4-1.2,2.4s-1.2-2.4-1.2-3.6
		c-1.2,0-25.3-72.3-26.5-73.5c-3.6,26.5-6,65.1-6,68.7c0,6,3.6,6,6,6h1.2c0,1.2-1.2,1.2-1.2,1.2h-19.3c0-1.2,1.2-1.2,2.4-1.2
		c3.6,0,6-3.6,6-8.4c3.6-22.9,6-66.3,6-74.7C475.9,592.7,471.1,592.7,468.6,592.7L468.6,592.7z M622.9,593.9c0-2.4,1.2-3.6,2.4-3.6
		s1.2,2.4,2.4,3.6l25.3,79.5c3.6,6,7.2,7.2,9.6,8.4h2.4c0,1.2-1.2,1.2-3.6,1.2h-16.9c-2.4,0-3.6,0-3.6-1.2h2.4
		c1.2,0,2.4-1.2,2.4-3.6c-3.6-12-10.8-31.3-10.8-32.5c-1.2-1.2,0-1.2-2.4-1.2c-3.6-1.2-16.9-1.2-20.5,0c-1.2,0-2.4,0-2.4,1.2
		s-7.2,22.9-8.4,28.9c0,4.8,2.4,7.2,6,7.2h1.2c0,1.2,0,1.2-2.4,1.2h-18.1c-1.2,0-2.4,0-2.4-1.2h2.4c4.8,0,6-3.6,7.2-8.4L622.9,593.9
		L622.9,593.9z M612,638.5c0,1.2,0,1.2,1.2,1.2h18.1c1.2,0,1.2,0,1.2-1.2l-9.6-32.5L612,638.5L612,638.5z M701.2,591.5h-14.5
		c0,1.2,1.2,1.2,2.4,1.2c3.6,0,7.2,1.2,7.2,6v77.1c0,4.8-2.4,6-7.2,6h-1.2c0,1.2,1.2,1.2,2.4,1.2h19.3c2.4,0,6,0,6-1.2h-2.4
		c-2.4,0-7.2,0-7.2-8.4v-36.1c0-1.2,1.2-1.2,1.2-1.2h12c1.2,0,1.2,0,2.4,1.2c9.6,13.3,20.5,31.3,30.1,41
		c7.2,8.4,18.1,10.8,25.3,10.8c1.2,0,3.6,0,3.6-1.2h-1.2c-4.8-1.2-9.6-2.4-12-4.8c-6-3.6-9.6-9.6-12-13.3l-22.9-33.7
		c-1.2-1.2-2.4-2.4-2.4-3.6c1.2-2.4,12-8.4,12-20.5c0-7.2-2.4-12-4.8-14.5c-7.2-8.4-18.1-7.2-25.3-7.2
		C709.6,590.3,703.6,591.5,701.2,591.5L701.2,591.5z M732.5,614.4c0,8.4-2.4,18.1-13.2,18.1h-10.8c-2.4,0-2.4,0-2.4-2.4v-32.5
		c0-3.6,2.4-3.6,4.8-4.8c4.8,0,9.6,1.2,13.2,3.6C730.1,600,732.5,607.2,732.5,614.4L732.5,614.4z M791.5,592.7c-1.2,0-1.2,0-1.2-1.2
		h26.5c0,1.2-1.2,1.2-1.2,1.2c-2.4,0-8.4,0-8.4,7.2v68.7c0,6,0,13.2,7.2,13.2h2.4c0,1.2-1.2,1.2-7.2,1.2h-20.5
		c0-1.2,1.2-1.2,2.4-1.2c3.6,0,7.2-1.2,7.2-6V600C798.7,595.1,796.3,592.7,791.5,592.7L791.5,592.7z"/>
	<path class="st0" d="M839.7,592.7c-1.2,0-2.4,0-2.4-1.2H859c0,1.2,0,1.2-2.4,1.2c-3.6,0-6,2.4-8.4,4.8
		c-9.6,9.6-19.3,21.7-30.1,32.5c0,0-1.2,1.2-1.2,2.4l2.4,2.4c0,1.2,26.5,36.1,27.7,37.3s4.8,6,9.6,8.4c2.4,1.2,3.6,1.2,4.8,1.2
		c1.2,0,1.2,0,1.2,1.2h-22.9c0-1.2,2.4-1.2,2.4-2.4l-1.2-1.2c-3.6-7.2-26.5-36.1-30.1-39.8c-1.2-2.4-2.4-2.4-2.4-3.6
		c0-1.2,1.2-2.4,3.6-4.8c8.4-9.6,21.7-24.1,27.7-31.3c1.2-1.2,3.6-3.6,3.6-4.8C843.3,592.7,840.9,592.7,839.7,592.7L839.7,592.7z
		 M267.4,637.3c0-27.7,18.1-48.2,42.2-48.2s43.4,21.7,43.4,48.2s-18.1,47-42.2,47S267.4,663.8,267.4,637.3L267.4,637.3z
		 M279.5,645.7c7.2,25.3,25.3,38.5,42.2,33.7c18.1-4.8,26.5-25.3,19.3-50.6c-7.2-26.5-24.1-39.8-42.2-34.9
		C280.7,600,272.3,620.4,279.5,645.7z M156.6,637.3c0-27.7,18.1-48.2,42.2-48.2c24.1,0,43.4,21.7,43.4,48.2s-18.1,47-42.2,47
		C175.9,684.3,156.6,663.8,156.6,637.3z M168.7,645.7c7.2,25.3,25.3,38.5,43.4,33.7c16.9-4.8,25.3-25.3,18.1-50.6
		c-7.2-26.5-24.1-39.8-42.2-34.9C169.9,600,161.4,620.4,168.7,645.7L168.7,645.7z M150.6,565h-18.1c-2.4,0-4.8-1.2-4.8,0
		s1.2,1.2,1.2,1.2c3.6,0,6,1.2,6,6c0,2.4,0,6-1.2,9.6c-12,31.3-24.1,60.2-34.9,85.5c-6-16.9-12-34.9-18.1-51.8
		c6-14.5,12-27.7,16.9-39.8c3.6-7.2,7.2-9.6,9.6-9.6c2.4,0,2.4,0,2.4-1.2s-1.2-1.2-3.6,0H89.1c-3.6,0-6-1.2-6,1.2h2.4
		c2.4,0,4.8,1.2,4.8,6c1.2,2.4,0,6-1.2,9.6c-3.6,9.6-7.2,18.1-10.8,27.7c-4.8-15.7-8.4-28.9-10.8-37.3c-1.2-3.6,0-4.8,2.4-6
		c2.4,0,3.6,1.2,4.8,0h1.2c0-2.4-3.6-1.2-6-1.2H49.4c-2.4,0-4.8,0-4.8,1.2c0,0,1.2,1.2,2.4,0c4.8,0,7.2,3.6,9.6,7.2l16.9,50.6
		l-18.1,43.4c-13.3-34.9-27.7-77.1-32.5-95.2c-1.2-3.6,0-4.8,2.4-6c2.4,0,3.6,1.2,4.8,1.2l1.2-1.2c0-2.4-2.4-1.2-6-1.2H4.8
		c-2.4,0-4.8,0-4.8,1.2c0,0,1.2,1.2,2.4,1.2c4.8-1.2,7.2,2.4,8.4,6l38.6,107.2c0,1.2,0,3.6,2.4,3.6c1.2,0,2.4-1.2,3.6-3.6
		c4.8-14.5,12-32.5,20.5-50.6l16.9,50.6c0,1.2,1.2,3.6,2.4,3.6s2.4-1.2,3.6-3.6c12-28.9,30.1-74.7,43.4-104.8c2.4-7.2,6-9.6,9.6-9.6
		c1.2,0,2.4,0,2.4-1.2C154.2,563.8,153,563.8,150.6,565L150.6,565z"/>
</g>
</svg>
